<?xml version="1.0" encoding="utf-8"?>
<!-- Generator: Adobe Illustrator 16.0.4, SVG Export Plug-In . SVG Version: 6.00 Build 0)  -->
<!DOCTYPE svg PUBLIC "-//W3C//DTD SVG 1.1//EN" "http://www.w3.org/Graphics/SVG/1.1/DTD/svg11.dtd">
<svg version="1.1" id="Layer_1" xmlns="http://www.w3.org/2000/svg" xmlns:xlink="http://www.w3.org/1999/xlink" x="0px" y="0px"
	 width="45" height="45" viewBox="0 0 271.536 271.583" enable-background="new 0 0 271.536 271.583"
	 xml:space="preserve">
<g>
	<path fill="#FFFFFF" d="M271.516,135.817c0,74.977-60.779,135.753-135.751,135.753c-74.97,0-135.749-60.776-135.749-135.753
		c0-74.97,60.779-135.751,135.749-135.751C210.736,0.066,271.516,60.848,271.516,135.817z"/>
	<g>
		<polygon fill="none" points="123.181,135.823 123.093,135.995 131.349,135.995 131.323,135.823 		"/>
		<polygon fill="none" points="219.121,135.823 219.05,135.995 227.285,135.995 227.264,135.823 		"/>
		<path fill="none" d="M74.88,135.823l0.039,0.172h8.556c-0.09-0.059-0.15-0.12-0.222-0.172H74.88z"/>
		<polygon fill="none" points="58.414,135.823 58.347,135.995 62.479,135.995 62.474,135.823 		"/>
		<polygon fill="none" points="143.133,135.823 143.062,135.995 145.307,135.995 145.45,135.823 		"/>
		<path fill="none" d="M41.266,135.823c-0.1,0.052-0.198,0.119-0.309,0.172h6.567l0.078-0.172H41.266z"/>
		<path fill="none" d="M198.372,135.823c-0.133,0.052-0.243,0.119-0.366,0.172h10.463l0.079-0.172H198.372z"/>
		<path fill="none" d="M165.959,135.823c-0.112,0.059-0.242,0.113-0.358,0.172h13.804c-0.061-0.059-0.138-0.12-0.211-0.172H165.959z
			"/>
		<path fill="none" d="M102.434,135.823c-0.122,0.052-0.243,0.119-0.366,0.172h10.452l0.078-0.172H102.434z"/>
		<path d="M70.454,118.332c1.008-2.345-0.525-2.628-2.433-2.628h-0.831l-2.271,5.165h0.777
			C67.509,120.869,69.453,120.587,70.454,118.332z"/>
		<path d="M128.948,122.243c0,0-1.452,3.678-2.333,5.694l-3.434,7.886h8.142L128.948,122.243z"/>
		<path d="M37.777,128.016c1.119-2.54-1.73-2.499-3.508-2.499h-1.095l-2.189,5.051h1.242
			C34.044,130.567,36.692,130.52,37.777,128.016z"/>
		<path d="M95.949,128.709c3.352,0,6.729-2.382,8.24-5.86c1.418-3.234,0.416-5.932-3.101-5.932c-3.506,0-6.862,2.697-8.274,5.932
			C91.297,126.327,92.592,128.709,95.949,128.709z"/>
		<polygon points="61.997,128.055 61.802,128.055 58.414,135.823 62.474,135.823 		"/>
		<path d="M224.925,122.356c0,0-1.49,3.564-2.37,5.581l-3.434,7.886h8.143L224.925,122.356z"/>
		<path d="M191.893,128.709c3.352,0,6.741-2.382,8.243-5.86c1.407-3.234,0.414-5.932-3.092-5.932c-3.521,0-6.886,2.697-8.292,5.932
			C187.252,126.327,188.548,128.709,191.893,128.709z"/>
		<path d="M41.409,116.839c0.975-2.262-1.151-2.118-2.758-2.118h-0.765l-1.91,4.379h1.013
			C38.603,119.1,40.488,118.938,41.409,116.839z"/>
		<path d="M30.833,107.38h12.88c5.884,0,11.282,1.415,8.22,8.444c-1.158,2.663-3.632,5.285-6.669,6.124l-0.1,0.259
			c2.798,1.17,3.845,3.593,2.261,7.227c-1.313,3.018-3.578,5.069-6.16,6.39h6.337l12.38-28.443h13.368
			c6.874,0,11.408,2.905,8.07,10.584c-2.006,4.597-4.625,6.54-9.351,7.907l-0.099,0.255c0.366,0.435,0.848,0.921,1.065,1.812
			l1.844,7.886h8.374c-3.245-2.59-4.136-7.128-1.53-13.125c4.184-9.577,14.479-15.802,23.728-15.802
			c9.251,0,14.136,6.225,9.959,15.802c-2.637,6.005-7.477,10.535-12.977,13.125h10.164l12.388-28.443h10.625l2.42,16.086
			c0,0,1.805-4.366,2.925-6.953l3.982-9.133h10.582l-12.388,28.443h2.317l7.362-8.899l0.378,0.453
			c1.311,1.528,3.146,2.776,5.686,2.776c1.093,0,3.033-0.442,3.623-1.816c0.601-1.369-0.812-1.486-1.715-1.694l-2.057-0.4
			c-3.986-0.767-6.512-3.315-4.436-8.079c3.139-7.23,11.491-11.267,18.115-11.267c3.473,0,6.298,0.849,8.486,2.67l-6.394,7.793
			c-1.334-1.295-3.021-2.302-5.403-2.302c-0.974,0-2.53,0.358-3.086,1.61c-0.497,1.136,0.804,1.296,1.558,1.495l2.261,0.564
			c4.231,1.05,6.54,3.551,4.285,8.722c-1.661,3.809-4.702,6.575-8.155,8.374h13.234c-3.241-2.59-4.138-7.128-1.502-13.125
			c4.153-9.577,14.462-15.802,23.701-15.802c9.255,0,14.133,6.225,9.962,15.802c-2.624,6.005-7.476,10.535-12.982,13.125h10.176
			l12.395-28.443h10.613l2.453,15.928c0,0,1.771-4.208,2.896-6.795l3.978-9.133h5.77h4.813l-4.813,11.023l-7.581,17.42h25.416
			c0-71.098-57.628-128.721-128.729-128.721C64.684,7.103,7.048,64.726,7.048,135.823h11.387l3.929-9.011L30.833,107.38z"/>
		<path fill="#FF5000" d="M145.259,149.029h-0.393l-3.917,8.284h0.36l0.687-0.043c1.032-0.151,1.903-0.467,2.608-0.961
			c0.702-0.486,1.367-1.25,2-2.278c0.121-0.216,0.225-0.411,0.304-0.57c0.103-0.16,0.161-0.289,0.206-0.39
			c0.625-1.33,0.723-2.342,0.289-3.048C147.052,149.363,146.333,149.029,145.259,149.029z"/>
		<path fill="#FF5000" d="M82.593,148.608c-0.152-0.024-0.42-0.036-0.797-0.036H80.65l-1.811,3.832h1.292
			c1.088,0,1.931-0.44,2.531-1.321c0.198-0.302,0.36-0.57,0.474-0.818c0.36-0.779,0.307-1.308-0.187-1.563
			C82.86,148.663,82.744,148.629,82.593,148.608z"/>
		<path fill="#FF5000" d="M219.599,146.975c0.402,1.904,0.036,4.043-1.064,6.39c-0.732,1.518-1.722,3-3.009,4.415
			c-1.273,1.428-2.689,2.656-4.252,3.701c-1.568,1.019-3.189,1.804-4.852,2.321c-2.046,0.63-3.878,0.936-5.551,0.936
			c-3.279,0-5.527-1.086-6.803-3.257c-1.244-2.179-1.094-4.898,0.433-8.116c1.514-3.232,3.91-5.937,7.174-8.091
			c1.202-0.78,2.42-1.385,3.644-1.884h-10.452l-5.625,7.474l-0.275-0.317c-0.528-0.492-1.065-0.846-1.653-1.061
			c-0.231-0.079-0.444-0.146-0.66-0.182c-0.209-0.041-0.44-0.054-0.696-0.054c-1.175,0-2.348,0.385-3.512,1.164
			c-1.188,0.792-2.039,1.754-2.575,2.891c-0.381,0.811-0.503,1.566-0.346,2.276c0.307,1.125,1.137,1.689,2.457,1.689
			c1.079,0,2.519-0.403,4.33-1.212l0.621-0.273l-0.854,6.841l-0.969,0.462c-2.382,1.062-4.644,1.59-6.735,1.59
			c-0.669,0-1.356-0.058-2.027-0.181c-2.642-0.492-4.376-1.788-5.177-3.854c-0.797-2.077-0.534-4.5,0.773-7.303
			c0.393-0.816,0.882-1.655,1.459-2.495c1.528-2.262,3.532-4.181,6.035-5.77c1.065-0.684,2.126-1.226,3.219-1.687h-28.6
			c0.922,0.493,1.654,1.177,2.14,2.105c1.053,1.968,0.831,4.528-0.649,7.666c-1.438,3.027-3.419,5.526-5.939,7.462
			c-2.522,1.942-5.289,3.1-8.309,3.48c-0.527,0.084-1.063,0.118-1.656,0.118h-9.98l9.842-20.832h-4.479l-3.885,5.219h-6.728
			l-0.858,1.806h6.07l-2.768,5.854h-6.067l-0.878,1.863h8.405l-4.629,6.09h-14.683l9.866-20.832h-4.492l-3.899,5.219h-6.726
			l-0.846,1.806h6.063l-2.768,5.854h-6.061l-0.878,1.863h8.406l-4.624,6.09H88.349l9.854-20.832h-8.462
			c0.32,0.212,0.614,0.461,0.835,0.753c0.858,1.093,1.021,2.61,0.504,4.574c-0.189,0.689-0.444,1.373-0.786,2.075
			c-1.004,2.146-2.471,3.88-4.387,5.192c-1.922,1.315-3.89,1.969-5.926,1.969h-3.757l-2.972,6.269h-8.011l9.843-20.832H69.95
			l-5.335,6.581l-0.42-0.395c-0.576-0.522-1.146-0.9-1.712-1.124c-0.57-0.245-1.101-0.354-1.631-0.354
			c-0.639,0-1.175,0.162-1.607,0.474c-0.288,0.229-0.477,0.429-0.564,0.639c-0.144,0.282-0.101,0.482,0.132,0.599
			c0.166,0.148,0.517,0.28,1.029,0.425l1.104,0.357l0.32,0.093l0.57,0.179l0.627,0.205c1.112,0.42,1.817,1.091,2.111,2.055
			c0.281,0.968,0.119,2.106-0.505,3.42c-0.312,0.674-0.77,1.398-1.358,2.172c-1.35,1.788-3.101,3.246-5.251,4.354
			c-2.159,1.113-4.353,1.668-6.581,1.668c-1.571,0-3.067-0.306-4.507-0.931c-0.964-0.416-1.811-0.972-2.537-1.639l5.146-6.416
			c0.151,0.256,0.282,0.461,0.387,0.576c0.104,0.123,0.366,0.378,0.77,0.785c0.87,0.679,1.529,1.07,1.971,1.17
			c0.443,0.105,0.83,0.151,1.176,0.151c0.543,0,0.986-0.112,1.34-0.335c0.354-0.236,0.591-0.498,0.732-0.786
			c0.144-0.314,0.12-0.555-0.09-0.718c-0.079-0.073-0.205-0.145-0.378-0.207c-0.177-0.061-0.441-0.14-0.807-0.211l-0.534-0.159
			l-0.681-0.207l-0.549-0.174c-1.302-0.485-2.126-1.235-2.479-2.254c-0.367-1.033-0.243-2.211,0.392-3.534
			c0.339-0.723,0.81-1.457,1.419-2.188c0.615-0.737,1.38-1.475,2.297-2.216c1.052-0.854,2.237-1.518,3.502-2.056H7.303
			c3.929,67.554,59.918,121.151,128.455,121.151c68.547,0,124.548-53.598,128.474-121.151h-47.116
			C218.423,144.206,219.266,145.388,219.599,146.975z M221.835,158.241c1.087-0.727,2.147-1.104,3.201-1.104
			c1.031,0,1.751,0.377,2.138,1.104c0.394,0.74,0.333,1.632-0.156,2.668c-0.504,1.052-1.271,1.932-2.348,2.651
			c-1.074,0.722-2.139,1.093-3.191,1.093c-1.061,0-1.78-0.371-2.165-1.104c-0.375-0.731-0.303-1.631,0.201-2.703
			C219.974,159.845,220.759,158.981,221.835,158.241z"/>
		<path fill="#FF5000" d="M203.06,157.138c0.426,0.236,0.924,0.36,1.499,0.36c0.861,0,1.726-0.228,2.643-0.707
			c0.915-0.463,1.713-1.101,2.38-1.878c0.419-0.488,0.751-0.993,1.006-1.529c0.413-0.87,0.552-1.643,0.453-2.301
			c-0.11-0.669-0.466-1.16-1.074-1.479c-0.478-0.241-0.98-0.354-1.567-0.354c-0.819,0-1.684,0.235-2.604,0.694
			c-0.918,0.48-1.7,1.11-2.37,1.897c-0.425,0.45-0.77,0.965-1.031,1.542c-0.398,0.832-0.536,1.588-0.414,2.27
			C202.1,156.328,202.453,156.824,203.06,157.138z"/>
	</g>
</g>
</svg>
