<?xml version="1.0" encoding="utf-8"?>
<!-- Generator: Adobe Illustrator 25.0.0, SVG Export Plug-In . SVG Version: 6.00 Build 0)  -->
<svg version="1.1" id="Layer_2_1_" xmlns="http://www.w3.org/2000/svg" xmlns:xlink="http://www.w3.org/1999/xlink" x="0px" y="0px"
	 viewBox="0 0 97.9 36" style="enable-background:new 0 0 97.9 36;" height="32" width="80" xml:space="preserve">
<style type="text/css">
	.st0{fill:#231F20;}
	.st1{fill:#FFFFFF;}
	.st2{fill:#CE0E2D;}
</style>
<g>
	<path class="st0" d="M97.8,25.9c0.3-0.3-0.4-0.5-0.4-0.5l-2-0.5l-4.2-1l-0.1,0l-0.2,0c-0.1,0-0.1-0.1-0.1-0.3l-0.1-6.8l1.8,0.7V6.4
		l-1.9,1.2V0L80.6,8.2l0.1,3.5c-0.2,0.1-0.5,0.1-0.7,0.2c-0.3,0-0.6,0.2-0.8,0.3c-0.2,0.1-0.3,0.3-0.4,0.4c-2.5-2-5.4-5.3-6.4-6.5
		l-1.5-1.6l-1.1,2c-0.2,0.3-0.7,1.4-2.7,5.1c-2.9,5.6-3.9,8.6-4,8.8c-0.5,1.7-0.7,3.3-0.7,4.7c-1.1-0.1-2.6-0.3-4.2-0.4
		c1.3-2.8,3.2-7.5,3.2-10.9c0-5.2-3.5-8.4-6.1-10.4l-1.2-0.9l-5.6,7.3c-0.2,0.3-0.3,0.6-0.4,1c-1.8-4.1-6-7.4-6.2-7.6l-1.2-0.9
		l-5.4,7.3c-0.1,0.1-0.2,0.3-0.2,0.4c-0.5-0.5-1-1-1.4-1.4L33,7.9l-4.6,5.4c-1.3-2.9-3.6-4.3-3.7-4.4l-1.1-0.6l-3.8,4.6
		c-0.9-2.2-2.4-3.8-3.5-4.8l-1.2-1l-3.4,4.4c-0.1-0.9-0.3-1.9-0.6-2.8c-1.1-3-3.5-4.6-3.6-4.7L6.2,3.1l-5,6.9l-0.7,1
		c0,0-0.5,0.6,0.2,0.8c0.6,0.2,0.7,0.5,0.7,0.5c0.1,0.1,0.9,1,0.9,3.4V25l0,0.1c0,0.1,0.1,1.6-1.3,2.6c0,0-1.2,1-1,1.7
		c0.2,0.9,1.7,1.1,1.7,1.1l0.2,0c0,0,4.8,0.5,7.9,4.6c0.3,0.4,0.6,0.9,1.1,0.9c0,0,0.1,0,0.1,0c0.3,0,0.9-0.4,1.4-0.9
		c0.3-0.3,5.1-5.9,7.2-12.7c0,1.5-0.2,2.7-0.2,2.7l0,0.1c0,0.3-0.1,3.2,0.4,4.9c0.6,1.7,2,4,3.5,5.1c0.3,0.2,0.7,0.6,1.1,0.7
		c0.3,0,0.8-0.4,1.4-1.1l0,0c0,0,1.1-1.6,2.8-3.4c0.6,1.1,1.5,2.4,2.7,3.4l1.1,0.9l0.9-1.1c0.2-0.3,1.4-1.7,2.6-3.2
		c-0.2,0.6-0.4,1.2-0.6,1.8l0,0.1c0,0-0.4,1.6-0.2,2.3c0.2,0.6,0.9,0.1,0.9,0.1s0.7-0.2,1.3-0.3c0,0,0,0,0.1,0
		c0.5-0.1,3.4-0.9,9.1-0.3c0.3,0,0.8,0.2,1.1,0c0.3-0.1,0.7-1.2,0.7-1.2c0,0-0.3,1,0.1,1.3c0.4,0.3,1.9-0.1,1.9-0.1
		c0,0,3.8-0.9,9.5,0.1c0,0,1,0.2,1.1,0.3c0.1,0.1,0.4-0.2,0.5-0.4c0-0.1,0.5-1,0.8-1.8c0.4-0.8,1-2.2,1.6-3.5c1.2,2.1,2.9,3.6,5,4.5
		c1.6,0.7,3.2,0.9,4.8,0.9c3.7,0,6.9-1.3,7.1-1.4l0.9-0.4l0-2.7c0.2,0.5,0.5,0.9,0.9,1.3c1.2,1,2.9,1.5,3,1.6l3.8,1.2
		c0.2,0.1,0.4,0.1,0.6,0.1c0.2,0,0.3,0,0.5-0.1c0.5-0.1,0.9-0.5,1.1-0.9c0.3-0.4,3.3-4.6,4.8-6.2l0.1-0.2
		C96.6,27.5,97.5,26.2,97.8,25.9z M71.3,21.1c-0.1,0.3-0.2,0.5-0.3,0.7c-0.2-0.4-0.3-0.9-0.4-1.4C70.9,20.7,71.1,20.9,71.3,21.1z
		 M49.2,12.3c0.1,0,1.6,1,2.7,3.6c0.8,1.8-0.1,6.5-0.9,9.3l0,0c-0.1,0-2.3-0.4-5.5-0.4c0,0-0.1,0-0.1,0c1.6-2.6,3.8-6.8,3.9-10.3
		c0-0.9-0.1-1.8-0.4-2.6C49,12.1,49.1,12.2,49.2,12.3z M13.3,24.3c-0.6-0.4-1.1-0.8-1.5-1v-4.9c0.4,0.5,0.9,1.2,1.2,2.2
		C13.5,22,13.5,23.3,13.3,24.3z M37.2,24.8c-0.2-1,0-2.4,0.1-3c0.2-0.7,1.3-5.1,0.7-7.5c0.2,0.4,0.4,0.8,0.6,1.3
		c0.7,2.3,0.3,5.6,0.2,6c-0.1,0.3-0.4,2-1.1,4.3C37.5,25.6,37.3,25.3,37.2,24.8z M79.3,22.3c-1.1,0.9-2.2,1.5-3.1,1.8l2.9-6.3
		l1.8-0.2l0,3.4L79.3,22.3z"/>
	<g>
		<path class="st1" d="M35.8,25.1c-0.3-1.5,0.1-3.6,0.1-3.6s1.3-4.7,0.7-6.9c-0.6-2.2-2.1-3.7-3.5-4.8L28.7,15c0,0-0.2,0.2,0,0.4
			c0,0,1.2,0.8,1.4,2.5c0.2,1.7-0.6,3.9-0.6,3.9s-0.9,3-0.8,3.9c0,0-0.1,0.4-0.3,0c-0.1-0.4-0.5-1.7-0.4-3.4c0-1.7,0.2-4.5-0.8-7.6
			c-0.9-3.1-3.4-4.6-3.4-4.6l-4.6,5.6c0,0-0.1,0.3-0.2,0c-0.1-0.3-0.5-3.7-3.8-6.6l-4.7,6c0,0-0.3,0.3-0.3-0.1c0,0,0.3-3.3-0.6-5.9
			c-0.9-2.6-3-3.9-3-3.9l-4.3,5.9c0,0-0.2,0.2,0.1,0.3c0,0,1.4,1.1,1.4,4.5V25c0,0,0.2,2.3-1.8,3.8c0,0-0.2,0.2,0.1,0.2
			c0,0,5.4,0.5,9,5.2c0,0,0.1,0.2,0.4-0.1c0,0,7.5-8.6,7.9-17.2c0,0-0.1-0.4,0.1-0.2c0,0,1.2,0.7,1.6,3s0,5.5,0,5.5
			s-0.1,2.9,0.4,4.3c0.5,1.4,1.8,3.6,3.1,4.5c0,0,0.1,0.2,0.3-0.2c0,0,1.8-2.6,4.4-5c0,0,0.1-0.1,0.1,0.2c0.1,0.2,1.2,3,3.1,4.5
			c0,0,4-4.9,4.8-6.2C37.3,27.4,36.1,26.6,35.8,25.1z M13.8,26.8c-1.2-1.5-2.9-2.3-3.2-2.5c-0.3-0.2-0.2-0.4-0.2-0.4V16l0-0.2
			c0,0,2.6,0.3,4,4.2C15.8,24,13.8,26.8,13.8,26.8z"/>
		<path class="st1" d="M42.6,26.5c0,0,5.1-6.9,5.2-11.9c0.1-5-6.5-10.1-6.5-10.1l-4.5,6.1c0,0-0.1,0.1,0,0.2c0,0,2.1,1.7,3,4.4
			c0.9,2.8,0.3,6.7,0.3,6.7s-1.3,5.8-3.2,11.7c0,0-0.1,0.4,0.2,0.3c0,0,3.1-1.1,9.8-0.4c0,0,0.1,0.1,0.2-0.3c0,0,2.5-5,3.6-6.5
			C50.8,26.7,47.2,26.2,42.6,26.5z"/>
		<path class="st1" d="M56.1,26.3c0,0,4.2-7.8,4.1-12.5c0-4.7-3.3-7.6-5.6-9.2l-4.7,6.2c0,0-0.1,0.1,0,0.2c0,0,2,1.1,3.3,4.3
			c1.3,3.2-1,10.9-1,10.9s-2.2,6.6-2.2,7.2c0,0-0.2,0.3,0.1,0.2c0,0,4-1,10.2,0.1c0,0,0.2,0.1,0.3-0.2c0.1-0.2,2.2-5.1,3.2-6.8
			C63.8,26.8,59.1,26,56.1,26.3z"/>
		<path class="st1" d="M71.4,7L71.4,7C71.4,7,71.4,7,71.4,7z"/>
		<path class="st1" d="M73.8,25.9L79,14.5C75.6,12.2,71.4,7,71.4,7c0,0-0.1,0.3-2.8,5.4c-2.9,5.5-3.9,8.5-3.9,8.5
			c-0.7,2.5-0.9,4.9-0.2,6.7c4,9.9,15.7,4.8,15.7,4.8l0-9C76.9,26.2,73.8,25.9,73.8,25.9z M71.3,24.5c0,0-3-1.8-1.9-7.3
			c0,0,3.4,3.2,3.6,3.6C73,20.8,71.9,23.7,71.3,24.5z"/>
		<path class="st1" d="M95.1,26.4l-4.2-1c0,0-1.4-0.1-1.5-1.7L89.4,15c0,0,0-0.2,0.2-0.2l1.7,0.6V9l-1.6,1c0,0-0.3,0.1-0.3-0.2V3.1
			l-7.2,5.8l0.2,3.7c0,0,0.1,0.1-0.2,0.2c-0.4,0.1-1.8,0.4-1.8,0.4s-0.2,0-0.2,0.4s0,2.5,0,2.5l2.1-0.2c0,0,0.2-0.1,0.2,0.2
			l0.1,11.1c0,0,0.1,2.6,1.1,3.4s2.6,1.3,2.6,1.3l3.9,1.2c0,0,0.2,0.1,0.4-0.2c0.2-0.3,3.4-4.8,5-6.4C95.4,26.7,95.5,26.4,95.1,26.4
			z"/>
	</g>
	<g>
		<path class="st2" d="M38.5,32.6c0-0.1,0.1-0.3,0.1-0.4c0.1-0.5,0.2-0.9,0.4-1.4c0-0.1,0.1-0.2,0.2-0.2c0.2,0,0.3-0.1,0.5-0.1
			c0.5-0.1,1.1-0.2,1.6-0.2c0.3,0,0.7-0.1,1-0.1c0.5,0,1-0.1,1.5-0.1c0.8,0,1.6,0,2.3,0.1c0.4,0,0.7,0.1,1.1,0.1c0.1,0,0.1,0,0.1,0
			c0.1,0.1,0,0.1,0,0.2c-0.2,0.3-0.3,0.6-0.4,0.8c-0.2,0.3-0.3,0.6-0.5,0.9c-0.1,0.1-0.3,0.1-0.4,0.1c-0.8-0.1-1.7-0.2-2.5-0.1
			c-0.5,0-1,0-1.5,0c-0.6,0-1.2,0-1.7,0.1c-0.2,0-0.5,0-0.7,0.1c-0.3,0-0.5,0.1-0.8,0.1C38.8,32.6,38.7,32.6,38.5,32.6z"/>
		<path class="st2" d="M52.2,30.3c0.5-0.1,1-0.2,1.5-0.2c0.5,0,0.9-0.1,1.4-0.1c0.7,0,1.4,0,2.1,0c0.6,0,1.3,0.1,1.9,0.1
			c0.1,0,0.3,0,0.4,0.1c0.3,0,0.6,0.1,0.9,0.1c0.1,0,0.3,0,0.4,0.1c0,0.1,0,0.3-0.1,0.4c-0.1,0.3-0.3,0.5-0.4,0.8
			c-0.1,0.2-0.2,0.4-0.3,0.7c0,0.1-0.1,0.1-0.1,0.2c0,0-0.1,0-0.1,0c-0.7-0.1-1.3-0.2-2-0.2c-0.5-0.1-0.9-0.1-1.4-0.1
			c-0.7,0-1.5,0-2.2,0c-0.7,0-1.4,0.1-2.1,0.2c-0.1,0-0.3,0.1-0.4,0.1c0,0-0.1,0-0.1,0c0,0,0,0,0,0c0,0,0,0,0,0
			c0-0.1,0.1-0.3,0.1-0.4C51.8,31.5,52,30.9,52.2,30.3z"/>
		<g>
			<path class="st2" d="M33.9,30.3c-0.5,0.6-1,1.2-1.5,1.8c-0.1-0.2-0.3-0.3-0.4-0.4c-0.3-0.4-0.6-0.8-0.9-1.2c0,0-0.1-0.1-0.1-0.1
				c-0.2-0.3-0.3-0.6-0.5-0.9c-0.1-0.1-0.1-0.2-0.2-0.4c-0.2-0.5-0.4-0.9-0.5-1.4c0-0.2-0.1-0.4-0.1-0.6c0,0,0-0.1,0-0.2
				c0,0-0.1,0-0.1,0.1c-0.5,0.5-1,1.1-1.6,1.6c-0.3,0.3-0.6,0.6-0.8,0.9c-0.1,0.1-0.2,0.3-0.3,0.4c0,0-0.1,0.1-0.1,0
				c0,0-0.1-0.1-0.1-0.1c-0.5-0.4-0.8-0.9-1-1.5c-0.3-0.7-0.4-1.4-0.5-2.1c-0.1-0.7-0.1-1.3,0-2c0-0.3,0-0.6,0-1c0-0.4,0-0.8,0-1.2
				c0.1-0.8,0-1.5,0.1-2.3c0-0.2,0-0.4,0-0.6c-0.1-0.5-0.1-1-0.2-1.4c-0.1-0.6-0.3-1.2-0.6-1.7c-0.2-0.4-0.3-0.7-0.6-1.1
				c0,0,0,0,0,0c-0.3-0.4-0.6-0.7-0.9-1.1c-0.1-0.2-0.3-0.3-0.4-0.4c0,0-0.1-0.1-0.1-0.1c0.5-0.6,1-1.1,1.4-1.7c0,0,0,0,0.1,0
				c0,0,0.1,0,0.1,0.1c0.3,0.2,0.6,0.5,0.8,0.7c0.2,0.2,0.4,0.4,0.6,0.7c0.3,0.5,0.6,0.9,0.8,1.4c0.1,0.2,0.2,0.4,0.2,0.6
				c0.1,0.3,0.2,0.5,0.2,0.8c0.1,0.6,0.3,1.2,0.3,1.8c0,0.2,0,0.4,0.1,0.6c0,0,0,0.1,0,0.1c0,0.7,0.1,1.4,0.1,2.1c0,0.7,0,1.4,0,2.2
				c0,0.2,0,0.3,0,0.5c0,0.4,0,0.8,0.1,1.2c0.1,0.3,0.1,0.7,0.2,1c0.1,0.5,0.2,1,0.5,1.4c0.1,0.2,0.2,0.4,0.4,0.6c0,0,0,0,0.1,0
				c0.3-0.2,0.6-0.5,0.8-0.7c0.2-0.2,0.3-0.3,0.5-0.5c0.1-0.1,0.1-0.1,0.1-0.2c0-0.3,0-0.6,0.1-0.9c0-0.2,0.1-0.5,0.1-0.7
				c0-0.2,0.1-0.4,0.1-0.6c0.1-0.4,0.2-0.8,0.3-1.2c0.1-0.2,0.1-0.4,0.2-0.6c0.1-0.4,0.2-0.7,0.3-1.1c0.1-0.3,0.1-0.5,0.2-0.8
				c0.2-0.7,0.3-1.5,0.2-2.2c0-0.4-0.1-0.7-0.2-1.1c0-0.1,0-0.1-0.1-0.2c0-0.1-0.1-0.1-0.1-0.2c-0.2-0.4-0.4-0.8-0.7-1.1
				c-0.1-0.1-0.1-0.1-0.2-0.2c0.1-0.1,0.2-0.2,0.3-0.3c0.2-0.2,0.3-0.3,0.5-0.5c0.2-0.2,0.3-0.3,0.4-0.5c0-0.1,0.1-0.1,0.1-0.1
				c0.1,0,0.2,0.1,0.3,0.2c0.4,0.5,0.7,1,1,1.6c0.1,0.2,0.2,0.4,0.2,0.5c0.1,0.3,0.1,0.6,0.2,0.8c0.1,0.6,0.1,1.3,0,1.9
				c0,0.2,0,0.4-0.1,0.6c0,0.2-0.1,0.4-0.1,0.6c-0.1,0.3-0.1,0.6-0.2,1c0,0.1,0,0.2-0.1,0.3c-0.1,0.6-0.2,1.1-0.4,1.7
				c-0.1,0.3-0.1,0.6-0.2,0.9C32,24.3,32,25,32,25.6c0,0.3,0,0.5,0.1,0.8c0,0.2,0.1,0.5,0.1,0.7c0.1,0.5,0.2,1,0.5,1.4
				c0.2,0.4,0.4,0.7,0.6,1c0.2,0.2,0.3,0.4,0.5,0.6C33.8,30.2,33.9,30.2,33.9,30.3z"/>
			<path class="st2" d="M5.4,8.2c0.4-0.6,0.8-1.1,1.2-1.6c0.1,0,0.2,0,0.2,0.1C7.1,6.8,7.3,7,7.4,7.2C7.7,7.6,8,8,8.3,8.4
				c0.3,0.5,0.5,1,0.7,1.5c0.2,0.7,0.4,1.4,0.4,2.2c0,1.2,0,2.4,0.1,3.6c0,0.3,0,0.6,0,0.8c0,0.7,0,1.4,0,2.1c0,0.8,0,1.6,0,2.3
				c0,1.2,0,2.4,0,3.6c0,0.1,0,0.2,0,0.3c0,0,0.1,0.1,0.1,0.1c0.5,0.2,1,0.5,1.4,0.8c0.1,0.1,0.2,0.2,0.4,0.2
				c0.6,0.4,1.2,0.9,1.7,1.4c0.3,0.3,0.6,0.6,0.9,1c0,0,0,0,0.1,0.1c0,0,0-0.1,0.1-0.1c0.5-0.7,1-1.6,1.2-2.4c0.2-0.7,0.4-1.3,0.4-2
				c0-0.1,0-0.2,0-0.3c0-0.5,0-1.1,0-1.6c0-0.1,0-0.2,0-0.2c-0.1-0.6-0.2-1.2-0.3-1.8c-0.1-0.4-0.3-0.9-0.4-1.3
				c-0.2-0.4-0.3-0.7-0.5-1c-0.2-0.4-0.5-0.8-0.8-1.1c-0.2-0.2-0.3-0.4-0.5-0.6c-0.3-0.4-0.7-0.7-1-1c-0.1,0-0.1-0.1-0.2-0.2
				c0.5-0.6,0.9-1.2,1.4-1.8c0,0,0.1,0,0.1,0.1c0.4,0.4,0.8,0.9,1.2,1.3c0.2,0.3,0.4,0.6,0.6,0.9c0.3,0.5,0.6,1.1,0.8,1.7
				c0.2,0.5,0.4,1,0.5,1.5c0.1,0.3,0.2,0.7,0.2,1.1c0.1,0.4,0.1,0.8,0.1,1.3c0,0.2,0,0.3,0,0.5c0,0.6-0.1,1.1-0.2,1.7
				c-0.1,0.5-0.2,1-0.3,1.5c0,0.2-0.1,0.3-0.1,0.5c-0.1,0.4-0.3,0.8-0.4,1.2c-0.2,0.5-0.5,1-0.7,1.5c-0.3,0.5-0.6,0.9-0.9,1.4
				c-0.3,0.4-0.6,0.9-1,1.3c0,0.1-0.1,0.1-0.1,0.2c0,0-0.1-0.1-0.1-0.1c-0.4-0.5-0.8-1-1.3-1.4c-0.3-0.3-0.7-0.6-1.1-0.9
				c-0.4-0.3-0.9-0.6-1.3-0.9c-0.5-0.3-1.1-0.6-1.7-0.9c0,0,0,0,0,0c-0.1,0-0.1,0-0.2-0.1c-0.1-0.1,0-0.1,0-0.2c0-0.6,0-1.1,0-1.7
				c0-0.8,0-1.6,0-2.4c0-0.9,0-1.9,0-2.8c0-1.8,0-3.6,0-5.4c0-0.2,0-0.5,0-0.7c0-0.3-0.1-0.6-0.1-0.9C7.2,11.3,7,10.5,6.6,9.8
				C6.4,9.3,6.1,9,5.8,8.6C5.8,8.5,5.7,8.4,5.6,8.3C5.5,8.3,5.5,8.2,5.4,8.2z"/>
			<path class="st2" d="M3.5,10.8C3.9,10.2,4.4,9.6,4.8,9c0,0,0,0,0.1-0.1c0.2,0.2,0.4,0.3,0.5,0.5C6,10.2,6.4,11.1,6.5,12
				c0.1,0.4,0.1,0.7,0.1,1.1c0,0.2,0,0.4,0,0.5c0,1.9,0,3.7,0,5.6c0,2.3,0,4.6,0,6.8c0,0.2,0,0.4,0,0.6c0,0.1,0,0.2,0.1,0.2
				c0.3,0.1,0.6,0.3,0.9,0.4c0.4,0.2,0.7,0.4,1.1,0.6c0.6,0.3,1.1,0.7,1.7,1.1c0.4,0.3,0.8,0.6,1.1,1c0.3,0.3,0.7,0.7,0.9,1
				c0,0,0,0.1,0.1,0.1c0,0.1,0,0.1,0,0.2c0,0-0.1,0.1-0.1,0.1c-0.4,0.5-0.7,0.9-1.1,1.4c0,0,0,0-0.1,0.1c0,0-0.1-0.1-0.1-0.1
				c-0.5-0.6-1-1-1.6-1.5c-0.3-0.3-0.6-0.5-1-0.7c-0.4-0.3-0.8-0.5-1.2-0.8c-0.2-0.1-0.4-0.2-0.5-0.3c-0.9-0.5-1.8-0.9-2.8-1.2
				c-0.1,0-0.1,0-0.2-0.1C4,28,4.1,27.8,4.2,27.7c0.1-0.2,0.2-0.3,0.3-0.5c0.1-0.3,0.2-0.6,0.3-0.9c0-0.1,0-0.2,0-0.3
				c0-0.8,0-1.5,0-2.3c0-0.9,0-1.8,0-2.7c0-1.2,0-2.5,0-3.7c0-0.7,0-1.4,0-2.1c0-0.4,0-0.8,0-1.2c0-0.1,0-0.2-0.1-0.4
				c-0.1-0.4-0.1-0.7-0.3-1.1c0-0.1-0.1-0.2-0.1-0.3c-0.1-0.2-0.2-0.4-0.3-0.6c-0.1-0.2-0.2-0.3-0.4-0.5C3.6,11,3.5,10.9,3.5,10.8z"
				/>
			<path class="st2" d="M26.2,30.7c-0.3,0.4-0.6,0.7-0.9,1.1c-0.2,0.2-0.4,0.5-0.5,0.8c-0.2-0.1-0.4-0.3-0.5-0.4
				c-0.2-0.2-0.4-0.5-0.6-0.7c-0.3-0.4-0.6-0.9-0.8-1.4c-0.2-0.5-0.4-1.1-0.5-1.7c-0.1-0.4-0.1-0.7-0.1-1.1
				c-0.1-0.5-0.1-0.9-0.1-1.4c0-0.2,0-0.4,0-0.6c0-0.5,0-1,0.1-1.5c0-0.5,0.1-1.1,0.1-1.6c0-0.4,0-0.8,0-1.2c0-0.4,0-0.9-0.1-1.3
				c0-0.6-0.2-1.2-0.5-1.8c-0.1-0.3-0.3-0.6-0.4-0.8c-0.1-0.1-0.1-0.2-0.2-0.3c-0.2-0.3-0.5-0.7-0.9-0.9c0,0,0,0,0,0c0,0,0,0,0,0
				c0.4-0.4,0.7-0.9,1.1-1.3c0.1-0.1,0.2-0.2,0.3-0.3c0.1-0.1,0.1-0.1,0.3,0c0.1,0.1,0.2,0.1,0.2,0.2c0.3,0.4,0.6,0.7,0.9,1.1
				c0.4,0.6,0.7,1.3,0.9,2c0.1,0.3,0.1,0.6,0.2,0.9c0,0,0,0.1,0,0.1c0.1,0.3,0.1,0.7,0.1,1c0,0.4,0,0.9,0,1.3c0,0.3,0,0.7,0,1
				c0,0.7,0,1.4-0.1,2.1c0,0.3,0,0.6,0,0.9c0,0.3,0,0.6,0,0.9c0,0.1,0,0.1,0,0.2c0,0.7,0.1,1.4,0.3,2.1c0.1,0.4,0.2,0.8,0.4,1.2
				c0.1,0.3,0.3,0.6,0.5,0.8c0.2,0.2,0.4,0.5,0.6,0.7C26.2,30.7,26.2,30.7,26.2,30.7z"/>
			<path class="st2" d="M33.1,11.5c0.2,0.1,0.4,0.3,0.5,0.4c0.2,0.2,0.4,0.5,0.6,0.7c0.4,0.6,0.8,1.2,1.1,1.9c0,0.1,0.1,0.2,0.1,0.3
				c0.1,0.5,0.2,0.9,0.2,1.4c0,0.2,0,0.5,0,0.7c0,0.9-0.1,1.7-0.3,2.6c-0.1,0.5-0.2,0.9-0.3,1.4c-0.1,0.6-0.3,1.2-0.3,1.9
				c0,0.4-0.1,0.8-0.1,1.1c0,0.5,0,1,0.1,1.5c0.1,0.3,0.1,0.6,0.3,0.9c0.2,0.4,0.5,0.9,0.9,1.2c0,0,0.1,0.1,0.1,0.1
				c0,0.1-0.1,0.2-0.1,0.3c-0.4,0.5-0.9,1.1-1.3,1.6c0,0-0.1,0.1-0.1,0.1c-0.1-0.1-0.2-0.2-0.3-0.3c-0.6-0.7-1-1.5-1.2-2.3
				c-0.1-0.6-0.2-1.2-0.2-1.7c0-0.4,0.1-0.8,0.1-1.2c0.1-0.5,0.1-0.9,0.2-1.4c0.1-0.5,0.2-1,0.3-1.5c0.1-0.5,0.2-0.9,0.2-1.4
				c0-0.1,0-0.3,0.1-0.4c0.1-0.7,0.1-1.3,0.1-2c0-0.5,0-1-0.2-1.5c0-0.1-0.1-0.3-0.1-0.4c-0.2-0.7-0.6-1.2-1-1.8
				c-0.2-0.2-0.3-0.4-0.5-0.7c-0.1-0.1-0.1-0.2,0-0.3c0.3-0.3,0.6-0.7,0.9-1C33,11.6,33.1,11.6,33.1,11.5z"/>
			<path class="st2" d="M14,12.2c0.1-0.2,1.2-1.5,1.3-1.6c0.1,0,0.1,0.1,0.2,0.2c0.2,0.2,0.4,0.4,0.6,0.7c0.2,0.2,0.4,0.5,0.5,0.7
				c0.2,0.2,0.3,0.5,0.5,0.7c0.2,0.4,0.4,0.7,0.5,1.1c0.1,0.4,0.3,0.8,0.4,1.2c0.1,0.4,0.2,0.9,0.2,1.3c0,0.3,0,0.5,0,0.8
				c0,0.2,0,0.4,0,0.6c0,0.4,0,0.9-0.1,1.3c0,0.3-0.1,0.6-0.1,1c-0.1,0.4-0.2,0.8-0.3,1.2c-0.1,0.3-0.2,0.6-0.2,0.9
				c-0.1,0-0.1,0-0.1-0.1c0,0,0-0.1,0-0.1c0.1-0.2,0.1-0.4,0.1-0.6c0-0.3,0-0.7,0-1c0-0.5-0.1-1.1-0.2-1.6c-0.1-0.4-0.2-0.8-0.3-1.2
				c-0.3-1.2-0.9-2.3-1.5-3.3c-0.2-0.3-0.3-0.5-0.5-0.8C14.7,13,14.4,12.6,14,12.2z"/>
			<path class="st2" d="M40.6,27.7c0.1,0,0.3,0,0.4-0.1c0.7-0.1,1.3-0.2,2-0.3c0.7-0.1,1.3-0.1,2-0.1c0.7,0,1.3,0,2,0.1
				c0.5,0,1,0.1,1.6,0.1c0.1,0,0.2,0,0.3,0.1c0.1,0,0.1,0.1,0.1,0.1c-0.1,0.3-0.3,0.5-0.4,0.7c-0.2,0.3-0.3,0.6-0.5,0.9
				c0,0.1-0.1,0.2-0.2,0.2c-0.4,0-0.8-0.1-1.2-0.1c-0.1,0-0.3,0-0.4,0c-0.3,0-0.7-0.1-1-0.1c-0.5,0-1,0-1.6,0c-0.5,0-1.1,0-1.6,0
				c-0.8,0.1-1.7,0.1-2.5,0.3c-0.1,0-0.1,0-0.2,0c-0.1,0-0.1,0-0.1,0c-0.1-0.1,0-0.1,0-0.2c0.1-0.4,0.2-0.7,0.3-1.1
				c0.1-0.3,0.2-0.7,0.3-1c0.1-0.3,0.1-0.5,0.2-0.8c0.1-0.2,0.1-0.4,0.1-0.6c0.2-1.1,0.5-2.3,0.7-3.4c0.1-0.4,0.1-0.8,0.2-1.3
				c0-0.2,0.1-0.5,0.1-0.7c0-0.2,0-0.4,0.1-0.6c0.1-0.8,0.2-1.6,0.1-2.5c0-0.4-0.1-0.7-0.1-1.1c0-0.3-0.1-0.5-0.1-0.7
				c-0.1-0.4-0.2-0.8-0.3-1.1c-0.1-0.1-0.1-0.3-0.2-0.4c-0.2-0.4-0.5-0.9-0.7-1.3c-0.4-0.6-0.8-1.1-1.2-1.6
				c-0.1-0.2-0.3-0.3-0.4-0.5c0,0,0,0-0.1-0.1c-0.2-0.3-0.3-0.3,0-0.6c0.3-0.5,0.7-0.9,1-1.4c0,0,0.1-0.1,0.1-0.1c0,0,0.1,0,0.1,0
				c0.1,0.1,0.2,0.2,0.3,0.3c0.4,0.4,0.9,0.9,1.3,1.3c0.5,0.6,1,1.2,1.3,1.8c0.2,0.4,0.5,0.8,0.7,1.3c0.1,0.2,0.1,0.3,0.2,0.5
				c0.1,0.3,0.1,0.7,0.2,1c0.1,0.6,0.1,1.2,0,1.8c0,0.4-0.1,0.8-0.2,1.2c-0.1,0.4-0.2,0.8-0.3,1.2c-0.1,0.5-0.3,1-0.4,1.5
				c-0.2,0.7-0.4,1.4-0.7,2.1c-0.1,0.3-0.2,0.5-0.3,0.8c-0.1,0.4-0.3,0.8-0.4,1.2c-0.2,0.7-0.4,1.4-0.6,2.1
				C40.8,27,40.7,27.3,40.6,27.7C40.6,27.6,40.6,27.7,40.6,27.7z"/>
			<path class="st2" d="M41.6,26.4C41.6,26.3,41.6,26.3,41.6,26.4c0.3-0.6,0.5-1,0.7-1.5c0.2-0.4,0.3-0.8,0.5-1.2
				c0.1-0.3,0.2-0.5,0.3-0.8c0.1-0.3,0.2-0.7,0.4-1c0.2-0.5,0.3-1,0.5-1.5c0.2-0.5,0.3-1,0.4-1.5c0.2-0.6,0.3-1.3,0.3-1.9
				c0-0.5,0.1-1.1,0-1.6c0-0.2,0-0.3,0-0.5c-0.1-0.6-0.3-1.2-0.5-1.8c-0.3-0.6-0.6-1.2-1-1.8c-0.4-0.6-0.9-1.2-1.4-1.8
				c-0.3-0.3-0.5-0.6-0.8-0.9c-0.2-0.2-0.4-0.4-0.5-0.6c0,0-0.1-0.1-0.1-0.1c-0.2-0.1-0.2-0.2,0-0.3c0.1-0.1,0.2-0.3,0.3-0.4
				c0.2-0.3,0.5-0.7,0.7-1c0.1-0.1,0.2-0.3,0.3-0.3c0.1,0,0.1,0.1,0.2,0.2c0.3,0.3,0.6,0.5,0.8,0.8c0.3,0.4,0.7,0.7,1,1.1
				c0.2,0.2,0.4,0.5,0.6,0.7c0.2,0.2,0.3,0.4,0.5,0.7c0.3,0.4,0.5,0.7,0.7,1.1c0.1,0.2,0.2,0.4,0.3,0.6c0.1,0.2,0.2,0.5,0.3,0.7
				c0.1,0.3,0.2,0.5,0.3,0.8c0,0.3,0.1,0.5,0.2,0.8c0.1,0.3,0.1,0.6,0.1,0.9c0,0.7,0,1.3-0.2,2c0,0.2-0.1,0.4-0.1,0.7
				c-0.1,0.2-0.1,0.5-0.2,0.7c-0.2,0.5-0.3,0.9-0.5,1.4c-0.2,0.5-0.4,1-0.6,1.5c0,0,0,0,0,0.1c-0.2,0.4-0.4,0.7-0.6,1.1
				c-0.1,0.1-0.1,0.2-0.2,0.3c-0.1,0.3-0.3,0.5-0.4,0.8c-0.2,0.4-0.5,0.9-0.7,1.3c-0.3,0.5-0.6,1-1,1.6c-0.1,0.2-0.3,0.4-0.4,0.6
				C41.7,26.4,41.6,26.4,41.6,26.4L41.6,26.4z"/>
			<path class="st2" d="M79.1,25.4c0,0.2,0,0.3,0,0.5c0,0.4,0,0.8,0,1.2c0,0.2,0,0.4,0,0.6c0,0.1,0,0.3,0,0.4
				c-0.1,0.1-0.2,0.1-0.3,0.2c-0.1,0.1-0.2,0.1-0.3,0.2c-0.7,0.3-1.4,0.5-2.1,0.6c-0.5,0.1-1,0.2-1.5,0.2c-0.6,0.1-1.2,0.1-1.9,0
				c-0.2,0-0.4-0.1-0.6-0.1c-0.6-0.2-1.2-0.4-1.8-0.7c-0.5-0.3-1-0.7-1.5-1.1c-0.4-0.4-0.7-0.8-1-1.2c-0.1-0.1-0.1-0.2-0.2-0.2
				c0,0,0-0.1-0.1-0.1c-0.2-0.5-0.5-1-0.6-1.5c-0.2-0.8-0.4-1.5-0.5-2.3c0-0.6,0-1.2,0-1.8c0.1-0.7,0.2-1.4,0.4-2.1
				c0.1-0.3,0.2-0.6,0.2-0.8c0.1-0.4,0.3-0.8,0.4-1.1c0.3-0.7,0.6-1.4,0.9-2c0.4-0.6,0.7-1.3,1.1-1.9c0,0,0,0,0-0.1
				c0.1,0,0.1,0.1,0.2,0.1c0.4,0.4,0.7,0.8,1.1,1.2c0.4,0.4,0.8,0.9,1.2,1.3c0.2,0.3,0.5,0.5,0.7,0.7c0.5,0.4,0.9,0.9,1.4,1.3
				c0.5,0.4,1,0.9,1.4,1.3c0.1,0.1,0.2,0.1,0.2,0.2c0,0.1,0,0.2-0.1,0.2c-0.5,1-0.9,2-1.4,3.1c-0.6,1.3-1.2,2.6-1.8,3.9
				c-0.2,0.4-0.3,0.7-0.5,1.1c0,0,0,0.1,0,0.1c0.1,0.1,0.2,0.1,0.3,0.1c0.5,0.1,1,0.1,1.4,0.1c0.3,0,0.6-0.1,0.9-0.1
				c0.4-0.1,0.8-0.2,1.3-0.3c0.4-0.1,0.9-0.3,1.3-0.4c0.4-0.2,0.8-0.4,1.3-0.7C78.9,25.6,79,25.5,79.1,25.4z M69.1,15.2
				c-0.2,0.3-0.4,0.8-0.5,1.1c-0.2,0.7-0.4,1.4-0.5,2.1C68,19,68,19.5,68,20.1c0,0.4,0.1,0.7,0.2,1.1c0.1,0.5,0.2,0.9,0.3,1.3
				c0.2,0.6,0.5,1.2,0.9,1.8c0.3,0.4,0.6,0.8,0.9,1.2c0.3,0.3,0.6,0.5,0.9,0.8c0.1,0.1,0.3,0.2,0.4,0.3c0,0,0.1-0.1,0.1-0.1
				c0.3-0.6,0.6-1.2,0.8-1.8c0.4-0.8,0.7-1.6,1.1-2.4c0.2-0.5,0.5-1.1,0.7-1.6c0-0.1,0-0.1,0-0.2c0,0,0-0.1-0.1-0.1
				c-0.7-0.6-1.3-1.2-2-1.8c-0.4-0.3-0.7-0.7-1.1-1c-0.6-0.7-1.3-1.3-1.9-2C69.3,15.4,69.2,15.3,69.1,15.2z"/>
			<path class="st2" d="M79.2,29.2c0,0.4,0,0.8,0,1.1c0,0.4,0,0.8,0,1.1c-0.1,0-0.1,0.1-0.2,0.1c-0.4,0.2-0.8,0.3-1.3,0.4
				c-0.3,0.1-0.6,0.2-1,0.2c-0.4,0.1-0.8,0.1-1.2,0.2c-0.4,0.1-0.8,0.1-1.2,0.1c-0.2,0-0.3,0-0.5,0c-0.4,0-0.8,0-1.2-0.1
				c-0.6-0.1-1.2-0.2-1.7-0.4c-0.3-0.1-0.5-0.2-0.8-0.3c-0.2-0.1-0.5-0.2-0.7-0.3c-0.4-0.2-0.7-0.4-1-0.6c-0.8-0.5-1.4-1.2-1.9-1.9
				c-0.1-0.1-0.1-0.2-0.2-0.4c-0.2-0.5-0.5-1.1-0.7-1.7c-0.2-0.6-0.3-1.2-0.4-1.9c0-0.4,0-0.8,0-1.2c0-0.4,0-0.7,0.1-1
				c0-0.3,0.1-0.5,0.1-0.8c0-0.1,0-0.2,0-0.3c0-0.3,0.1-0.6,0.2-0.9c0,0,0,0,0.1-0.1c0,0.1,0,0.2,0,0.3c0,0.5,0,0.9,0.1,1.4
				c0,0.5,0.2,0.9,0.2,1.3c0.3,1.2,0.8,2.3,1.5,3.3c0.2,0.3,0.4,0.6,0.7,0.8c0.2,0.3,0.5,0.5,0.8,0.8c0.2,0.1,0.3,0.3,0.5,0.4
				c0.8,0.6,1.7,0.9,2.7,1.1c0.8,0.2,1.6,0.2,2.5,0.2c0.4,0,0.8,0,1.2-0.1c0.3-0.1,0.6-0.1,0.8-0.1c0.6-0.1,1.3-0.3,1.9-0.6
				C78.8,29.4,79,29.3,79.2,29.2C79.2,29.2,79.2,29.2,79.2,29.2z"/>
			<path class="st2" d="M71.8,8.9c0.1,0.2,0.3,0.3,0.4,0.5c0.6,0.7,1.3,1.4,1.9,2.1c0.4,0.4,0.7,0.7,1.1,1.1
				c0.8,0.7,1.6,1.4,2.3,2.2c0.1,0.1,0.2,0.1,0.2,0.2c-0.1,0.3-0.3,0.6-0.4,0.8c-0.1,0.3-0.3,0.6-0.4,0.8c-0.1,0.3-0.2,0.6-0.4,0.8
				c-0.1,0-0.1,0-0.1-0.1c-0.4-0.4-0.9-0.8-1.3-1.1c-0.2-0.2-0.5-0.4-0.7-0.6c-0.4-0.3-0.8-0.7-1.1-1.1c-0.7-0.7-1.4-1.4-2.1-2.2
				c-0.2-0.3-0.5-0.5-0.7-0.8c-0.2-0.2-0.2-0.2,0-0.5c0.1-0.2,0.2-0.4,0.3-0.5c0.1-0.3,0.3-0.6,0.4-0.8C71.4,9.5,71.5,9.3,71.8,8.9
				C71.7,8.9,71.7,8.9,71.8,8.9z"/>
			<path class="st2" d="M53.7,27.4c0.1,0,0.1,0,0.2,0c0.4-0.1,0.9-0.1,1.3-0.1c0,0,0,0,0.1,0c0.8,0,1.5-0.1,2.3-0.1
				c0.4,0,0.7,0,1.1,0c0.2,0,0.3,0,0.5,0c0.2,0,0.4,0,0.6,0c0.2,0,0.3,0,0.5,0c0.2,0,0.4,0,0.5,0c0.3,0,0.5,0.1,0.8,0.1
				c0.2,0,0.4,0,0.7,0.1c0,0,0,0.1,0.1,0.1c-0.3,0.6-0.6,1.3-0.9,1.9c0,0-0.1,0-0.1,0c-0.3-0.1-0.6-0.1-0.9-0.1
				c-0.3,0-0.7-0.1-1-0.1c-0.5,0-1-0.1-1.5-0.1c-0.6,0-1.2,0-1.8-0.1c-0.4,0-0.8,0-1.2,0c-0.3,0-0.7,0.1-1,0.1c-0.2,0-0.5,0-0.7,0.1
				c-0.1,0-0.2,0-0.3,0c0-0.1,0-0.1,0-0.2c0.1-0.4,0.2-0.7,0.3-1.1c0.2-0.6,0.4-1.2,0.6-1.9c0.1-0.3,0.2-0.6,0.2-0.8
				c0.1-0.3,0.1-0.6,0.2-0.9c0.1-0.3,0.1-0.6,0.2-0.9c0.1-0.3,0.1-0.6,0.2-0.9c0.1-0.6,0.2-1.2,0.3-1.9c0.1-0.3,0.1-0.7,0.1-1
				c0-0.5,0.1-1,0.1-1.5c0-0.3,0-0.6,0-0.9c0-0.4,0-0.9-0.1-1.3c0-0.4-0.1-0.7-0.2-1c-0.1-0.4-0.3-0.8-0.5-1.2
				c-0.1-0.2-0.2-0.4-0.3-0.5c-0.4-0.7-0.9-1.4-1.5-2c-0.2-0.2-0.5-0.5-0.7-0.7c-0.1-0.1-0.1-0.1-0.1-0.3c0,0,0,0,0-0.1
				c0.4-0.4,0.7-0.9,1.1-1.4c0.1-0.1,0.2-0.2,0.3-0.3c0.1,0,0.2,0.1,0.3,0.2c0.4,0.4,0.8,0.8,1.2,1.2c0.3,0.3,0.5,0.7,0.8,1
				c0.3,0.3,0.5,0.7,0.7,1c0.1,0.2,0.2,0.3,0.3,0.5c0.3,0.6,0.5,1.2,0.6,1.8c0.1,0.3,0.1,0.6,0.1,1c0,0.1,0,0.2,0,0.3
				c0,0.4,0,0.8-0.1,1.2c-0.1,0.7-0.1,1.4-0.3,2.1c-0.1,0.3-0.1,0.6-0.2,0.8c-0.1,0.5-0.2,0.9-0.4,1.4c-0.3,0.8-0.5,1.7-0.9,2.5
				c-0.2,0.6-0.4,1.1-0.7,1.7c-0.2,0.5-0.3,0.9-0.5,1.4C53.8,27.1,53.7,27.2,53.7,27.4z"/>
			<path class="st2" d="M53.5,7.9c0.2-0.2,0.3-0.4,0.5-0.7c0.2-0.3,0.4-0.5,0.6-0.8c0.1-0.1,0.1-0.2,0.2-0.2c0.5,0.4,1,0.7,1.4,1.2
				c0.1,0.1,0.2,0.2,0.3,0.3c0.5,0.5,1,1.1,1.3,1.7c0.2,0.4,0.5,0.8,0.7,1.3c0.2,0.5,0.4,1.1,0.5,1.6c0.1,0.4,0.1,0.8,0.2,1.2
				c0,0.1,0,0.2,0,0.4c0,0.4,0,0.8,0,1.2c0,0.4-0.1,0.8-0.1,1.2c0,0.2-0.1,0.5-0.1,0.7c-0.1,0.3-0.1,0.6-0.2,0.8
				c0,0.2-0.1,0.3-0.2,0.5c-0.2,0.5-0.3,1-0.5,1.5c-0.1,0.3-0.2,0.6-0.3,0.9c-0.1,0.2-0.1,0.4-0.2,0.5c-0.2,0.4-0.4,0.8-0.5,1.2
				c-0.4,0.9-0.8,1.9-1.3,2.8c-0.2,0.3-0.3,0.7-0.5,1c0,0.1-0.1,0.2-0.1,0.2c0,0,0,0-0.1,0.1c-0.1,0,0-0.1,0-0.1
				c0.4-0.8,0.7-1.7,1-2.5c0.1-0.4,0.3-0.8,0.4-1.2c0-0.1,0.1-0.2,0.1-0.3c0.1-0.3,0.2-0.6,0.2-0.9c0.1-0.3,0.2-0.6,0.2-1
				c0.1-0.4,0.2-0.8,0.3-1.3c0.1-0.5,0.2-1,0.3-1.5c0.1-0.5,0.1-1.1,0.1-1.6c0-0.3,0-0.6,0-1c0-0.3-0.1-0.5-0.1-0.8
				c-0.1-0.8-0.5-1.5-0.8-2.3c-0.1-0.2-0.3-0.5-0.4-0.7c-0.5-0.7-1-1.4-1.5-2c-0.3-0.4-0.7-0.8-1.1-1.1C53.7,8,53.6,8,53.5,7.9z"/>
			<path class="st2" d="M85.6,7.7c0,0.1,0,0.2,0,0.4c0,0.4,0,0.8,0,1.1c0,0.7,0,1.4,0,2.1c0,2.1,0,4.2,0,6.3c0,2.2,0,4.4,0,6.6
				c0,0.5,0,1.1,0,1.6c0,0.3,0,0.6,0.1,0.9c0,0.3,0.1,0.6,0.2,0.8c0.1,0.2,0.3,0.4,0.5,0.6c0.3,0.2,0.6,0.4,1,0.6
				c0.7,0.3,1.5,0.6,2.2,0.8c0.3,0.1,0.7,0.2,1,0.3c0.2,0.1,0.4,0.1,0.6,0.2c0,0.1-0.1,0.1-0.1,0.2c-0.2,0.4-0.5,0.7-0.7,1.1
				c-0.1,0.1-0.2,0.3-0.3,0.4c-0.1,0.1-0.1,0.2-0.2,0.3c-0.1,0-0.1,0-0.2,0c-0.8-0.2-1.5-0.4-2.3-0.6c-0.4-0.1-0.8-0.2-1.2-0.4
				c-0.3-0.1-0.7-0.3-1-0.4c-0.2-0.1-0.4-0.2-0.6-0.3c-0.2-0.1-0.3-0.3-0.4-0.5c-0.3-0.4-0.5-0.8-0.5-1.2c-0.1-0.5-0.2-1.1-0.2-1.6
				c0-0.3,0-0.6,0-0.9c0-1.3,0-2.7-0.1-4c0-1.6,0-3.2,0-4.8c0-0.7,0-1.3,0-2c0-0.1,0-0.2,0-0.3c-0.4,0-0.7,0.1-1.1,0.1
				c-0.4,0-0.7,0.2-1.1,0.2c0-0.1,0-0.1,0-0.2c0-0.3,0-0.6,0-0.9c0.2-0.1,0.4-0.1,0.6-0.2c0.2-0.1,0.4-0.1,0.5-0.1
				c0.2-0.1,0.4-0.1,0.6-0.2c0.2-0.1,0.3-0.1,0.5-0.2c0.1-0.3,0-3.2-0.1-4.1c0.4-0.3,0.7-0.6,1.1-0.9C84.8,8.3,85.2,8,85.6,7.7z"/>
			<path class="st2" d="M88.4,11.9c0.4-0.1,0.7-0.3,1-0.4c0.3-0.2,0.6-0.3,0.9-0.5c0,0.1,0,0.1,0,0.1c0,0.3,0,0.5,0,0.8
				c0,0.6,0,1.2,0,1.8c0,0.1,0,0.2,0,0.3c-0.2,0-0.3,0-0.4-0.1c-0.2-0.1-0.5-0.1-0.7-0.1c-0.2,0-0.4,0-0.5,0c-0.1,0-0.1,0.1-0.1,0.1
				c0,0.1,0,0.1,0,0.2c0,1.5,0,2.9,0,4.4c0,1,0,2,0,3c0,0.7,0,1.5,0,2.2c0,0.2,0,0.5,0,0.7c0,0.3,0.1,0.5,0.2,0.8
				c0.1,0.2,0.2,0.4,0.5,0.6c0.2,0.1,0.4,0.2,0.6,0.3c0.4,0.1,0.8,0.3,1.3,0.4c0.6,0.2,1.3,0.3,1.9,0.5c0.2,0.1,0.4,0.1,0.7,0.1
				c0,0,0.1,0,0.1,0.1c-0.1,0.1-0.2,0.2-0.2,0.3c-0.1,0.1-0.2,0.2-0.3,0.3c-0.1,0.1-0.2,0.2-0.3,0.3c-0.1,0.1-0.2,0.2-0.3,0.3
				c-0.1,0.1-0.2,0.2-0.3,0.3c-0.1,0.1-0.2,0.2-0.3,0.3c-0.1,0.1-0.2,0.2-0.2,0.3c-0.1,0-0.3,0-0.4,0c-0.4-0.1-0.9-0.2-1.3-0.4
				c-0.4-0.1-0.8-0.2-1.2-0.3c-0.4-0.1-0.8-0.3-1.2-0.5c-0.2-0.1-0.4-0.3-0.7-0.4c-0.2-0.2-0.4-0.4-0.6-0.6
				c-0.1-0.2-0.2-0.5-0.2-0.7c0-0.2,0-0.4,0-0.6c0-0.4,0-0.7,0-1.1c0-1,0-2.1,0-3.1c0-1.8,0-3.5,0-5.3c0-0.9,0-1.8,0-2.7
				c0-1.1,0-2.3,0-3.4c0-0.7,0-1.5,0-2.2c0-0.3,0-0.6,0-0.9c0-0.1,0-0.2,0.1-0.3c0.1-0.1,0.2-0.2,0.3-0.2c0.5-0.4,1-0.8,1.5-1.2
				c0.1,0,0.1-0.1,0.2-0.1c0.1,0,0,0.1,0,0.1c0,0,0,0.1,0,0.1c0,0.2,0,0.4,0,0.6c0,1,0,2.1,0,3.1c0,0.8,0,1.6,0,2.3
				C88.4,11.6,88.4,11.7,88.4,11.9z"/>
		</g>
	</g>
</g>
</svg>
