<?xml version="1.0" encoding="utf-8"?>
<svg version="1.1" id="Layer_1" x="0px" y="0px" width="80" height="32" viewBox="0 27 100 45" style="enable-background:0 0 100 100" xmlns="http://www.w3.org/2000/svg">
  <style type="text/css">
    .st0{fill:#030000;}
	.st1{fill:url(#SVGID_1_);}
	.st2{fill:url(#SVGID_2_);}
	.st3{fill:url(#SVGID_3_);}
	.st4{fill:url(#SVGID_4_);}
	.st5{fill:url(#SVGID_5_);}
	.st6{fill:url(#SVGID_6_);}
	.st7{fill:url(#SVGID_7_);}
	.st8{fill:url(#SVGID_8_);}
  </style>
  <g>
    <path class="st0" d="M99.9,34c0-0.6,0-1.1,0.1-1.7c-0.1-0.2-0.3-0.2-0.4-0.3c-0.1,0-0.3,0-0.4,0l0.1-0.9l0-0.2 c-0.2-0.6-0.6-0.7-0.8-0.8l-0.1,0l-0.2,0l-2.1,0l-1.8,0c0,0-1.5,0.2-1.5,0.2s-0.6,0.1-0.7,0.1c-0.2,0-1.1-0.1-1.1-0.1l-1.2-0.2 l-0.1,0l-2.9,0l-0.2,0.6c-0.2,0.5-0.2,1-0.2,1.5c0,0.1,0,0.2,0,0.4l0,0.8c-0.1-0.1-0.1-0.2-0.2-0.4l0.1-0.7l-0.8-0.2c0,0,0,0,0,0 c-0.2-0.5-0.5-1-0.9-1.4l-0.1-0.1l-0.2-0.1l-0.5-0.2c-0.4-0.1-0.9-0.3-1.5-0.3c0,0-1.3,0.1-1.3,0.1c-0.6,0.1-1.3,0.2-1.8,0.1 c-0.9-0.2-1.7,0-2.6,0.1c0,0-1.1,0.1-1.1,0.1c-0.4,0-0.8,0.4-0.9,0.9c0-0.1,0-0.2,0-0.3l0-0.1l0-0.1c0-0.2-0.2-0.7-0.9-0.8l-0.1,0 l-0.1,0l-0.6,0.1c-0.6,0.1-1.3,0.1-1.9,0.1l0,0l0,0c-0.2,0-0.5,0-0.8-0.2L69.7,30l-0.1,0l-1,0l-0.9,0.1c0,0-0.1,0.1-0.1,0.1 c0,0,0,0,0,0L67,30.3c-0.7-0.1-1.6-0.1-2.2,0l-0.1,0l-0.1,0c-0.4,0.1-0.9,0.1-1.4,0.1l-0.8,0l-0.1,0c-0.2,0-0.6,0.2-0.7,0.8 c0,0,0,0,0-0.1c0-0.2-0.1-0.6-0.7-0.8l-0.1,0l-0.2,0l-2.8,0l-0.1,0c0,0-1.7,0.2-1.8,0.2c-0.6-0.2-1.3-0.2-2-0.2 c0,0-1.2,0.1-1.2,0.1c-0.9,0-1.8,0-2.6,0.4L50.1,31L50,31.3c0,0.1,0,0.1,0,0.2c0-0.2,0-0.3,0-0.5l0-0.1l0-0.1 c0-0.2-0.2-0.7-0.7-0.9c-1.2-0.3-2.4-0.1-3.5,0.1l-0.5,0.1c-0.7,0.2-1.3,0.2-2,0.1l-1.7,0l0.2,0l-0.3,0c-0.8-0.1-1.8-0.2-2.6,0.3 l-0.4,0.2l0,1.1c0,0.2,0,0.3-0.1,0.5c0,0-0.1,0-0.1,0l0-0.1c0-0.5,0-1.5-1-1.7c-0.7-0.1-1.8-0.2-2.7,0c-0.6,0.1-1.2,0.2-1.9,0.2 L31,30.7c-0.4,0.1-0.8,0-1.2,0c-0.7-0.1-1.4-0.2-2.2,0.2L27.3,31l0,0.4c-0.1,0.8-0.1,1.6-0.1,2.3c0,0.1,0,0.1,0,0.2 c-0.1,0.1-0.1,0.2-0.2,0.2c0-0.1,0-0.3-0.1-0.4c0-0.2-0.1-0.4-0.2-0.6c-0.1-0.3-0.1-0.6-0.2-0.9l-0.4-1c0,0-0.2,0.2-0.3,0.3 c-0.2-0.4-0.4-0.7-0.5-1L25,30.2l-0.3-0.1c-0.8-0.2-1.6-0.2-2.4-0.1l-1,0c0,0-0.9,0-0.9,0c-0.4,0-0.9,0.1-1.3,0l-0.1,0l-0.1,0 c-0.5,0-1.2,0.1-1.8,0.3c-0.2,0-0.5,0-0.7-0.1c-0.4-0.1-1-0.2-1.5,0l-0.4,0.1c-0.1,0-0.1,0-0.2,0c0-0.4-0.2-0.9-0.4-1.3L13.9,29 l-0.1-0.1c-0.4-0.3-0.8-0.3-1.1-0.4l-0.2,0h-0.1c-1.7,0-3.2,0.1-4.7,0.4c-0.5,0.1-1,0-1.6-0.1l-0.7-0.1c-1.6-0.1-3.2-0.1-4.6,0.4 l-0.4,0.1l-0.1,0.4c-0.1,0.8-0.2,1.6-0.2,2.3c0,0.3,0,0.7,0,1c0,0-0.1,2.1-0.1,2.1C0.1,36.1,0,37.2,0,38.3c0,0.3,0,0.6,0,0.9 c0,0.1,0,0.3,0,0.3l0.4,2.3c0,0,0-0.1,0-0.1c0,0.3,0,1.6,0,1.6l-0.1,3.5c0,0,0,2,0,2l-0.1,2.7c0,0.1,0,1.9,0,1.9l0,1.7 c0.1,2.1,0.3,4.2,0.7,6.6c0,0.8,0.1,1.5,0.3,2.2c0.2,0.4,0.2,0.9,0.3,1.3c0.1,0.5,0.2,1,0.3,1.5l0.1,0.3l0.3,0.1 c0.1,0.1,0.3,0.1,0.5,0.1c0,0.1,0,0.1,0,0.2c0.1,0.5,0.2,1,0.5,1.5c0.2,0.4,0.4,0.8,0.6,1.1L4.4,71l0.4,0.1c0.5,0,0.7-0.3,0.8-0.5 c0,0,0,0,0-0.1c0.2,0.3,0.5,0.6,0.7,1c0,0,0.1,0,0.1-0.1c0.3-0.6,0.4-0.5,0.6-0.6c0.1,0,0.1-0.1,0.1-0.1c0,0,0,0.1,0,0.1l0.5-0.6 c0.1,0.2,0.2,0.4,0.2,0.6c0,0,0.1,0,0.1,0c0.2-0.4,0.3-0.7,0.7-0.9c0.1-0.5,0.3-0.9,0.5-1.3c0.4,0.3,0.3,0.7,0.3,1.2l0.1,0l0.6-0.8 c0.2-0.1,0.3-0.2,0.4-0.4c1-0.7,1.4-1.9,1.9-3c0.4-0.6,0.6-1.3,1.1-1.8c0.1-0.7,0.2-1.4,0.5-2.1c0.3-1,0.3-2.3,0.4-3.4 c0-0.2,0-0.5,0-0.7h0.1l0.2,1.8l0.1,0.1c0.2,0.3,0.2,0.7,0.2,1.2c0,0,0,0.4,0,0.5c0,0.1,0,0.1,0,0.2c0,1,0.2,1.9,0.5,2.7l0.4,1.4 l0.5,0.1c0.1,0,0.7,0.1,1-0.7c0,0-0.1,0.1-0.1,0.1l0,0l0.1-0.2l0.1-0.3c0-0.1,0-0.1,0.1-0.2c0.1,0.6,0.3,1.2,0.5,1.8 c0.1,0,0.1-0.2,0.2-0.4c0.1-0.4,0.4-0.7,0.4-1.2l0.4-0.7c0.1,0.2,0,0.4,0.1,0.6c0,0,0.1,0,0.1-0.1c0.2-0.9,0.4-0.8,0.6-1.1 c0.4-0.9,0.1-1.9,0.3-2.9l0-0.4c0.1,0.1,0.3,0.5,0.4,0.5c0.1-0.4,0.3-0.7,0.5-1c0.3-0.7,0.3-1.5,0.3-2.4l0.4,1.2 c0,0,0.1-0.2,0.2-0.3c0,0.1,0,0.2,0,0.2s0.4,1.1,0.4,1.2c0.1,0.3,0.3,0.5,0.8,0.6c0.1,0.3,0.2,0.5,0.3,0.6c0.1,0.1,0.2,0.2,0.2,0.4 l0,0.2l0.1,0.1c0.4,0.5,0.9,0.6,1.3,0.7c0.2,0,0.3,0.1,0.4,0.1c0.1,0.2,0.3,0.5,0.7,0.5l0.8,0.1l0-0.2c0.2,0.1,0.4,0.1,0.6,0.3 c0,0.1,0.2,0.3,0.2,0.3c0-0.8,0-1.8,0-2.7c0.1,0.3,0.3,0.7,0.8,0.9l0.2,0l0.1,0l1.1-0.3c0.1,0.3,0.1,0.7,0.4,0.7 c0.6-0.1,1.2-0.4,1.8-0.5c0.5-0.1,1-0.3,1.5-0.1c0.4,0.3,1,0.2,1.5,0.4l0.4-0.1c0.1,0.2,0.4,0.5,0.4,0.5l0.5,0.7l0.4-0.7l0.3-0.2 l0,0c0.2,0.2,0.3,0.3,0.5,0.4c0.1,0.2,0.1,0.4,0.3,0.5l0.1-0.1c0.1-0.5,0.1-1,0.2-1.5c0-0.5-0.1-0.9-0.1-1.3c0.2-1,0.3-2.1,0.1-3.1 c0-0.7,0.1-1.4-0.2-1.9c-0.1-0.1-0.2,0-0.3,0c-0.1,0-0.1-0.1-0.2-0.1c0,0-0.1,0-0.1,0.1c0-0.5,0-1.1-0.3-1.6l-0.1-0.1L37,53.1 c-0.1-0.1-0.4-0.3-0.8-0.1c-0.1,0-0.6-0.2-0.6-0.2l0.1,0.2l-0.3,0.2c0,0-0.2,0.1-0.3,0.2c-0.2-0.2-0.4-0.4-0.4-0.4l-0.5-0.5 L34,52.7c0-0.1,0-0.2,0-0.3l0.1,0.2c0,0,0.3-1.1,0.5-1.8c0.1,0.2,0.2,0.3,0.3,0.4c0.2,0.1,0.5,0.2,0.8,0l0.2-0.1L36,51 c0.1-0.1,0.1-0.2,0.2-0.3c0.2,0.2,0.5,0.2,0.6,0.7c0,0.2,0.1,0.4,0.2,0.3c0.3-0.4,0.4-1,0.4-1.6c0.1-0.7,0.3-1.2,0.3-1.9 c-0.3-1.1-0.4-2.3-0.4-3.5c0-0.3-0.3-0.5-0.5-0.8c0,0-0.1,0-0.1-0.1v-0.2l0.5-0.1c0.2,0,0.4-0.2,0.5-0.3c0.2,0.2,0.5,0.3,0.7,0.5 l0.1,0.3l0,0.1c0,0.1,0.1,1.3,0.1,1.3s0.1,1.3,0.1,1.4c0,0.2-0.5,2.6-0.5,2.6c0,0,0,1.5,0,1.5s0,0.9,0,0.9c0,0.8,0.1,1.4,0.3,1.9 c0,0.1,0,1.9,0,1.9c0,0.5-0.1,0.9-0.1,1.4c0,0.6,0,1.3,0.2,1.9c0,0,0.1,0.8,0.1,0.8l0.1,1.2c0.2,0.5,0.5,0.7,0.7,0.7l0.4,0.1 l0.6-0.8c0,0,0.3-0.2,0.4-0.3c0,0.4,0,0.9,0.1,1.3c0,0.1,0,0.1,0.1,0.1c0.5-0.8,0.6-0.5,0.9-0.8c0.1-0.2,0-0.5,0.2-0.7 c0.1,0.1,0,0.3,0.2,0.3c0.2-0.1,0.2-0.4,0.3-0.5c0.1-0.1,0.1-0.8,0.2-0.9c0.1,0,0,0.7,0.2,0.7c0.3-0.2,0.4-0.5,0.7-0.8 c0.3-0.5,0.3-1.2,0.4-1.9c0.3-0.2,0.7-0.4,0.7-0.9c0-0.3,0.1-0.6,0.1-0.9c0.2,0.4,0.3,0.7,0.5,1c0,0,0.1,0.1,0.2,0.2 c0,0.2,0,0.6,0,0.6c0,0.1,0,0.1,0,0.2c0,0.4,0.1,0.7,0.2,1c0.1,0.2,0.2,0.4,0.2,0.7c0,0.1,0,0.1,0,0.2l0,0.1l0.2,0.8l0.2,0l1.4,0.3 l-0.1-0.8c0,0,0-0.2,0-0.2c0,0,0.1-0.1,0.1-0.1l0.2-0.2c0.1,0.4,0.3,0.7,0.3,1.4l0.1,0.3c0,0,0.1,0,0.1,0c0.1-0.7,0.3-0.7,0.6-1 c0.4-0.4,0.3-1,0.6-1.3c0.1,0.1,0.1,0.4,0.3,0.3c0.1-1,0.5-1.2,0.5-1.8c0.1-0.3,0.4-0.3,0.5-0.6c0.3-1.2,0.3-2.5,0.6-3.7 c0.1-1.3-0.2-2.6-0.4-3.9C51.1,47.5,51,46,51,44.6c0-0.1,0-0.2,0-0.3c0,0,0.1,0,0.1,0l0.4,0l0-0.1l0.4-0.6l0,0 c0.1-0.3,0.1-0.5,0.2-0.8c0,0.2,0.1,0.4,0.1,0.6c0,1.2,0,2.8,0,2.8l0,1c0,0,0.2,1,0.2,1.1c0,0.1,0,0.7,0,0.7c0,0.4,0,0.7,0,1.1 c0,1.1,0.1,2.2,0.3,3.2c0,0.2,0,0.4,0,0.6c0,0.3,0,0.6,0,0.8l0,1.2c0,0.1,0,0.1,0,0.2c0,0.8,0.2,1.6,0.3,2.4l0.3,1.9l0.1,0.2 l0.3,0.5l0.4,0c0.4,0.1,0.7-0.2,0.8-0.4l0.1-0.1c0,0,0-0.3,0-0.3c0.1-0.1,0.3-0.3,0.3-0.3l0.1-0.1c0.1,0.5,0.2,1,0.2,1.5l0.1,0.2 c0,0,0.1,0,0.1,0c-0.1-0.6,0.3-0.6,0.4-0.8c0.1-0.6,0.3-1.1,0.5-1.6c0.2,0,0,0.5,0.2,0.5c0.2-0.6,0.3-1.2,0.4-1.8l0.1-0.1 c0.1,0.2,0.1,0.5,0.1,0.7c0,0.1,0,0.2,0.1,0.1l0.4-0.6c0.4-1,0.4-1.8,0.6-2.8c0-0.5,0-1,0.1-1.4c0.2-0.6,0.5-1.1,0.7-1.8 c0.1-0.7-0.1-1.4-0.1-2.1c-0.2-1.6,0.1-3.1,0-4.7c0.1-0.5,0.2-1,0.3-1.5c0,0,0-0.1,0-0.1c0,0,0,0.1,0.1,0.1l0.1,0.2l0.2,0.1 c0.3,0.2,0.8,0.1,1-0.2l0.2-0.2l0-0.3c0-0.1,0-0.3,0.1-0.5c0.1,0.1,0.2,0.1,0.3,0.2c0,0.4,0.1,0.8,0.2,1.1c0,0,0,0.1,0,0.1 c0,0.8,0,1.6,0.1,2.4c0,0,0.1,0.9,0.1,0.9c0.1,0.7,0.1,1.5,0.3,2.1c0,0.2,0.1,0.4,0.3,0.6c0.2,1,0.3,2.1,0.3,3.1c0,0.1,0,0.2,0,0.3 l0,0.1l0,0.1c0.2,1.4,0.5,2.6,1,3.7l0,0.1L64,58l0.1,0.2c0.1,0.2,0.4,0.5,0.8,0.6c0,0.1,0.1,0.3,0.1,0.4l0,0.2l0.2,0.5 c0.1,0.4,0.3,0.9,0.6,1.4l0.1,0.1l0.1,0.1c0.2,0.1,0.6,0.2,0.9-0.1c0.1,0,0.2,0,0.2,0c0.2,0,0.3,0,0.4-0.1c0.1,0.3,0.2,0.5,0.4,0.7 c0.1,0,0.1-0.1,0.2-0.1c0.1-0.4,0.1-0.8,0.3-1.1h0c0.2,0.3,0.1,0.6,0.2,1l0.1,0.1c0,0,0.1,0,0.1,0c0.2-0.9,1-1.3,1.3-2 c0.1-0.8,0.3-1.6,0.6-2.3c0.1-0.2,0.1-0.4,0.3-0.5c0.1,0.1,0,0.3,0.2,0.3c0.3-0.3,0.4-0.7,0.7-1c0.5-0.5,0.7-1,1-1.6 c0.3-1.2,0.7-2.3,0.9-3.5c0.1-1.5,0.4-2.9,0.3-4.5c0-1.5-0.1-3.3,0.2-4.6c0.1,0,0.1,0,0.2,0.1c-0.1,0.9-0.1,1.7-0.2,2.6l-0.2,2 l0,0.1l0.1,0.4c0,0,0.1,0.6,0.1,0.6c0,0.1-0.1,1.1-0.1,1.1l-0.2,2.4c0,0.4-0.1,0.8-0.1,1.2c0,0.8,0.1,1.6,0.1,2.3 c0,0,0.1,1.7,0.1,1.7c-0.1,0.5-0.1,1-0.1,1.5c0,0.8,0.1,1.6,0.2,2.5c0,0,0.1,1.1,0.1,1.1c0.1,0.7,0.1,1.3,0.3,2l0.1,0.4l1.1,0.3 l0.2-0.5c0,0,0.2-0.3,0.3-0.6c0.1,0,0.3,0.1,0.4,0.1c0,0.4,0.1,0.8,0.2,1.2l0.1,0c0.2-0.4,0.4-0.8,0.5-1.2c0.1-0.3,0-0.7,0.2-0.8 c0.1,0.2,0.1,0.4,0.1,0.6c0.1,0.2-0.1,0.4,0.1,0.5c0.7-1.4,0.9-0.9,1.2-1.4c0.2-0.7-0.1-1.4,0.3-2c0.3-0.5,0.5-1,0.9-1.5 c0-0.1,0-0.2,0-0.3c0.2,0.4,0.3,0.8,0.5,1.3l0.2,0.6c0.1,0.4,0.4,0.5,0.6,0.6c0,0,0,0,0,0c0,0.1,0.1,0.4,0.1,0.6c0,0,0,0,0,0 c0,0.6,0.3,1.1,0.5,1.5l0.2,0.3l0.1,0.1c0,0,0.1,0,0.1,0.1c0.1,0.6,0.2,1.1,0.4,1.6l0.1,0.2l0,0l0.6,0.5c0.2,0.1,0.2,0.1,0.2,0.2 l0.1,0.3l0.3,0.1c0.2,0.1,0.5,0.1,0.8,0l0.3-0.2l0,0c0.3,0.2,0.6,0.3,0.7,0.8c0.1,0,0.1,0,0.2-0.1c0-0.2,0-0.4,0-0.5 c0,0.1,0,0.2,0.1,0.2c0,0,0,0.1,0,0.1l0.6,1.1l0.1-0.2c0.7,0.2,1.5,0.5,2.3,0.8l0.1,0.1l0.2,0l0.3,0c0.4,0.1,0.8,0.3,1.2,0.5 c0.5-0.1,1.1-0.1,1.6-0.1c0.3-0.1,0.7,0.1,1-0.1c0.1,0.1,0.2,0.2,0.2,0.2l0.1,0c0.2,0.1,0.4,0.1,0.5,0.1c0.1,0.1,0.2,0.1,0.3,0.2 c0,0,0,0,0,0.1c0.1,0,0.1,0,0.2,0c0.1,0,0.2,0.1,0.3,0.1l0.3,0.1l0.1,0c0,0,0,0,0,0l0.1,0.1c0,0,0,0,0.1,0c0.1,0.1,0.1,0.2,0.3,0.4 c0.2,0.3,0.6,0.5,0.9,0.4c0.2,0,0.4-0.2,0.5-0.4c0.3,0.1,0.5,0.4,0.7,0.8c0,0.1,0.2,0.1,0.2,0c0.1-0.5,0.1-1.1,0-1.7 c0.1-0.7,0-1.3,0.2-1.9c0.3-1.2,0.2-2.5,0.3-3.8c0.2-1.3-0.1-2.6-0.1-3.9c0-0.4,0-0.8-0.3-1c-0.2,0.2-0.4,0.3-0.5,0.4l0-0.7 c0,0,0-0.2,0-0.2c0-0.4,0-1.1-0.6-1.4l-0.4-0.2L97,57.2l-0.4,0.3c-0.4,0.3-0.9,0.7-1.1,1.3c0,0,0,0-0.1,0c-0.2-0.1-0.5-0.2-0.5-0.2 c-0.4-0.1-0.8,0-1,0l-0.1,0l0,0l-0.2,0c0-0.9,0.3-1.8,0.4-2.7c0.2-0.8-0.2-1.5-0.3-2.2c-0.1-0.3,0-0.6,0.1-0.8 c0.2,0.1,0.3,0.3,0.6,0.4l0.5,0.1c0,0,0.2-0.2,0.2-0.3c0,0,0,0,0,0c0,0,0,0.1,0.1,0.1l0,0.1l0.1,0.2l0,0.1l1.6,1.6 c0,0-0.1-1.4-0.1-1.7c0.2,0.1,0.4,0.3,0.5,0.7c0.1,0.1,0.2,0.3,0.3,0.4c0-0.3,0.3-0.6,0.3-1c-0.1-1.5,0-3.1,0.1-4.7l0.3-1.3 c0.2-0.8-0.2-1.5-0.2-2.3l-0.1-0.2c-0.2-0.2-0.4-0.2-0.6-0.1c0,0,0,0,0,0l-0.1-1L97.3,44l-0.1-0.3L97,43.6 c-0.6-0.5-1.2-0.3-1.7-0.2c0,0,0,0-0.1,0c-0.1,0-0.4,0-0.4,0l-1,0c0-0.3,0.1-0.5,0.1-0.7c0.1-0.6,0.1-1.1,0.2-1.7L95,42l0.1,0.1 c0.3,0.3,0.6,0.3,0.8,0.3c0.1,0.1,0.2,0.2,0.3,0.3c0.3,0.2,0.5,0.4,0.6,0.6l0,0l0,0c0.2,0.3,0.5,0.4,0.8,0.3c0.2,0,0.5-0.2,0.6-0.4 c0.3,0.2,0.6,0.5,0.7,0.8c0.1,0.1,0.2,0.1,0.2,0c0.4-0.8,0.2-1.7,0.3-2.6c0-0.9,0.4-1.7,0.1-2.6c0-1,0-2.1,0.1-3.1 c0-0.1,0.2-0.1,0.2-0.2C100,35.1,100.1,34.5,99.9,34z M45.1,41.5C45.1,41.5,45.1,41.5,45.1,41.5C45.1,41.5,45.1,41.5,45.1,41.5 C45.1,41.5,45.1,41.5,45.1,41.5z M45.1,43c0,0.2-0.1,0.3-0.1,0.5c0-0.1,0-0.2-0.1-0.4c0-0.1,0-0.1,0-0.2C45,42.9,45,43,45.1,43z M86.8,47.1c0,0.4,0,0.8,0,1.1c0-0.1-0.1-0.1-0.1-0.2c-0.1-0.1-0.3-0.2-0.5-0.2l0-0.2c0-0.3-0.1-0.6-0.2-0.9 c0.4-0.6,0.7-1.3,0.8-2.1C86.8,45.4,86.8,46.2,86.8,47.1z M80.5,41.8C80.5,41.8,80.5,41.8,80.5,41.8c0-0.1,0.1,0,0.1,0 c0,0.1,0,0.1-0.1,0.2C80.6,41.9,80.6,41.9,80.5,41.8z M26.8,47.1c0-0.4-0.1-0.7-0.2-1.1c0.2-0.3,0.4-0.6,0.6-0.9 c0,0.4,0,0.9,0.1,1.4l0.1,0.9C27.2,47.1,27,47.1,26.8,47.1z M21,41.4c0-0.3,0-0.6,0.1-0.9c0.1-0.1,0.2-0.3,0.3-0.4c0,0,0,0,0,0 c0,0,0,0.1,0,0.1c0,0.2-0.2,0.7-0.2,0.9c-0.1,0.1-0.1,0.2-0.1,0.2L21,41.4z M34.8,42L34.8,42C34.8,41.9,34.8,41.9,34.8,42 C34.8,41.9,34.8,42,34.8,42z M1.9,66.4c0,0,0-0.1,0.1-0.2C1.9,66.3,1.9,66.4,1.9,66.4z M13.7,50.5c0,0.1-0.1,0.2-0.1,0.3 c0,0,0,0,0-0.1c-0.1-0.5-0.3-1.1-0.6-1.7l-0.1-0.2l-0.2-0.1c-0.4-0.3-0.9-0.1-1.1,0.2L11.5,49L11,50.2l0,0.1c-0.4,2-1,3.4-2.1,4.4 l-0.1,0.1l0,0.1c0-0.3-0.1-0.5-0.1-0.8c-0.2-2.2,0.2-4.2,0.3-6.4C9,46.1,8.1,45,8.4,43.5c0.2-1.1,0.3-2.4,0.9-3.3 c0.4,0.2,0.8,0,1-0.1c0,0,0,0.1,0,0.1l0.4,0.7l0.1,0c0.3,0.2,0.6,0.1,0.8-0.1c0.1,0.3,0.2,0.8,0.2,0.8s0,0,0,0c0,0,0,0.1,0,0.1 l0.6,1.1l0.6-0.4l0.3-0.1l0.1-0.3l0.1-0.1c0.1-0.1,0.1-0.3,0.2-0.4c0.1,0.3,0.1,0.7,0.3,1c0.1,0.2,0.2,0.4,0.3,0.6 c0,0.1,0.1,0,0.1,0c0.1-0.2,0.2-0.5,0.3-0.8c0,0.4,0,0.7-0.1,1c0,0-0.1,1.3-0.1,1.3c0,0.8-0.1,1.5-0.1,2.3c0,0.5,0,1,0.1,1.5 c0.1,0.7,0.1,1.3,0.1,2c0,0.8,0,1.5-0.1,2.3l0,0.9h-0.1c0.1-0.5,0.1-1-0.1-1.5c-0.1-0.6-0.3-1.1-0.5-1.5 C13.8,50.5,13.7,50.4,13.7,50.5z M35.7,61.6L35.7,61.6l0.2,0.1L35.7,61.6z M36.2,52.9l0.4,0.1C36.6,53.1,36.4,53,36.2,52.9 C36.2,52.9,36.2,52.9,36.2,52.9z M94,52.6C94,52.6,94,52.6,94,52.6C94,52.6,94,52.6,94,52.6c0,0,0.1,0,0.1-0.1L94,52.6z"/>
    <path class="st0" d="M22.5,59.6C22.5,59.6,22.5,59.5,22.5,59.6C22.5,59.5,22.5,59.5,22.5,59.6L22.5,59.6z"/>
  </g>
  <g>
    <linearGradient id="SVGID_1_" gradientUnits="userSpaceOnUse" x1="7.2055" y1="64.6927" x2="7.2055" y2="34.5912">
      <stop offset="0" style="stop-color:#FFF100"/>
      <stop offset="1" style="stop-color:#AACF37"/>
    </linearGradient>
    <path class="st1" d="M1,33.1c-0.1-1.1,0-2.2,0.1-3.2c1.3-0.5,2.8-0.4,4.2-0.4c0.8,0.1,1.6,0.3,2.5,0.2c1.5-0.2,3-0.3,4.6-0.4 c0.3,0.1,0.7,0.1,1,0.3c0.7,1.3,0,2.9,0,4.3c-0.1,1.2,0.4,2.2,0.3,3.4c-0.1,0.7-0.5,1.3-0.2,2.1c0.2,0.9-0.2,1.7-0.4,2.4 c0,0-0.1,0.1-0.1,0c-0.1-0.2-0.2-0.4-0.3-0.6c-0.2-0.4-0.2-0.8-0.3-1.3l-0.2-0.5c-0.2,0.3-0.6,0.1-0.6,0.9c0,0-0.1,0.1-0.1,0 c-0.2-0.3-0.2-0.7-0.5-0.9c-0.6-0.4-0.7,0.3-1.1,0.2c-0.3-0.4-0.4-0.8-0.6-1.2c-0.3-0.2-0.6,0.2-0.8,0.4c-1,0.9-1,2.4-1.2,3.7 c-0.3,1.5,0.6,2.6,0.5,4.1c0,2.1-0.4,4.2-0.3,6.4c0.2,1.1,0.2,2.3,0.2,3.4c0,0.5,0.4,1,0.8,1.3c0.1,0.1,0.2,0,0.3,0 c0.6-0.6,0.7-1.5,1-2.3c1.3-1.2,2-3,2.3-4.8c0.1-0.3,0.2-0.7,0.4-1.1c0.1-0.1,0.1,0,0.2,0c0.2,0.5,0.4,1,0.5,1.5 c0.3,0.8,0,1.7,0,2.6c0,1.4,0.3,2.6,0.2,4C13,58.8,13,60,12.7,61c-0.2,0.7-0.4,1.4-0.5,2.1c-0.5,0.5-0.7,1.2-1.1,1.8 c-0.5,1-0.9,2.3-1.9,3c-0.1,0.1-0.3,0.3-0.4,0.4L8.1,69l-0.1,0c0-0.5,0.1-0.9-0.3-1.2c-0.2,0.4-0.4,0.8-0.5,1.3 c-0.4,0.2-0.5,0.5-0.7,0.9c0,0-0.1,0-0.1,0c-0.1-0.3-0.2-0.6-0.3-0.9l0-0.1C5.9,69.3,6,69.8,5.6,70c-0.2,0.1-0.4,0-0.6,0.6 c0,0.1-0.1,0.1-0.1,0.1c-0.3-0.6-0.8-1-1-1.6c-0.5-0.8-0.5-1.9-0.9-2.8c-0.2,0-0.2,0.3-0.3,0.4c-0.1,0.1,0,0.3-0.2,0.3 c-0.3-0.9-0.3-1.9-0.6-2.8c-0.2-0.7-0.3-1.4-0.3-2.1c-0.4-2.1-0.6-4.2-0.6-6.4l0,0c0-1.2,0.1-2.3,0.1-3.6c0.1-1.5,0-3.2,0.1-4.7 c0.1-1.8,0.1-3.6,0.2-5.4c0-0.5,0-1.3,0-1.8c-0.1,0-0.2,0.5-0.3,0.4c-0.1-0.3-0.1-0.7-0.2-1C0.6,37.3,0.9,35.2,1,33.1z"/>
    <linearGradient id="SVGID_2_" gradientUnits="userSpaceOnUse" x1="20.6237" y1="64.6927" x2="20.6237" y2="34.5912">
      <stop offset="0" style="stop-color:#FFF100"/>
      <stop offset="1" style="stop-color:#AACF37"/>
    </linearGradient>
    <path class="st2" d="M15.2,31.3c0.7-0.3,1.4,0.2,2.2,0c0.5-0.2,1.1-0.2,1.7-0.3c0.8,0.1,1.5,0,2.3,0c1.1,0,2.2-0.2,3.2,0.1 c0.3,0.5,0.7,1.1,0.8,1.7c0,0.1,0,0.3,0.1,0.4c0.2,0,0.2-0.5,0.4-0.4c0.2,0.6,0.3,1.3,0.3,2.1l0.2,1.3c0,1.1-0.2,2.2-0.2,3.3 c0,1.2-0.2,2.4-0.3,3.7c-0.3,1.3-1.1,2.2-1.9,3.1v0.1c0.6,0,1.4-0.5,1.9,0.1c0.3,0.6,0.2,1.4,0.2,2c0,1.1-0.3,2.4,0,3.4 c0.3,0.7,0.2,1.5,0.2,2.2l-0.3,2.7c0.1,0.7,0.3,1.4,0.5,2.2c0,1,0,2.3,0,3.3c0,0.1-0.2-0.2-0.2-0.3c-0.5-0.4-1.2-0.2-1.6-0.8 c-0.1-0.8-0.6-0.8-0.6-1.3c-0.1-0.1-0.1-0.3-0.3-0.3c-0.2,0-0.4,0.1-0.5-0.2c-0.2-0.5-0.3-1.1-0.5-1.6c0-0.4-0.1-0.7-0.2-1.1 c-0.2,0-0.3,0-0.5,0.4c-0.3-0.8-0.6-1.5-0.7-2.4l0-0.8c-0.1-0.1-0.2,0-0.3,0c-0.4-1.1,0-2.3-0.1-3.5c0-0.5-0.1-1,0-1.5 c-0.1-0.1-0.3-0.1-0.4,0L20.4,49c-0.1,0.8,0,1.6,0,2.4c-0.2,1.4-0.8,2.9-0.4,4.4c-0.1,1,0,2.1-0.4,3c-0.2,0.3-0.4,0.6-0.5,1 c-0.2,0-0.3-0.4-0.4-0.5l0,0.4c-0.2,0.9,0,2-0.3,2.9c-0.2,0.4-0.4,0.3-0.6,1.1c0,0.1-0.1,0-0.1,0.1c-0.1-0.2-0.1-0.4-0.1-0.6 l-0.4,0.7c0,0.5-0.2,0.8-0.4,1.2c-0.1,0.1-0.1,0.4-0.2,0.4c-0.3-1.2-0.7-2.4-0.7-3.7c-0.1-0.7,0-1.5-0.3-2.1 c-0.2-1.3-0.2-2.7-0.3-4c0-2.4,0.4-4.7,0-7c-0.2-1.7,0-3.4,0.1-5c0.2-2.3,0.3-4.9-0.5-7.1C14.8,34.6,14.9,32.9,15.2,31.3z M19.7,38.9c-0.2,0.8-0.3,1.6-0.2,2.4c0.2,0.5,0.2,1.2,0.4,1.7c0,0.7-0.1,1.4,0,2.2c0.6-0.4,0.8-1.2,1-1.9c0.1-0.3,0.3-0.6,0.4-0.9 c0.2-0.2,0.4-0.6,0.6-0.9l0.3-1.1c0-0.4-0.1-0.8-0.2-1.2c-0.2,0.1-0.2,0.3-0.4,0.4c-0.1,0-0.2-0.1-0.3-0.2 c-0.1,0.2-0.3,0.2-0.4,0.3c-0.1,0.1-0.1,0.5-0.2,0.4c-0.1-0.2-0.2-0.3-0.3-0.5c-0.2-0.3-0.1-0.8-0.4-1.1c0,0-0.1,0-0.2,0L19.7,38.9 z"/>
    <linearGradient id="SVGID_3_" gradientUnits="userSpaceOnUse" x1="32.737" y1="64.6927" x2="32.737" y2="34.5913">
      <stop offset="0" style="stop-color:#FFF100"/>
      <stop offset="1" style="stop-color:#AACF37"/>
    </linearGradient>
    <path class="st3" d="M28.1,40.1c0.2-1.3-0.1-2.6-0.1-3.9c-0.2-1.5-0.2-3,0-4.5c1-0.5,2.1,0.2,3.2-0.1c1.2-0.2,2.4,0,3.6-0.3 c0.8-0.2,1.7-0.1,2.5,0c0.6,0.1,0.4,1,0.5,1.5c-0.2,1.1-0.1,2.2,0,3.3c0.1,0.7-0.3,1.3-0.1,2c0.5,1.1-0.2,2.1-0.2,3.2 c0.1,0.4-0.1,0.8-0.1,1.2c0,0.1,0,0.5-0.1,0.5l-0.2-0.3c-0.4-0.3-1-0.5-1.1-1.1c0-0.1,0-0.2-0.1-0.3c-0.2,0.1-0.1,0.4-0.3,0.3 c-0.2-0.9-0.5-1.2-0.7-1.8c-0.2-0.2-0.5-0.3-0.7-0.3c-0.3-0.1-0.6-0.5-0.9-0.1c-0.2,0.7-0.2,1.4-0.4,2.2c0.1,0.4,0.3,0.7,0.4,1.1 c0.1,0.5-0.1,0.7,0.2,1.1l0.1,0.4c0.2-0.4,0.2-0.9,0.6-1.2c0.3,0,0.6-0.1,0.9,0c0.2,0,0.4-0.2,0.5,0c0.2,0.2,0.5,0.4,0.5,0.8 c-0.1,1.2,0,2.5,0.4,3.5c0,0.7-0.2,1.3-0.3,1.9c0,0.6,0,1.2-0.4,1.6c-0.2,0.1-0.2-0.2-0.2-0.3c0-0.5-0.5-0.5-0.7-0.8 c-0.1,0.2-0.3,0.1-0.4,0.5c-0.1-0.6-0.2-0.5-0.4-0.8l-0.7-0.8c0-0.4,0.1-1-0.3-1.2c-0.1,0-0.2-0.1-0.2,0c-0.1,0.5-0.1,1.1-0.2,1.7 c-0.1,0.6-0.1,1.2,0.1,1.7l0.1,0.4c0,1.1-0.1,2.2,0.1,3.2c0.2,0.2,0.5,0.3,0.7,0.2l0.1-0.1l0.9-0.9c0.3,0.1,0.2,0.6,0.8,0.5 c0.3-0.1,0.6-0.3,0.9-0.5c0.1,0,0.1,0.1,0.2,0.1c0.1,0,0.2-0.1,0.3,0c0.3,0.5,0.2,1.2,0.2,1.9c0.2,1,0.1,2.2-0.1,3.1 c0,0.5,0.1,0.9,0.1,1.3c-0.1,0.5-0.1,1-0.2,1.5l-0.1,0.1c-0.2-0.1-0.2-0.3-0.3-0.5c-0.5-0.2-0.7-1-1.3-0.8l-1.1,0.2 c-0.5-0.1-1.1,0-1.5-0.4c-0.5-0.2-1,0.1-1.5,0.1c-0.6,0.1-1.2,0.4-1.8,0.5c-0.3-0.1-0.3-0.5-0.4-0.8c-0.1-0.9,0-1.8-0.2-2.7 c-0.3-1.9-0.1-3.9,0-5.9c0.1-1.8-0.2-3.4-0.4-5.1c-0.1-1.3-0.2-2.6-0.1-3.8L28.1,40.1z"/>
    <linearGradient id="SVGID_4_" gradientUnits="userSpaceOnUse" x1="44.5779" y1="64.6927" x2="44.5779" y2="34.5913">
      <stop offset="0" style="stop-color:#FFF100"/>
      <stop offset="1" style="stop-color:#AACF37"/>
    </linearGradient>
    <path class="st4" d="M39.5,47c0-0.9-0.1-1.8-0.2-2.7c0.1-2,0.4-3.9,0.5-5.9c0-1,0.1-2.4,0.1-3.3c-0.2,0-0.1-0.2-0.6,0.4 c-0.3-0.2-0.2-0.7-0.3-1.1c0-0.9,0-1.7,0.1-2.5l0-0.7c0.7-0.4,1.7-0.2,2.5-0.1c1.2-0.2,2.4,0.2,3.7-0.1c1.2-0.2,2.4-0.5,3.6-0.2 c0.2,0.1,0.2,0.3,0.3,0.4c0.1,1.2-0.1,2.4-0.1,3.6c-0.1,2.1-0.4,4.3-0.1,6.4c0.2,0.8,0.5,1.4,0.4,2.3c0,1.5,0,3,0.4,4.3 c0.2,1.3,0.4,2.6,0.4,3.9c-0.4,1.2-0.4,2.5-0.6,3.7c-0.1,0.3-0.4,0.3-0.5,0.6c-0.1,0.7-0.4,0.8-0.5,1.8c-0.2,0-0.2-0.3-0.3-0.3 c-0.3,0.4-0.2,1-0.6,1.3c-0.3,0.3-0.5,0.3-0.6,1c0,0.1-0.1,0.1-0.1,0l-0.1-0.3c0.1-1-0.4-1.3-0.4-2.1c0-0.3,0-0.6,0-0.9 c-0.3-0.5-0.7-1-0.9-1.6c-0.2-0.1-0.2-0.4-0.2-0.7l0-1.7c0.1-1,0.5-1.9,0.2-2.9c-0.1-0.3-0.5-0.3-0.6-0.6c-0.2-0.1-0.4,0.8-0.6,0.1 c-0.1-0.5-0.1-1-0.3-1.4c-0.1,0.4-0.2,0.7-0.3,1.2c0,0.7,0.4,1.4,0.1,2.1c-0.2,0.7-0.4,1.3-0.4,2c0.1,0.8-0.1,1.5-0.2,2.3 c0,0.5-0.4,0.7-0.7,0.9c-0.1,0.7-0.1,1.3-0.4,1.9c-0.3,0.3-0.3,0.6-0.7,0.8c-0.1,0-0.1-0.7-0.2-0.7c-0.1,0.1-0.1,0.8-0.2,0.9 c-0.2,0.2-0.2,0.4-0.3,0.5c-0.2,0-0.1-0.2-0.2-0.3c-0.1,0.2-0.1,0.5-0.2,0.7c-0.3,0.3-0.4,0-0.9,0.8c-0.1,0-0.1-0.1-0.1-0.1 c-0.2-0.6-0.1-1.3-0.2-2c-0.4-1.7,0-3.4-0.1-5.1c-0.2-0.6-0.3-1.2-0.3-1.8c0-0.8-0.1-1.5,0-2.2L39.5,47z M43.3,42.2 c0.1,0.9,0.4,1.7,0.4,2.7l0.1,0.1c0.7-0.1,1.1,0.3,1.7,0.3c0-0.7,0-1.4,0.2-2c0-0.5,0-1,0.1-1.5c-0.1-0.8-0.3-1.5-0.3-2.3 c-0.1,0-0.2,0.1-0.2,0.2c0,0.3-0.4,0-0.5,0.3c-0.1,0.4-0.4,0.8-0.4,1.2c-0.4,0.9-0.1,0.4-0.3,0.5c-0.3-0.3-0.2-1-0.3-1.5 c-0.1-0.2,0-0.5-0.1-0.7c-0.1,0-0.1,0.1-0.2,0.1C43.4,40.5,43.4,41.3,43.3,42.2z"/>
    <linearGradient id="SVGID_5_" gradientUnits="userSpaceOnUse" x1="55.8043" y1="64.6927" x2="55.8043" y2="34.5913">
      <stop offset="0" style="stop-color:#FFF100"/>
      <stop offset="1" style="stop-color:#AACF37"/>
    </linearGradient>
    <path class="st5" d="M50.9,36.4c0-0.8-0.1-1.6-0.2-2.4c0-0.8-0.1-1.5,0.1-2.3c1-0.5,2.3-0.3,3.5-0.4c0.7-0.1,1.3,0,2,0.2l1.9-0.2 c1,0.1,1.8,0.1,2.8,0c0.1,0,0.2,0,0.2,0.1c0.1,1.2,0.1,2.4-0.1,3.6c-0.3,1.8-0.1,3.7,0.1,5.5c0,1.1-0.5,2.1-0.6,3.1 c0,0-0.1,0.1-0.1,0c-0.3-0.4-0.3-0.9-0.3-1.4c-0.3-0.3-0.7-0.4-0.9-0.8c-0.2-0.8,0.1-1.8-0.5-2.3c-0.2-0.2-0.3-0.5-0.5-0.7 c-0.2,0.3,0,0.7,0,1.1c0.1,1.1,0.3,2.3,0,3.4c-0.1,0.5-0.2,1-0.3,1.5c0.1,1.6-0.2,3.1,0,4.7c0,0.7,0.2,1.4,0.1,2.1 c-0.2,0.6-0.5,1.2-0.7,1.8c-0.1,0.4,0,0.9-0.1,1.4c-0.2,0.9-0.2,1.8-0.6,2.8l-0.4,0.6c-0.1,0.1-0.1-0.1-0.1-0.1 c0-0.2,0-0.5-0.1-0.7L55.8,57c-0.1,0.6-0.1,1.2-0.4,1.8c-0.2,0,0-0.5-0.2-0.5c-0.2,0.5-0.3,1-0.5,1.6c-0.2,0.2-0.5,0.2-0.4,0.8 c0,0-0.1,0-0.1,0l-0.1-0.2c-0.1-1.5-0.7-2.8-0.6-4.3c0-0.9,0.2-1.9,0-2.8c-0.4-1.5-0.3-3.3-0.3-4.9L53,47.4c0-1.7-0.1-3.3,0-5 c0.1-1.1,0.2-2.3,0.1-3.4l-0.1,0c-0.9,1.4-1.5,3-1.8,4.7c0,0.1,0,0.1-0.1,0.2c-0.2,0-0.2-0.3-0.3-0.5c-0.5-1.9-0.5-4.1-0.1-6.1 L50.9,36.4z"/>
    <linearGradient id="SVGID_6_" gradientUnits="userSpaceOnUse" x1="67.9274" y1="64.6927" x2="67.9274" y2="34.5913">
      <stop offset="0" style="stop-color:#FFF100"/>
      <stop offset="1" style="stop-color:#AACF37"/>
    </linearGradient>
    <path class="st6" d="M62.5,31.6c0-0.1,0-0.3,0.1-0.3c0.7,0,1.5,0.1,2.2-0.1c0.7-0.1,1.5-0.1,2.1,0c0.1,0.5,0,1.2,0.1,1.7 c0.1,1.2,0.2,2.5,0.1,3.7L67,36.9c-0.1,1.5-0.6,2.9-0.5,4.5c0,1.1,0.1,2.3,0.4,3.4c0.2,1.3,0.6,2.4,0.7,3.8l0,0l0-0.1 c0.1-1.4,0.2-2.8,0.3-4.2c0-1.2-0.3-2.2-0.4-3.4c0.1-1.1,0.7-1.9,0.7-3c0-2.3-0.5-4.4-0.4-6.7l0.1-0.1c0.5,0,1-0.2,1.6-0.1 c0.4,0.2,0.7,0.3,1.1,0.3c0.9,0.1,1.7-0.1,2.6-0.1c0.1,0,0.3,0,0.3,0.2c0,2.5-0.1,4.9-0.4,7.2c0,0.4,0,0.8,0,1.2c0,0.5,0,1,0.1,1.5 c0,0.2-0.2-0.1-0.4-0.1c-0.3,1.3-0.2,3.1-0.2,4.6c0.1,1.6-0.2,3-0.3,4.5c-0.2,1.2-0.6,2.4-0.9,3.5c-0.3,0.5-0.5,1.1-1,1.6 c-0.3,0.3-0.4,0.8-0.7,1c-0.2,0-0.1-0.2-0.2-0.3c-0.2,0.1-0.2,0.3-0.3,0.5c-0.3,0.7-0.5,1.5-0.6,2.3c-0.3,0.7-1.1,1.1-1.3,2 c0,0.1-0.1,0-0.1,0l-0.1-0.1c-0.1-0.3,0-0.7-0.2-1l0,0c-0.2,0.3-0.2,0.7-0.3,1.1c0,0.1-0.1,0.2-0.2,0.1c-0.4-0.5-0.5-1.1-0.6-1.6 c-0.1-0.4-0.2-0.8-0.4-1.1c-0.4,0.1-0.6-0.4-0.9-0.6c-0.5-1.1-0.8-2.3-0.9-3.6c0-1.4-0.1-2.7-0.3-4c-0.1,0-0.3,0-0.3-0.2 c-0.3-0.9-0.3-1.9-0.4-2.9c-0.1-2.4-0.1-4.8,0.2-7.1l0-1.9c-0.1-0.1-0.3,0.4-0.4,0.3c-0.1-1-0.2-1.9-0.1-2.9 C62.3,34.1,62.5,32.9,62.5,31.6z"/>
    <linearGradient id="SVGID_7_" gradientUnits="userSpaceOnUse" x1="80.258" y1="64.6927" x2="80.258" y2="34.5912">
      <stop offset="0" style="stop-color:#FFF100"/>
      <stop offset="1" style="stop-color:#AACF37"/>
    </linearGradient>
    <path class="st7" d="M75,31.8c0-0.2,0.1-0.3,0.3-0.3c1.2-0.1,2.3-0.4,3.5-0.2c1.1,0.1,2.2-0.2,3.3-0.2c0.7,0,1.2,0.3,1.8,0.4 c0.4,0.4,0.7,1,0.9,1.5c0,0.2,0.1,0.3,0.2,0.4c0.1,0,0.2-0.5,0.3-0.3c-0.1,0.5,0.1,1.2,0.2,1.7c0.1,0.4,0.1,1,0.1,1.4 c0.3,1.6,0.1,3.4,0,5c-0.2,1.7-0.3,3.4-1.3,4.7l-0.9,1l0,0c0.5-0.2,1.4-0.4,1.8,0.1c0.3,0.3,0.2,0.7,0.3,1.1 c0.2,2.2-0.3,4.3-0.1,6.4c-0.3,0.9-0.5,1.8-0.7,2.7c0.1,1.4,0.5,2.7,0.4,4.1c-0.2,0.9-0.1,1.9-0.2,2.9c0.1,0.6,0.1,1.3,0,2 c0,0.1-0.1,0.1-0.2,0.1c-0.2-0.6-0.7-0.6-0.9-1c-0.2-0.7-0.4-1.3-0.4-2.1c-0.1-0.1-0.2,0.2-0.3,0.1c-0.2-0.5-0.5-0.9-0.5-1.4 c-0.1-0.5-0.1-1-0.3-1.4c-0.1,0.1-0.4,0.4-0.5,0c-0.3-0.8-0.5-1.7-1-2.4c-0.5-1.1-0.5-2.4-0.4-3.7l-0.1-0.4 c-0.2-0.2-0.5-0.5-0.6-0.9c0-1.1,0.1-2,0.1-3c-0.1-0.1-0.3-0.2-0.4-0.1c-0.3,0.2-0.2,0.5-0.2,0.8c0,0.7,0,1.5,0,2.2 c0.2,0.7-0.1,1.4-0.2,2.1c0,1,0.2,2-0.1,2.9c-0.3,0.5-0.5,1-0.9,1.5c-0.4,0.6-0.2,1.3-0.3,2c-0.3,0.5-0.5,0.1-1.2,1.4 c-0.2-0.1,0-0.3-0.1-0.5c0-0.2,0-0.4-0.1-0.6c-0.2,0.2-0.1,0.6-0.2,0.8c-0.2,0.4-0.3,0.8-0.5,1.2l-0.1,0c-0.2-1-0.2-2-0.4-3 c-0.2-1.3-0.3-2.7-0.1-4c-0.1-1.7-0.4-3.4-0.2-5.2c0.1-1.2,0.2-2.4,0.3-3.6c0-0.4-0.2-0.8-0.2-1.2c0.2-3,0.6-5.9,0.5-8.9 c0-0.2,0-0.4-0.1-0.6c-0.3-0.2-0.5-0.5-0.6-0.8C74.9,35.1,75,33.4,75,31.8z M79,40.9c0.5,0.5,0.3,1.3,0.4,2c0,0.8,0.2,1.4,0.2,2.2 l0.9-1c0.5-0.6,0.8-1.4,1-2.2c0.1-0.6,0.1-1.4-0.1-2c-0.2,0.4-0.2,1.1-0.6,1.4c0,0-0.1,0-0.2,0c0.1-0.5-0.2-0.8-0.4-1.1 c-0.1,0.1-0.2,0.3-0.4,0.2c-0.3-0.4-0.2-0.9-0.4-1.3c0-0.1-0.1-0.3-0.2-0.4C79,39.4,78.9,40.1,79,40.9z"/>
    <linearGradient id="SVGID_8_" gradientUnits="userSpaceOnUse" x1="92.5655" y1="64.6927" x2="92.5655" y2="34.5912">
      <stop offset="0" style="stop-color:#FFF100"/>
      <stop offset="1" style="stop-color:#AACF37"/>
    </linearGradient>
    <path class="st8" d="M87,54.9c0.2-1.4,0.5-2.8,0.4-4.4c0-2.3,0.1-4.7-0.1-6.9c-0.2-1.8,0.4-3.4,0.1-5.2c-0.2-0.5-0.6-0.8-0.6-1.4 c-0.1-1-0.2-2-0.1-3c0.2-1-0.1-2,0.2-3l0.1,0l2.4,0c0.8,0.2,1.6,0.2,2.5,0.3c0.7-0.1,1.4-0.3,2.2-0.3c1.3,0.1,2.6-0.2,3.9-0.1 c0.2,0.1,0.4,0.1,0.4,0.3c-0.1,0.6-0.1,1.1-0.1,1.7c0.2,0.5,0.1,1.1,0.1,1.6c-0.1,0.1-0.2,0.1-0.2,0.2c-0.1,1-0.1,2.1-0.1,3.1 c0.3,0.9-0.1,1.7-0.1,2.6c-0.1,0.9,0.1,1.8-0.3,2.6c0,0.1-0.2,0.1-0.2,0c-0.4-0.7-1.2-1-1.5-1.6c-0.1,0-0.1,0.5-0.3,0.2 c-0.4-0.8-0.8-1.3-1.2-1.9c-0.4-0.2-0.8-0.3-1.3-0.3c-0.1,0-0.2-0.1-0.2,0c-0.3,0.6-0.3,1.3-0.3,2c-0.2,0.7-0.2,1.6,0,2.3 c0,0.6-0.3,1.1-0.2,1.7c0,0.1,0,0.1,0.1,0.2c0.2-0.1,0.1-0.4,0.4-0.3c0.3-0.4,0.5-1.1,1-1.2c0.5-0.1,1,0.1,1.5,0.1 c0.4-0.1,0.9-0.3,1.2,0l0.1,0.2c0,0.8,0.4,1.4,0.2,2.3l-0.3,1.3c-0.1,1.5-0.2,3.2-0.1,4.7c0,0.4-0.3,0.6-0.3,1 c-0.1-0.1-0.2-0.3-0.3-0.4c-0.2-0.7-0.7-0.6-0.8-1.1c-0.2,0.2-0.3,0.4-0.5,0.6c-0.3-0.1-0.5-0.4-0.7-0.6c0-0.1-0.1-0.2-0.2-0.1 c-0.2,0.2-0.5-0.1-0.7-0.2c-0.2-0.2-0.3-0.4-0.5-0.6c-0.1,0.1-0.1,0.3-0.2,0.5c-0.1,0.3-0.4,0.6-0.2,1c0.1,0.8,0.5,1.4,0.3,2.2 c-0.2,1.2-0.6,2.4-0.3,3.6c0.1,0.4,0,0.8,0.2,1.2c0.1,0,0.2-0.1,0.3-0.1c0.3-0.1,0.8,0,1.1-0.1c0.4,0.1,0.7-0.2,1.1-0.1l0.7,0.2 c0.2-0.2,0.7,0,0.7-0.5c0.2-0.7,0.9-1,1.4-1.4c0.3,0.2,0.2,0.6,0.3,1c0,1.3,0.2,2.6,0.1,3.9c-0.1,1.3-0.1,2.6-0.3,3.8 c-0.2,0.6-0.2,1.3-0.2,1.9c0.1,0.5,0.1,1.1,0,1.7c0,0.1-0.1,0.1-0.2,0c-0.3-0.6-0.6-0.8-1.1-0.9c-0.3-0.1-0.8-0.1-1-0.4 c-0.1,0.1-0.3,0.1-0.5,0l-0.4-0.4c-0.3,0-0.3,0.3-0.5,0.1c-0.2-0.4-0.6-0.6-0.9-0.8c-0.2,0.5-0.8,0.3-1.2,0.4c-0.5,0-1.1,0-1.6,0.1 c-0.8-0.3-1.5-0.6-2.3-0.9c-0.2-0.1-0.1-0.4-0.2-0.6c-0.5-1.5-0.5-3.2-0.6-4.9C86.7,59.6,86.8,57.2,87,54.9z"/>
  </g>
</svg>
