<svg id="Layer_1" data-name="Layer 1" xmlns="http://www.w3.org/2000/svg" viewBox="0 0 100 100" height="45" width="45"><defs><style>.cls-1{fill:#ec63a3;}.cls-2{fill:#14bdef;}.cls-3{fill:#fff;}</style></defs><title>KRUX_5__light</title><path class="cls-1" d="M46.79,33.91s-13.63-13.53-14-13.73a12.33,12.33,0,0,0-4.95.3c-1.11.5-15.35,5.15-15.35,5.15s-0.61,2-1.31,4.24S7.41,43.09,7.82,44.81s22,27,22,27,3.13,4.85,4.24,4.85,16.05-4.24,16.05-4.24,16-4.24,16.76-4.34,5.55-1.51,7.17-3.43,8.48-10.3,9.09-12.42S79.71,38.65,79.1,37a18.11,18.11,0,0,0-3.53-5.76c-1.51-1.41-13.13-5.76-14.64-5.76s-4.64,2-5.25,2.63S49.82,34.11,46.79,33.91Z"/><path class="cls-2" d="M10.95,74.49c-0.2,0-.4-0.1-0.61-0.1s-0.2,0-.2.1a2.21,2.21,0,0,0-.3.5,5.69,5.69,0,0,0-.4,1.21c-0.1.3-.2,0.5-0.3,0.81a3.62,3.62,0,0,0-.4,1.11,3.59,3.59,0,0,1-.4.91,3.62,3.62,0,0,1-.4,1.11,2,2,0,0,1-.4.81,17.55,17.55,0,0,1-1,1.92,2.43,2.43,0,0,1-.61.81,1.21,1.21,0,0,1-.81.2,3,3,0,0,1-1.31-.5l-0.3-.3a0.48,0.48,0,0,1-.1-0.61l0.3-.61a7.91,7.91,0,0,0,.5-1.41,7,7,0,0,1,.4-1,7.57,7.57,0,0,0,.5-1.62c0.2-.5.4-1.11,0.61-1.62A5.69,5.69,0,0,1,6.1,75l0.61-2.12a0.54,0.54,0,0,0-.3-0.2c-0.4-.2-0.81-0.3-1.21-0.5-0.61-.2-1.31-0.4-2-0.61A7.32,7.32,0,0,1,.65,70.36a1.48,1.48,0,0,1-.5-0.61A0.67,0.67,0,0,1,0,69.14a2.69,2.69,0,0,1,.3-1.21,0.79,0.79,0,0,1,.91-0.61c0.2,0,.4.1,0.61,0.1A18.2,18.2,0,0,0,4,68.23c0.3,0.1.71,0.3,1,.4a14.41,14.41,0,0,0,2.22.81c0.81,0.3,1.62.5,2.42,0.81a1.5,1.5,0,0,0,.71.1h0.3l0.91-.61c-0.1,0-.1-0.1-0.2-0.1-0.4-.2-0.91-0.3-1.31-0.5s-1-.3-1.51-0.5c-0.71-.3-1.31-0.5-2-0.81s-1.31-.5-2-0.81l-0.91-.3c-0.1-.1-0.3-0.1-0.4-0.2a0.42,0.42,0,0,1-.3-0.4V66a2,2,0,0,1,0-1.31,3.59,3.59,0,0,1,.4-0.91,0.49,0.49,0,0,1,.61-0.2,2.38,2.38,0,0,1,.81.2c0.2,0.1.5,0.2,0.71,0.3s0.3,0.1.5,0.2C6.5,64.5,7,64.7,7.61,64.9,7.82,65,8,65,8.22,65.1a4.22,4.22,0,0,1,1,.4,11.85,11.85,0,0,1,1.11.5c0.2,0.1.5,0.2,0.71,0.3a13.15,13.15,0,0,1,1.72.81c0.5,0.2,1.11.5,1.62,0.71L15,68.13a0.64,0.64,0,0,0,.61,0c0.3-.1.61-0.3,0.91-0.4A27.44,27.44,0,0,0,19,66.62c0.2-.1.5-0.3,0.71-0.4s0.61-.3.91-0.4a2.11,2.11,0,0,0,.61-0.4,0.62,0.62,0,0,0,.1-0.71c-0.1-.2-0.3-0.3-0.4-0.5-0.61-.71-1.11-1.41-1.72-2a9.1,9.1,0,0,1-.91-1,10.73,10.73,0,0,0-.91-1.11c-0.3-.3-0.5-0.61-0.81-0.91s-0.71-.81-1-1.21l-1.51-1.82c-0.4-.5-0.91-1-1.31-1.62-0.71-.81-1.31-1.72-2-2.52a0.79,0.79,0,0,0-.4-0.4c-0.5-.61-1-1.11-1.51-1.72a0.54,0.54,0,0,1-.2-0.3c-0.2-.2-0.3-0.4-0.5-0.61a2.11,2.11,0,0,0-.4-0.61c-0.3-.4-0.5-0.81-0.81-1.21a3.11,3.11,0,0,1-.5-1.21V45.21a5.91,5.91,0,0,0,.2-1.31c0.1-.5.2-0.91,0.3-1.41a24,24,0,0,0,.5-2.63c0.1-.4.1-0.81,0.2-1.21s0.2-.91.3-1.31,0.1-.61.2-0.91a2.38,2.38,0,0,0,.2-0.81c0.1-.4.1-0.81,0.2-1.21l0.3-1.51c0.1-.5.2-1,0.3-1.41s0.1-.61.2-0.81l0.3-1.82a15.68,15.68,0,0,1,.4-2.12c0-.1.1-0.3,0.1-0.4a1.86,1.86,0,0,1,1.21-1.51c0.4-.2.91-0.4,1.31-0.61a4.22,4.22,0,0,1,1-.4l2.12-.91a0.61,0.61,0,0,1,.4-0.1,1.07,1.07,0,0,0,.5-0.2A15.86,15.86,0,0,1,19,21.69a15.54,15.54,0,0,0,1.92-.81c0.3-.1.5-0.2,0.81-0.3,0.91-.4,1.82-0.61,2.63-1a0.61,0.61,0,0,1,.4-0.1c0.4-.1.91-0.3,1.31-0.4l2.73-.91a6.18,6.18,0,0,0,1.21-.5,3.11,3.11,0,0,1,1.31-.3,1.46,1.46,0,0,1,.71.2c0.2,0.2.4,0.3,0.61,0.5a11.05,11.05,0,0,1,1,1.11l0.3,0.3,0.71,0.71,0.61,0.61c0.91,1,1.82,2,2.83,3a13.78,13.78,0,0,0,1.72,1.72c0.4,0.3.71,0.71,1.11,1a9.1,9.1,0,0,0,1,.91l0.71,0.71c0.4,0.5.91,0.91,1.31,1.41,0.71,0.71,1.31,1.41,2,2.22a5.55,5.55,0,0,0,.71.91,4.66,4.66,0,0,0,.71.71,5.06,5.06,0,0,0,.81-0.71c0.5-.4.91-0.81,1.41-1.21l0.71-.71c0.3-.3.61-0.5,0.91-0.81A6.09,6.09,0,0,0,52,29.16a0.54,0.54,0,0,1,.3-0.2,10.69,10.69,0,0,0,1.21-1c0.4-.4.81-0.71,1.21-1.11,0.2-.1.3-0.3,0.5-0.4l1.21-.91a12.94,12.94,0,0,1,2-1.11,7.57,7.57,0,0,1,1.62-.5h0.4a3.21,3.21,0,0,1,1.41.2c0.1,0,.2,0,0.2.1a2.64,2.64,0,0,1,.81.3,11.84,11.84,0,0,0,1.11.5c0.4,0.1.71,0.3,1.11,0.4a0.1,0.1,0,0,1,.1.1,4.92,4.92,0,0,0,.71.3c0.3,0.2.71,0.3,1,.5,0.5,0.2,1,.4,1.62.71a4.92,4.92,0,0,0,.71.3c0.4,0.2.71,0.3,1.11,0.5L71,28.15c0.5,0.2,1.11.5,1.62,0.71s1.11,0.4,1.62.61c0.1,0.1.3,0.1,0.4,0.2,0.61,0.3,1.21.5,1.72,0.81a8.88,8.88,0,0,1,1,.61h0.1a3.59,3.59,0,0,1,.91.4c0.1,0,.1.1,0.2,0.1a2.21,2.21,0,0,1,.5.3,3.77,3.77,0,0,1,.71.61,1.41,1.41,0,0,1,.3.91,5.07,5.07,0,0,1,.2,1.21,5.69,5.69,0,0,0,1.21-.4c0.5-.2.91-0.5,1.41-0.71s1.31-.61,1.92-0.91,1.21-.5,1.82-0.81a1.07,1.07,0,0,1,.5-0.2,11,11,0,0,0,1.51-.81A8,8,0,0,1,90.31,30a1.63,1.63,0,0,0,.71-0.4l0.1-.1c-0.4-.1-0.71-0.1-1-0.2a5.07,5.07,0,0,0-1.21-.2l-2.12-.3-2.22-.3A21.86,21.86,0,0,0,82,28a3.29,3.29,0,0,1-1.31-.4c-0.1-.1-0.2-0.1-0.3-0.2a1.79,1.79,0,0,1-.4-1,2,2,0,0,1,.2-1.31,1.77,1.77,0,0,1,.4-0.5l0.3-.3a0.64,0.64,0,0,1,.61,0,5.07,5.07,0,0,0,1.31.5c0.5,0.2,1,.3,1.51.5h0.2a19.61,19.61,0,0,0,2.42.2h1c0.4,0,.81.1,1.21,0.1s0.81,0.1,1.11.1c0.61,0.1,1.21.1,1.82,0.2s1.41,0.1,2.12.2c0.4,0,.81.1,1.21,0.1h1a0.35,0.35,0,0,0,.2-0.1,2.1,2.1,0,0,1,1-.61,1.29,1.29,0,0,1,1.51.5,3.13,3.13,0,0,1,.61,1.31c0,0.1,0,.2.1,0.2a1.72,1.72,0,0,1,.1.71,3.79,3.79,0,0,1-.1,1,0.64,0.64,0,0,1-.5.61,1.58,1.58,0,0,0-.81.81c-0.2.4-.5,0.91-0.71,1.41-0.1.2-.1,0.5-0.2,0.71-0.2.61-.4,1.31-0.61,1.92a23.16,23.16,0,0,0-.91,2.83l-0.3.61a7,7,0,0,1-.4,1,2,2,0,0,1-.4.81,0.76,0.76,0,0,1-.71.4,1.61,1.61,0,0,1-1.21-.4l-0.1-.1a1.37,1.37,0,0,1-.71-1.31,3,3,0,0,1,.2-0.91c0.2-.81.4-1.62,0.61-2.52a10.65,10.65,0,0,0,.5-1.92,7.44,7.44,0,0,1,.4-1.41v-0.1a1.48,1.48,0,0,1-.4.2c-0.3.2-.61,0.3-0.91,0.5l-0.61.3c-0.4.2-.71,0.3-1.11,0.5A11,11,0,0,1,89.5,34c-0.71.4-1.51,0.71-2.22,1.11-0.1.1-.2,0.1-0.3,0.2-0.4.2-.81,0.4-1.31,0.61-0.71.3-1.51,0.71-2.22,1h-0.1a3.16,3.16,0,0,0-1,.5c-0.4.2-.81,0.5-1.21,0.71,0.1,0.5.2,1.11,0.3,1.62s0.4,1.31.61,1.92l0.61,1.51c0.2,0.4.3,0.81,0.5,1.21s0.3,0.81.5,1.21,0.3,0.81.5,1.21,0.3,0.5.4,0.81a8.89,8.89,0,0,1,.5,1.51c0.2,0.5.4,0.91,0.61,1.41a1.72,1.72,0,0,1,0,1.41l-0.61,1.21a0.79,0.79,0,0,1-.4.4l-0.3.3a11.66,11.66,0,0,0-1.41,1.92c-0.3.4-.5,0.81-0.81,1.21a10.58,10.58,0,0,1-.81,1.11c-0.4.5-.81,1-1.21,1.62a5.55,5.55,0,0,1-.71.91c-0.3.4-.5,0.71-0.81,1.11-0.4.61-.91,1.11-1.31,1.62-0.5.71-1.11,1.41-1.62,2.12s-1,1.31-1.62,2a2.38,2.38,0,0,1-.5.5,2.49,2.49,0,0,1-.91.4c-0.3.1-.71,0.1-1,0.2a20,20,0,0,0-2.63.61,13.77,13.77,0,0,1-1.72.4,1.46,1.46,0,0,1-.71.2c-0.81.3-1.62,0.5-2.42,0.81-0.5.2-1.11,0.3-1.62,0.5-0.91.3-1.82,0.61-2.83,0.91-0.81.2-1.62,0.5-2.32,0.71a9.38,9.38,0,0,0-1.31.4c-0.61.2-1.21,0.3-1.92,0.5-0.91.3-1.82,0.5-2.73,0.81-0.5.1-1,.3-1.62,0.4a15.83,15.83,0,0,0-2.93.81l-1.21.3c-0.91.3-1.72,0.5-2.63,0.81-0.4.1-.81,0.3-1.11,0.4a0.91,0.91,0,0,1-.5.1l-1.41.3c-0.3.1-.61,0.1-0.91,0.2-0.61.2-1.31,0.4-1.92,0.61-0.81.2-1.62,0.5-2.42,0.71a5.76,5.76,0,0,1-1.31.1A0.77,0.77,0,0,1,33,79c-0.3-.3-0.5-0.61-0.81-0.91L29.83,75.2a14.76,14.76,0,0,0-1.62-1.92,1.52,1.52,0,0,1-.4-0.4C27.4,72.37,27,72,26.6,71.47a17.58,17.58,0,0,0-1.21-1.41c-0.3-.4-0.61-0.71-0.91-1.11-0.1-.1-0.1-0.2-0.2-0.3s-0.1-.2-0.3-0.1a7,7,0,0,0-.81.3,10.48,10.48,0,0,1-1,.4l-0.61.3c-0.3.1-.61,0.2-1,0.3-0.71.3-1.31,0.5-2,.81s-1.72.71-2.52,1.11a0.22,0.22,0,0,0-.2.2c-0.1.4-.3,0.81-0.4,1.21-0.2.71-.5,1.51-0.71,2.22-0.1.2-.1,0.5-0.2,0.71-0.2.71-.5,1.51-0.71,2.22a11,11,0,0,0-.5,1.72,3.85,3.85,0,0,1-.3,1,1.92,1.92,0,0,1-.5,1,0.69,0.69,0,0,1-.5.3,2.8,2.8,0,0,1-.91-0.1,3.84,3.84,0,0,1-1.31-.91,0.62,0.62,0,0,1-.2-0.71,5.9,5.9,0,0,1,.4-1.82,16.71,16.71,0,0,0,.61-2.12c0-.1.1-0.2,0.1-0.3s0.1-.3.1-0.4v-0.2C11,75,11.15,74.8,10.95,74.49ZM77.28,35.62c-0.1-.1-0.1-0.2-0.2-0.3a1.64,1.64,0,0,0-.5-0.91,2.78,2.78,0,0,0-.71-0.91,2.68,2.68,0,0,0-.61-0.5,16.33,16.33,0,0,0-1.82-1,5.07,5.07,0,0,0-1.31-.5c-0.4-.2-0.81-0.3-1.31-0.5-0.81-.3-1.62-0.5-2.42-0.81a7,7,0,0,0-1.31-.5,9.48,9.48,0,0,1-1.51-.61,7.61,7.61,0,0,1-1.31-.61c-0.4-.2-0.91-0.3-1.31-0.5a3.59,3.59,0,0,1-.91-0.4,5.69,5.69,0,0,0-1.21-.4,1.69,1.69,0,0,0-1.21.1,3,3,0,0,1-.81.4,1.48,1.48,0,0,1-.4.2c-0.2.1-.4,0.3-0.61,0.4-0.61.4-1.11,0.81-1.72,1.21l-2.63,2a8.83,8.83,0,0,0-1,.81c-0.5.5-1.11,1-1.62,1.51a16.76,16.76,0,0,0-1.41,1.31l-0.71.71a7.7,7.7,0,0,1-1.11.81,1.37,1.37,0,0,1-1.62.1,2.38,2.38,0,0,1-.5-0.5c-0.2-.2-0.4-0.5-0.61-0.71L43.36,33.7c-0.71-.81-1.41-1.51-2.12-2.32a11.52,11.52,0,0,0-1.11-1.11,4,4,0,0,1-.81-1c-0.4-.5-0.91-0.91-1.31-1.41a19.38,19.38,0,0,1-1.41-1.51c-0.5-.5-0.91-1-1.41-1.51a18.66,18.66,0,0,0-1.41-1.41c-0.3-.3-0.61-0.5-0.91-0.81-0.5-.4-0.91-0.91-1.41-1.31-0.2-.1-0.3-0.3-0.5-0.4a0.77,0.77,0,0,0-.4-0.2,2.6,2.6,0,0,0-1.51.1c-0.4.1-.91,0.3-1.31,0.4-0.2.1-.4,0.1-0.61,0.2-0.81.3-1.51,0.5-2.32,0.81l-2.73.91a14.41,14.41,0,0,1-2.22.81c-0.4.2-.91,0.3-1.31,0.5s-0.71.3-1,.4c-0.61.2-1.21,0.4-1.72,0.61a8.26,8.26,0,0,0-1.92.91L13,26.94c-0.2.2-.5,0.4-0.71,0.61a0.19,0.19,0,0,1,0,.3c-0.1.1-.1,0.2-0.2,0.3-0.2.81-.3,1.72-0.61,2.63v0.1a5.07,5.07,0,0,0-.2,1.21c-0.2,1-.5,2-0.71,3-0.1.4-.2,0.91-0.3,1.31-0.2.71-.3,1.51-0.5,2.22a4.53,4.53,0,0,0-.1,1.11c-0.1,1-.3,2-0.4,3A11.18,11.18,0,0,0,9,44.71a1.61,1.61,0,0,0,.4,1.21c0.1,0.1.1,0.2,0.2,0.3a7.62,7.62,0,0,0,1.11,1.41c0.4,0.5.81,0.91,1.11,1.31,0.1,0.2.3,0.3,0.4,0.5l0.81,0.81c0.4,0.4.81,0.91,1.21,1.31,0.2,0.2.3,0.4,0.5,0.61l0.1,0.1c0.5,0.71,1,1.31,1.62,2,0.2,0.2.3,0.4,0.5,0.61,0.3,0.4.61,0.81,0.81,1.11a5.06,5.06,0,0,0,.71.81c0.2,0.3.5,0.61,0.71,0.91s0.61,0.91.91,1.31a11.43,11.43,0,0,0,1,1.31c0.2,0.2.4,0.5,0.61,0.71,0.5,0.5.91,1,1.41,1.51a7.07,7.07,0,0,0,1,.81,0.19,0.19,0,0,0,.3,0,0.35,0.35,0,0,0,.2-0.1c0.3-.2.61-0.3,0.91-0.5s0.91-.4,1.31-0.61,0.61-.3.91-0.5a0.46,0.46,0,0,1,.5,0,1.43,1.43,0,0,1,.81.91,12.21,12.21,0,0,1,.5,1.82,0.71,0.71,0,0,1-.4.91,0.77,0.77,0,0,1-.4.2c-0.5.2-1.11,0.4-1.62,0.61-0.2.1-.3,0.1-0.5,0.2a15.91,15.91,0,0,1,1.21,1.51c0.3,0.4.71,0.81,1,1.21s0.5,0.61.81,0.91,0.5,0.61.71,0.91,0.4,0.5.61,0.71c0.3,0.4.5,0.71,0.81,1.11a7.07,7.07,0,0,1,.81,1c0.3,0.5.81,1,1.11,1.51a0.92,0.92,0,0,0,.71.3,21.25,21.25,0,0,0,2.42-.61c0.4-.1.71-0.3,1.11-0.4,1-.3,2-0.61,3.13-0.91a6.43,6.43,0,0,1,.71-0.2c0.5-.1,1-0.3,1.51-0.4s1-.3,1.51-0.4a11.74,11.74,0,0,1,1.82-.4,0.2,0.2,0,0,0,.2-0.1,2.29,2.29,0,0,1,.4-0.1,10.56,10.56,0,0,0,1.72-.4h0.1c0.61-.2,1.21-0.3,1.82-0.5s1.31-.3,2-0.5a9.46,9.46,0,0,0,1.62-.4l2.12-.61a21.93,21.93,0,0,0,2.42-.71c0.5-.1,1-0.3,1.41-0.4s1.11-.3,1.62-0.4a20,20,0,0,0,2.63-.81c1-.4,2.12-0.71,3.13-1.11l3-.91a2.6,2.6,0,0,0,1.31-.81,12.79,12.79,0,0,0,1.11-1.31,12.25,12.25,0,0,1,1-1.41l0.91-1.21A2.36,2.36,0,0,1,76,59.75c0.5-.71,1-1.41,1.62-2.12a10.7,10.7,0,0,1,1-1.21,15.73,15.73,0,0,0,1.62-2c0.3-.5.71-1.11,1-1.62,0.1-.1.1-0.3,0.2-0.4a2,2,0,0,0,.1-0.81,2.49,2.49,0,0,0,.1-1.21v-0.3l-0.3-.91a13.48,13.48,0,0,0-.71-1.82c-0.3-.71-0.5-1.41-0.81-2.12s-0.5-1.31-.71-2a7,7,0,0,0-.5-1.31c-0.1-.2-0.2-0.5-0.3-0.71v-0.1c0-.3-0.1-0.61-0.1-0.91,0-.1-0.1-0.2-0.1-0.3H78c-1,.5-1.92.91-2.93,1.41a1.25,1.25,0,0,1-1.82-.5c-0.1-.2-0.2-0.3-0.3-0.5a5.41,5.41,0,0,1-.5-1.11,0.86,0.86,0,0,1,0-.71c0.2-.2.3-0.4,0.5-0.61A5.72,5.72,0,0,1,74.25,37a4.09,4.09,0,0,0,.91-0.5c0.3-.2.71-0.4,1-0.61s0.5-.2.71-0.3A0.54,0.54,0,0,0,77.28,35.62Z"/><path class="cls-1" d="M6.5,91.46v0.2C6.4,91.56,6.4,91.56,6.5,91.46Z"/><path class="cls-3" d="M32.76,51.27a4.14,4.14,0,0,0-.1,1.11c0,0.4-.1.71-0.1,1.11l-0.3,1.82a0.61,0.61,0,0,1-.1.4,1.25,1.25,0,0,1-.61.81l-0.91.3a1,1,0,0,1-1-.3,0.77,0.77,0,0,1-.2-0.5V53.8c0-.4.1-0.81,0.1-1.31v-0.2c0-.4-0.1-0.5-0.5-0.5a1.28,1.28,0,0,1-.91-0.4,0.52,0.52,0,0,1-.2-0.4V50.36a2,2,0,0,1,.61-1.21,1.15,1.15,0,0,1,.81-0.3c0.4,0,.5-0.1.5-0.5s0.1-.81.1-1.21v-0.5c0-.5-0.1-1.11-0.1-1.62a16.36,16.36,0,0,0-.1-2.22,1.18,1.18,0,0,1-.61-0.61,1.19,1.19,0,0,1-.1-1,2.21,2.21,0,0,1,.3-0.5,0.54,0.54,0,0,1,.3-0.2,1.62,1.62,0,0,1,1.51-.1c0.5,0.3,1.11.5,1.62,0.81,0.81,0.4,1.62.91,2.52,1.31a7.53,7.53,0,0,1,1.21.71c0.61,0.3,1.11.61,1.72,0.91,0.2,0.1.5,0.2,0.71,0.3,0.61,0.4,1.31.61,1.92,1s1.31,0.71,1.92,1.11a14.77,14.77,0,0,1,1.31.91l0.2,0.2a1.44,1.44,0,0,0,.2-0.61,9.93,9.93,0,0,0,.5-1.62c0.1-.4.3-0.81,0.4-1.11s0.1-.5.2-0.71a1.32,1.32,0,0,1,1-.91,2.15,2.15,0,0,1,.81,0c0.2,0.1.5,0.2,0.71,0.3a0.83,0.83,0,0,1,.5,1,4.29,4.29,0,0,0-.2,1.11,24.61,24.61,0,0,0-.61,2.63c-0.1.4-.2,0.91-0.3,1.31-0.2.61-.4,1.31-0.61,1.92-0.2.81-.5,1.62-0.71,2.52-0.2.71-.5,1.51-0.71,2.22-0.1.3-.2,0.71-0.3,1l-0.61,1.51a0.35,0.35,0,0,1,.2.1,8.41,8.41,0,0,1,1.51.4,19.1,19.1,0,0,0,2.32.5c0.4,0,.81.2,1.21,0.2a2.88,2.88,0,0,0,1.31,0,0.27,0.27,0,0,0,.3-0.3c0.1-.3.1-0.5,0.2-0.81s0.1-.71.1-1a14.33,14.33,0,0,1,.5-2.22,9.48,9.48,0,0,1,.61-1.51c0.2-.61.4-1.21,0.61-1.92,0.2-.5.4-1,0.61-1.62a21.93,21.93,0,0,0,.71-2.42,11.88,11.88,0,0,1,.71-2,2,2,0,0,1,.81-1,1.28,1.28,0,0,1,1.62.3A1.52,1.52,0,0,1,58.3,46a5.72,5.72,0,0,1-.3,1.82c-0.2.71-.5,1.41-0.71,2.12s-0.5,1.31-.71,2L55.68,54.4a1.87,1.87,0,0,0-.2.71A13.45,13.45,0,0,0,55,57c-0.1.61-.1,1.21-0.2,1.82s-0.1,1-.2,1.51v0.2a3,3,0,0,1,.2.91,1.19,1.19,0,0,1-.1,1,1,1,0,0,1-1.11.5,12.12,12.12,0,0,1-2-.3c-0.1,0-.3-0.1-0.4-0.1-0.3,0-.61-0.1-0.91-0.1-1.31-.1-2.52-0.4-3.84-0.61a13.69,13.69,0,0,1-2.93-.61c-0.61-.2-1.11-0.4-1.62-0.61a2.06,2.06,0,0,1-.71-0.61,0.93,0.93,0,0,1-.1-1c0.2-.5.3-0.91,0.5-1.41,0.3-.71.61-1.51,0.91-2.22A7.57,7.57,0,0,0,43,53.8a16.14,16.14,0,0,0,.5-2.12,3.59,3.59,0,0,0,.2-1c0.1-.3.1-0.61,0.2-0.91h-0.1a8.66,8.66,0,0,1-2.32.2,9.8,9.8,0,0,0-1.72.1,20.22,20.22,0,0,0-2.42.4,0.2,0.2,0,0,0-.2.1,1.36,1.36,0,0,0-.71.61v0.2L36.69,52c0.2,0.4.5,0.91,0.71,1.31l0.91,1.51,0.91,1.51a4.92,4.92,0,0,1,.3.71,2,2,0,0,1,.1,1.31A1.07,1.07,0,0,1,39,59a3.68,3.68,0,0,1-1.41.2,1,1,0,0,1-.71-0.4A5.6,5.6,0,0,1,36.29,58a11,11,0,0,1-.81-1.51l-0.91-1.82c-0.2-.5-0.5-0.91-0.71-1.41a3,3,0,0,0-.4-0.81,1.77,1.77,0,0,0-.4-0.5C33.06,51.37,33,51.37,32.76,51.27Zm0.3-6.36c0,0.61-.1,1.11-0.1,1.62s-0.1,1-.1,1.62h0.2l1.62-.3a4.37,4.37,0,0,0,.5-0.1c0.71-.2,1.41-0.3,2.22-0.5a0.54,0.54,0,0,0,.3-0.2,8.88,8.88,0,0,1-1-.61c-0.5-.2-1-0.4-1.41-0.61C34.57,45.52,33.87,45.21,33.06,44.91Z"/><path class="cls-3" d="M22.05,39c0.2-.1.5-0.1,0.71-0.2,0.5-.2.91-0.3,1.41-0.5,0.2-.1.4-0.1,0.61-0.2a6.53,6.53,0,0,0,1.31-.4c0.4-.1.81-0.3,1.21-0.4a15.34,15.34,0,0,1,2-.61,8.88,8.88,0,0,0,1.51-.5l2.32-.61a1.45,1.45,0,0,1,1.11.3l0.3,0.3a0.91,0.91,0,0,1,0,1,1.52,1.52,0,0,1-.91.71,1.43,1.43,0,0,1-.61.2,0.61,0.61,0,0,1-.4.1h-0.2c-0.5.2-.91,0.3-1.41,0.5a3.12,3.12,0,0,1-.81.2c-0.71.2-1.31,0.4-2,.61a11.32,11.32,0,0,0-1.31.5c-0.4.2-.91,0.3-1.41,0.5a23.1,23.1,0,0,0-2.32,1c-0.3.1-.5,0.2-0.81,0.3a3.63,3.63,0,0,0,.71,1l1.11,1.11a10.69,10.69,0,0,0,1.21,1A17.26,17.26,0,0,1,26.8,46a0.52,0.52,0,0,0,.4.2,2.72,2.72,0,0,1,.81.71,0.84,0.84,0,0,1,.3.81,1.28,1.28,0,0,1-.1.61,1.09,1.09,0,0,1-1.11.71,3,3,0,0,1-.91-0.2A7.53,7.53,0,0,1,25,48.14c-0.61-.4-1.21-0.71-1.72-1.11l-0.91-.61a0.31,0.31,0,0,1-.2-0.1c0,0.1-.1.2-0.1,0.3,0,0.5-.1,1-0.1,1.51v0.71a5.76,5.76,0,0,1-.1,1.31c0,0.1-.1.3-0.1,0.4a0.54,0.54,0,0,1-.3.2A3.21,3.21,0,0,1,20,51a1.4,1.4,0,0,1-1-.5,2.64,2.64,0,0,1-.5-1.72V47.13c0-.2-0.1-0.5-0.1-0.71,0-.5-0.1-1.11-0.1-1.62V43.7h-0.1l-0.91.3c-0.2.1-.4,0.1-0.61,0.2a3.76,3.76,0,0,1-1.82.2,1.07,1.07,0,0,1-.5-0.2,1.4,1.4,0,0,1-.71-0.81,1.29,1.29,0,0,1,.4-1.62,2.53,2.53,0,0,1,.71-0.4,10.48,10.48,0,0,1,1-.4,3.59,3.59,0,0,0,.91-0.4A11,11,0,0,0,17.81,40a0.92,0.92,0,0,0,.4-0.81A7.56,7.56,0,0,0,18,37l-0.3-1.82L17.41,34c0-.2-0.1-0.4-0.1-0.61a1.09,1.09,0,0,1,.81-1.11,1.43,1.43,0,0,1,1.11-.1,1.16,1.16,0,0,1,.91.61,6.77,6.77,0,0,1,.71,1.82,3,3,0,0,1,.2.91,8.6,8.6,0,0,1,.4,2.32A2,2,0,0,1,22.05,39Z"/><path class="cls-3" d="M66.58,49.35c0.1-.1.3-0.2,0.4-0.3,0.71-.5,1.41-1.11,2.12-1.72s1.11-1.11,1.72-1.62l0.1-.1a12.79,12.79,0,0,1,1.31-1.11,1.21,1.21,0,0,1,1.41-.1,1.78,1.78,0,0,1,.81.91,1.07,1.07,0,0,1-.1.81,10.81,10.81,0,0,1-1.41,1.62,9.52,9.52,0,0,1-1,1l-0.61.61a9.1,9.1,0,0,1-1,.91c-0.2.2-.4,0.3-0.61,0.5-0.5.4-.91,0.81-1.41,1.21-0.2.2-.2,0.2-0.1,0.5s0.3,0.81.5,1.31c0.1,0.3.3,0.71,0.4,1a16,16,0,0,1,.71,2,16.75,16.75,0,0,1,.61,1.62c0,0.1.1,0.2,0.1,0.3a2.17,2.17,0,0,1,0,.81,1.51,1.51,0,0,1-.3.71,1.31,1.31,0,0,1-1.31.5,3,3,0,0,1-1-.4,1.39,1.39,0,0,1-.3-0.4,2.53,2.53,0,0,1-.4-0.71,1.07,1.07,0,0,1-.2-0.5,21.15,21.15,0,0,0-.81-2.32c-0.2-.5-0.4-0.91-0.61-1.41l-0.1-.1c-0.1,0-.1.1-0.2,0.1-0.4.3-.71,0.61-1.11,0.91s-0.81.71-1.21,1-0.5.4-.81,0.61c-0.1,0-.1.1-0.2,0.1-0.4.3-.71,0.61-1.11,0.91a8.42,8.42,0,0,1-1.21.81,1.39,1.39,0,0,1-1.11.1,2.15,2.15,0,0,1-1.21-.71,1.17,1.17,0,0,1-.2-1,0.2,0.2,0,0,1,.1-0.2,7.07,7.07,0,0,1,.81-1c0.4-.4.91-0.81,1.31-1.21a2.2,2.2,0,0,1,.5-0.4,17.55,17.55,0,0,0,1.51-1.31,10.58,10.58,0,0,1,1.11-.81,12.79,12.79,0,0,0,1.31-1.11,0.46,0.46,0,0,0,.1-0.61c-0.2-.61-0.5-1.11-0.71-1.72l-0.61-1.51c-0.2-.5-0.5-1-0.71-1.51a9.48,9.48,0,0,1-.61-1.51,1.43,1.43,0,0,1,.1-1.11,2.68,2.68,0,0,1,.5-0.61,3.21,3.21,0,0,1,.91-0.3,0.65,0.65,0,0,1,.61.2c0.2,0.2.4,0.5,0.61,0.71a7.53,7.53,0,0,1,.71,1.21,6.17,6.17,0,0,1,.71,1.41c0.2,0.3.3,0.71,0.5,1l0.3,0.91A2.48,2.48,0,0,0,66.58,49.35Z"/></svg>