<svg id="Layer_1" data-name="Layer 1" xmlns="http://www.w3.org/2000/svg" viewBox="0 0 100 100" height="45" width="45"><defs><style>.cls-1{fill:#0db04b;}</style></defs><title>Mob Grip Logo</title><g id="Mob_Grip" data-name="Mob Grip"><circle class="cls-1" cx="52.16" cy="37.04" r="13.25"/><path d="M35.41,37A16.75,16.75,0,1,0,52.16,20.29,16.77,16.77,0,0,0,35.41,37Zm7,0a9.74,9.74,0,1,1,9.74,9.74A9.75,9.75,0,0,1,42.42,37Z"/><circle cx="52.16" cy="37.04" r="6"/><polygon points="57.48 57.74 57.48 76.51 63.04 76.51 63.04 57.74 62.73 57.74 57.48 57.74"/><path d="M28.68,70h3.39v1a4.41,4.41,0,1,1,1.35-6.68l0.2,0.24L35.48,63c0.63-.53,1.29-1.07,1.83-1.56l0.22-.2L37.34,61a9.57,9.57,0,1,0,.06,12.17l0.22-.26v-6.8H28.68V70h0Z"/><path d="M54.65,64.38A6.78,6.78,0,0,0,48,57.75H39.85V76.51h5.56V72l2-.37,2.22,4.85H56L51.56,70A6.68,6.68,0,0,0,54.65,64.38Zm-9.24-2a9.62,9.62,0,0,1,2.71.21,1.75,1.75,0,0,1,1.39,1.77c0,0.05,0,.1,0,0.15a2.16,2.16,0,0,1-.95,1.81,8.09,8.09,0,0,1-3.15,1.13C45.41,66.87,45.41,62.88,45.41,62.39Z"/><path d="M74.21,57.74H66.08V76.51h5.56V72l3.15-.18a6.9,6.9,0,0,0,6.09-6.94A7.06,7.06,0,0,0,74.21,57.74Zm-2.57,4.39a9.75,9.75,0,0,1,2.51.23A2.38,2.38,0,0,1,76,64.53a2.21,2.21,0,0,1,0,.26,2.33,2.33,0,0,1-1.39,2.13,9.15,9.15,0,0,1-2.94.35C71.64,66.75,71.64,62.63,71.64,62.14Z"/><path d="M99.84,35.17a6,6,0,0,0,.18-1.48,6.15,6.15,0,0,0-1-3.29,8.93,8.93,0,0,0-6-3.71c-6.23-1.25-12.59-2.25-18.9-3l-0.48-.06-0.05.48L70.37,52.64l0.46,0.07,5.78,0.86c3.36,0.49,6.84,1,10.77,1.63,5.36,1.06,10.46-1.53,11.59-5.9a6.49,6.49,0,0,0,.21-1.64,7.46,7.46,0,0,0-1.2-4A10.34,10.34,0,0,0,93.84,40,6.52,6.52,0,0,0,99.84,35.17ZM90,46.32c-0.18,1.23-1,2.43-3.32,2.24-2.77-.24-6.93-1-6.94-1,0.31-2,.37-3.74.68-5.72,0,0,3.49.49,6.89,1.16C89.23,43.38,90.21,44.62,90,46.32ZM90.4,34.57a1.91,1.91,0,0,1-.33.88,2.69,2.69,0,0,1-2.81,1.14l-2.68-.39c-1.57-.2-3.05-0.46-3.05-0.45l0.77-4.93s2.53,0.25,5.35.83C89.35,32,90.6,33.16,90.4,34.57Z"/><path d="M31.34,23.75l-0.11-1-0.71.7c-4.68,4.63-9.15,9.5-13.31,14.48C12.06,34,6.62,30.26,1,26.79l-0.84-.52,0.76,6.8c0.84,7.53,1.7,15.31,2.63,22.41L3.63,56l0.5-.1c2.52-.48,5.08-0.91,7.6-1.29l0.46-.07-0.06-.46c-0.19-1.55-.37-3.65-0.56-5.69-0.13-1.48-.27-3-0.4-4.3,2.4,1.69,4.77,3.44,7.07,5.22l0.37,0.29,0.3-.36c1.83-2.24,3.75-4.47,5.7-6.65,0.13,1.36.26,3,.38,4.53,0.16,1.94.32,4,.47,5.45l0,0.47L26,53c2.54-.2,5.11-0.34,7.65-0.44l0.51,0-0.7-7.4C32.77,38,32.08,30.52,31.34,23.75Z"/><path d="M82.9,58.35l0.43,1.3,0.43-1.3h0.47v1.81H83.93V58.7l-0.47,1.46H83.21L82.73,58.7v1.46H82.43V58.35H82.9Zm-2.18.31V58.35h1.42v0.31H81.6v1.51H81.27V58.66H80.72Z"/></g></svg>