<?xml version="1.0" encoding="utf-8"?>
<!-- Generator: Adobe Illustrator 26.2.1, SVG Export Plug-In . SVG Version: 6.00 Build 0)  -->
<svg version="1.1" id="Layer_1" xmlns="http://www.w3.org/2000/svg" xmlns:xlink="http://www.w3.org/1999/xlink" x="0px" y="0px"
	 viewBox="0 0 612 397.8" style="enable-background:new 0 0 612 397.8;" xml:space="preserve">
<style type="text/css">
	.st0{fill-rule:evenodd;clip-rule:evenodd;fill:#050303;}
</style>
<path class="st0" d="M117.83,157.52c-3.34,2.69-4.96,5.89-6.72,9.37c0.59,1.85,0.29,5.76-1.46,6.75c-3.27,1.87-7.14,1.7-10.49,2.43
	c-20.7,1.93-31.16,6.97-31.16,6.97c-2.26,0.86-4.56,1.89-6.78,2.97c-2.22,1.08-4.52,2.42-6.68,2.9c-1.38,0.3-3.94,0.38-5.19-0.22
	c-1.92-0.92-3.45-3.02-4.67-5.18c0.88-3.15,3.42-5.71,5.72-8.4c6.73-7.89,17.34-15.82,28.47-22.73
	c10.68-6.63,21.51-14.7,32.29-21.44c3.55-2.22,6.88-4.71,10.51-6.08c0.31-0.12,1.02,0.72,1.19,0.91c1.54,1.71,3.32,3.23,4.62,5.14
	c0.58,0.85,1.14,1.67,1.7,2.52c0.58,0.89,1.08,1.82,1.58,2.75c0.96,1.8,1.57,3.78,2.61,5.55c0.55,0.93,1.37,1.68,1.92,2.6
	c0.65,1.08,1.19,2.33,1.47,3.55c0.22,0.98,0.38,2.02,0.07,2.99c-0.9,2.87-3.19,2.08-5.26,2
	C127.28,152.71,122.4,153.85,117.83,157.52z M161.26,217.9c2.83-14.13-7.82-21.63-21.21-22.34c-10.45,0-26.1,0-26.1,0l-47.77,82.7
	c21.63,0.16,45.08,1.01,69-19.57C147.97,247.32,159.76,230.14,161.26,217.9z M119.79,245.78c-4.3,3.27-9.46,6.44-13.65,6.78
	l19.94-34.42c5-0.87,9.07-0.08,8.37,6.08C133.72,230.66,126.06,241.01,119.79,245.78z M187.41,195.68l-47.77,82.41h25.01
	c0.32-0.49,47.83-82.41,47.83-82.41H187.41z M251,248.23c2.39-1.39,4.78-2.83,7.17-4.39c13.09-7.78,19.42-19.73,21.15-29.68
	c0.02-22.5-24.51-17.93-43.48-18.45l-10.92-0.03l-47.87,82.34h25.18l6.27-10.85c5.03-1.82,9.19-3.16,14.24-5.25l0,0l-0.61,16.12
	h24.31L251,248.23z M236.37,219c5.21-1.66,10.71-1.97,11.48,2.16c0.64,2.21-1.57,7.27-5.34,10.27c-6.38,4.64-11.89,5.99-17.86,7.84
	L236.37,219z M442.58,195.68l-12.85,22.19l18.66,0l-34.87,60.15h25.17l34.82-60.16h15.31l12.86-22.18L442.58,195.68z M292.25,256.41
	l6.32-10.9l26.14-0.17l9.37-16.24l-26.05,0.11l6.64-11.47l34-0.17l12.7-21.89l-59.06,0.07l-47.75,82.29c0.25,0,59.2-0.05,59.2-0.05
	l12.44-21.55L292.25,256.41z M396.79,195.68c-14.1,0-31.44,11.67-39.35,25.92l-17.26,29.94c-7.91,14.26-2.84,26.49,11.27,26.49
	l34.56-0.05l12.59-21.55l0,0h-24.45c-6.06,0-7.68-6.96-4.29-13.09l7.89-13.54c3.4-6.13,11.25-11.96,17.31-11.96h25.92l12.84-22.17
	L396.79,195.68z M542.05,307.77c-0.99-2.22-3.6-3.23-5.83-2.23l-11.02,4.91c-10.19,4.54-21.15,5.84-32.48,6.2l-5.19,0.01
	c0.85-0.43,1.77-1.19,2.75-2.52c0.98-2.48,1.7-5.08,1.2-6.91c-0.32-1.2-2.06-2.57-3.21-3.09c-1.81-0.81-4.41-0.98-6.74-1.33
	c-2.33-0.35-4.68-0.78-6.86-1.33c-1.66-0.41-3.44-0.93-5.14-1.52c-6.05-1.94-15.92-5.59-20.92-10.13c-2.79-1.27-5.18-3.57-8.85-3.85
	c-1.97-0.15-4.42,5.31-5.55,7.18c-4,1.89-7.69,3.65-12.07,4c-5.98,0.48-10.11-1.29-12.78-3.82c-1.29-1.22-3.08-5.54-6.02-3.67
	c-0.99,0.63-1.75,1.58-2.4,2.52c-0.82,1.17-1.5,2.51-1.96,3.77c-0.39,1.07-0.47,2.15-0.88,3.23c-0.77,2.05-2,4.03-2.84,6.06
	c-0.44,1.05-0.88,2.11-1.23,3.17c-0.34,1.02-0.64,2.02-0.96,3.04c-0.55,1.8-0.73,3.56-0.97,5.33H324.3
	c-14.82,0-29.21-0.48-42.33-6.33l-11.03-4.91c-2.23-0.99-4.84,0.01-5.83,2.24c-0.99,2.23,0.01,4.83,2.23,5.83l11.03,4.92
	c14.71,6.55,30.11,7.09,45.92,7.09h158.57c15.81,0,31.22-0.54,45.92-7.09l11.02-4.92C542.04,312.6,543.04,309.99,542.05,307.77z
	 M326.14,330.3c-7.32,0-13.26,5.94-13.26,13.26c0,7.33,5.94,13.26,13.26,13.26c7.33,0,13.26-5.93,13.26-13.26
	C339.4,336.24,333.47,330.3,326.14,330.3z M479.13,330.3c-7.32,0-13.26,5.94-13.26,13.26c0,7.33,5.94,13.26,13.26,13.26
	c7.33,0,13.26-5.93,13.26-13.26C492.39,336.24,486.46,330.3,479.13,330.3z M364.76,114.87l-33.63,38.72
	c-0.55,0.64-0.1,1.63,0.74,1.63h32.06c0.53,0,0.96-0.42,0.98-0.94l1.57-38.72C366.52,114.63,365.37,114.17,364.76,114.87z
	 M569.93,78.19l-60.96,105.19c-0.95,1.64-2.7,2.64-4.59,2.64H129.54c-4.09,0-6.64-4.43-4.59-7.96l31.16-53.77h16.07
	c5.96,0,10.78-4.83,10.78-10.78V96.26V81c0-5.91,4.76-10.7,10.65-10.77h371.74C569.43,70.23,571.98,74.66,569.93,78.19z
	 M195.66,160.79l31.03-53.82c4.96-8.37,13.07-7.61,13.07-7.61h17.87c0.36,0,0.68-0.19,0.86-0.5l8.27-14.72
	c0.37-0.66-0.11-1.47-0.86-1.47h-31.24c-14.14,0-19.76,11.26-19.76,11.26l-32.35,56.59c-3.37,6.09-7.81,5.35-7.81,5.35h-20.92
	c-0.35,0-0.68,0.19-0.85,0.49l-8.08,14.05c-0.38,0.66,0.1,1.47,0.85,1.47h31.18C189.93,171.88,195.66,160.79,195.66,160.79z
	 M290.8,170.53l-6.85-43.77c-0.06-0.38,0.11-0.76,0.43-0.97l62.21-41.32c0.81-0.54,0.43-1.8-0.54-1.8h-25.17
	c-0.2,0-0.39,0.06-0.55,0.17l-41.76,28.2c-0.87,0.58-1.93-0.4-1.4-1.31l14.83-25.59c0.38-0.66-0.09-1.48-0.85-1.48H274.4
	c-0.35,0-0.68,0.19-0.85,0.49l-50.44,87.04c-0.38,0.66,0.09,1.48,0.85,1.48h16.74c0.35,0,0.68-0.19,0.85-0.49l15.85-27.35
	c0.08-0.13,0.18-0.24,0.31-0.33l9.57-6.36c0.6-0.4,1.41-0.04,1.52,0.67l5.17,33.02c0.07,0.48,0.49,0.83,0.97,0.83h14.89
	C290.43,171.67,290.89,171.13,290.8,170.53z M384.52,83.76c0.02-0.56-0.42-1.03-0.98-1.03h-13.38c-0.29,0-0.56,0.13-0.75,0.34
	l-74.64,86.97c-0.55,0.64-0.09,1.62,0.75,1.62h84.32c0.53,0,0.96-0.42,0.98-0.94L384.52,83.76z M405.12,171.18l41.47-71.57
	c0.18-0.3,0.5-0.49,0.85-0.49h23.6c0.35,0,0.68-0.19,0.85-0.49l8.39-14.49c0.38-0.66-0.09-1.48-0.85-1.48h-23.03h-19.74h-33.25
	c-0.35,0-0.68,0.19-0.85,0.49l-8.39,14.49c-0.38,0.66,0.09,1.48,0.85,1.48h30.4c0.76,0,1.23,0.82,0.85,1.48l-40.33,69.6
	c-0.38,0.66,0.09,1.48,0.85,1.48h17.46C404.62,171.67,404.94,171.48,405.12,171.18z M546.91,82.67h-57.54
	c-0.35,0-0.68,0.19-0.85,0.49l-50.44,87.04c-0.38,0.66,0.09,1.48,0.85,1.48h7.46h10.73h39.34c0.35,0,0.68-0.19,0.85-0.49l8.04-13.87
	c0.38-0.66-0.09-1.48-0.85-1.48h-36.49c-0.76,0-1.23-0.82-0.85-1.48l5.6-9.66c0.18-0.3,0.5-0.49,0.85-0.49h26.66
	c0.35,0,0.68-0.19,0.85-0.49l8.48-14.64c0.38-0.66-0.09-1.48-0.85-1.48h-24.38c-0.76,0-1.23-0.82-0.85-1.48l15.06-25.99
	c0.18-0.3,0.5-0.49,0.85-0.49h38.77c0.35,0,0.68-0.19,0.85-0.49l8.7-15.02C548.15,83.49,547.67,82.67,546.91,82.67z M129.86,75v4.57
	v8.65c0,0.95-1.05,1.73-2.32,1.73h-3.42c-1.27,0-2.32-0.78-2.32-1.73v-6.93c0-0.95-1.04-1.73-2.32-1.73h-4.99
	c-1.28,0-2.32,0.78-2.32,1.73v25.24H77.82c-3.55,0-6.45-2.16-6.45-4.81V75c0-2.64,2.9-4.81,6.45-4.81h45.59
	C126.96,70.19,129.86,72.36,129.86,75z M106.69,76.48c0-0.95-1.04-1.73-2.32-1.73h-3.92c-1.27,0-2.32,0.78-2.32,1.73v14.91
	c0,0.96-0.02,1.73-0.06,1.73c-0.03,0-0.31-0.75-0.62-1.68L92.4,76.42c-0.31-0.93-1.61-1.68-2.88-1.68h-6.95
	c-1.28,0-2.32,0.78-2.32,1.73V100c0,0.95,1.04,1.73,2.32,1.73h3.91c1.28,0,2.33-0.78,2.33-1.73V84.18c0-0.95,0.02-1.73,0.06-1.73
	c0.04,0,0.33,0.75,0.66,1.67l5.7,15.93c0.33,0.92,1.64,1.67,2.92,1.67h6.24c1.28,0,2.32-0.78,2.32-1.73V76.48z M173.86,84.36v26.72
	c0,2.64-2.9,4.81-6.45,4.81h-39.14c-3.55,0-6.45-2.16-6.45-4.81v-4.57c-0.01,0-0.02,0-0.02,0v-8.94c0-0.95,1.04-1.73,2.32-1.73h3.42
	c1.27,0,2.32,0.78,2.32,1.73v0v7.24c0,0.95,1.05,1.73,2.32,1.73h4.99c1.28,0,2.32-0.78,2.32-1.73V79.56h27.92
	C170.96,79.56,173.86,81.72,173.86,84.36z M165.35,103.29c0-8.28-12.78-8.05-12.78-11.19c0-1.66,2.14-2.16,4.52-2.16
	c2.97,0,5.52,1.69,5.52,1.69c0.95,0.63,1.73,0.37,1.73-0.58c0,0,0-4.15,0-4.27c0.01-0.42-0.46-0.78-0.46-0.78
	c-2.29-1.51-4.69-2.18-8.87-2.18c-7.61,0-11.71,2.99-11.71,8.09c0,8.58,13.14,7.86,13.14,11.83c0,1.17-0.77,2.23-4.4,2.23
	c-2.39,0-6.52-1.89-6.56-1.91c-1.26-0.66-1.23,0.27-1.23,0.27v3.57c0,0.95,0.11,1.95,2.03,2.57c0,0,3.38,1.39,6.41,1.39
	C161.01,111.87,165.35,108.92,165.35,103.29z"/>
</svg>
