<?xml version="1.0" encoding="UTF-8"?>
<svg id="Layer_2" xmlns="http://www.w3.org/2000/svg" version="1.1" viewBox="0 0 45 45">
  <!-- Generator: Adobe Illustrator 29.1.0, SVG Export Plug-In . SVG Version: 2.1.0 Build 142)  -->
  <path d="M12.7,33.9c-1.3,0-1.8.8-2.1,1.2,0,.2,0,.3.2.3.5,0,1.6.4,1.6,2.4s-1.1,2.9-2.8,2.9-3.5-2.3-3.9-5.2c0,0,0-.1,0-.2,0-.4,0-1.1.6-1.7.2-.1,0-.3,0-.4-.5-.5-.7-1.2-.6-1.4,0-.1,0-.2,0-.4.3-3.5,2.2-5.2,3.8-5.2s2.2,1.6,2.2,2.4-.5,1.1-.8,1.2c-.1,0-.1.1,0,.2.3.1.8.3,1.4.3,1.4,0,2.3-1,2.3-2.5s-.1-1.1-.4-1.8c0,0,0-.2,0-.2.3-.2.6-.6.6-1.3s0-.7-.2-1c0,0-.1-.2-.2,0-.2.1-.5.4-1.2.4-1,0-1.6-1-4-1-3.6,0-6.6,2.9-7.1,8.6,0,.6-.3,1.1-.8,1.6,0,0-.2.2,0,.4.5.5.7,1.2.8,1.7.6,4.4,2.7,8.4,7.3,8.4s5.9-2.5,5.9-6-.9-3.8-2.8-3.8ZM28.5,38.5c2-.2,2.6-1.5,2.6-2.5s-.1-.7-.2-.9c0-.2-.2-.2-.3,0-.2.3-.8.9-1.9.9s-.5,0-.8-.1c0,0-.1-.1-.1-.1v-.4c-.1-.4,0-1.1.4-1.7.1-.1,0-.3,0-.3-.6-.4-1-1.1-1.1-1.4-.5-1.7-.6-3.1-.8-4.4-.2-1,0-2.1,1.3-2.3,0,0,.2-.1.1-.3-.3-.5-1.1-1.5-2.6-1.5s-1.8.6-2,1c-.1.1-.2.1-.3,0-.3-.3-.8-.9-2-.9s-2.3,1.1-2.6,1.6c0,.1,0,.2.1.2,1.3.1,1.5,1.2,1.3,2.3-.2,1.4-.4,2.7-.8,4.4,0,.3-.5,1-1.1,1.4-.2.1-.1.2,0,.3.4.6.5,1.3.5,1.7-.3,2.5-.9,4.3-1.2,5.1-.4,1.2-1.2,1.3-1.6,1.3-.2,0-.3,0-.2.2.2.5.7,1.5,2.1,1.5s1.4-.5,1.6-.8c0,0,.1,0,.2,0,.2.3.6.8,1.5.8,1.4,0,1.8-1,2-1.5,0-.1,0-.2-.2-.2-.6,0-2-.4-1.6-2.8.2-1.2,1.2-1.6,2.5-1.6s1.9.3,1.9.3l.2,1.2c.5,2.5-.9,2.9-1.5,2.9-.2,0-.3,0-.2.2.1.5.6,1.5,2,1.5s1.4-.5,1.5-.8c0,0,.1,0,.2,0,.2.3.7.8,1.6.8,1.3,0,1.9-1,2.1-1.5,0-.1,0-.2-.2-.2-.4,0-1.3-.1-1.6-1.3-.1-.4-.3-1-.5-1.7,0-.2,0-.2,0-.2ZM24.3,34.9c-.2,0-.7-.1-1.3-.1s-1.2.1-1.5.2c-.2,0-.1,0-.1-.2.4-2.2,1-4.7,1.4-6.5,0-.2.2-.2.2,0,.4,1.9.9,4.3,1.4,6.5,0,0,0,.2-.1.2ZM44.8,39.8c0-.9-.7-2-1.7-2.1-.1,0-.2.1-.2.2,0,.7-.3,2.3-3.2,2.3s-2.8-.7-2.8-2.8,0-1.5.1-2c0,0,.1-.9,1-1.7.1-.1,0-.2,0-.3-.9-.8-1-1.7-1-1.7-.1-.5-.1-1.3-.1-2s0-1.8.1-2.5c.2-1.8,1.3-2,1.8-1.9.2,0,.2,0,.1-.3-.3-.5-.9-1.4-2.1-1.4s-1.4.5-1.6.8c0,.1-.2,0-.2,0-.2-.3-.7-.7-1.6-.7s-1.8.9-2.1,1.4c0,.2,0,.3.2.3.5,0,1.5.2,1.8,1.9,0,.6.1,1.5.1,2.5s0,1.5-.1,2c0,0-.1,1-1.1,1.7-.1,0,0,.2,0,.2.9.8,1,1.7,1,1.7.1.5.1,1.3.1,2s0,1.8-.1,2.5c-.2,1.8-1.2,2-1.7,2-.2,0-.3,0-.2.2.2.5.9,1.5,2.1,1.5s1.5-.5,1.6-.8c0,0,.1,0,.2,0,.2.3.8.8,1.9.8s2.6-.4,4-.4,2,.2,2.7.7c0,0,.2.1.3,0,.2-.2.5-.5.5-1.2s-.3-1-.5-1.1c0,0,0-.1,0-.2.2-.2.7-.7.7-1.5ZM3.8,20.8c0,0,.1,0,.2,0,.2.3.7.8,1.6.8s1.8-1,1.9-1.5c0-.1,0-.2-.1-.2-.4,0-1.5-.2-1.7-2-.2-1.5-.3-4.1-.2-6.6,0-.1,0-.3.2-.1,1.9,1.9,4.3,4.7,4.3,6.7s-1.2,1.9-1.7,1.9c-.1,0-.2,0-.1.2.2.4.7,1.6,1.9,1.6s1.4-.5,1.6-.8c0,0,.1,0,.2,0,.2.3.7.8,1.6.8s1.9-1.1,2.1-1.6c0-.1,0-.2-.1-.1-.5,0-1.6,0-1.9-1.9,0-.6-.1-1.5-.1-2.5s0-1.5.1-2c0,0,.1-1,1.1-1.8.1,0,0-.2,0-.2-.9-.8-1.1-1.7-1.1-1.7-.1-.5-.1-1.3-.1-2s0-1.8.1-2.5c.2-2,1.5-2,1.9-1.9,0,0,.1,0,0-.1-.2-.4-.8-1.6-2.1-1.6s-1.4.5-1.6.8c0,0-.1,0-.2,0-.2-.3-.7-.8-1.6-.8s-1.8,1.1-1.9,1.6c0,0,0,.2.1.2.4,0,1.5.1,1.7,2,.2,1.3.2,3.5.2,5.7,0,0,0,.2-.2,0-1.6-1.5-4.3-4.4-4.3-6.2s1.2-1.5,1.6-1.5c0,0,.1,0,0-.1-.1-.4-.6-1.6-1.9-1.6s-1.4.5-1.6.8c0,0-.1,0-.2,0-.2-.3-.7-.8-1.6-.8S.2,2.8,0,3.2c0,.1,0,.2,0,.2.4,0,1.6,0,1.9,1.9,0,.6.1,1.5.1,2.5s0,1.5-.1,2c0,0-.1,1-1,1.7,0,0-.1.2,0,.3.9.8,1,1.7,1,1.7.1.5.1,1.3.1,2s0,1.8-.1,2.5c-.2,1.9-1.4,2-1.8,1.9-.1,0-.2,0-.1.2.2.5.9,1.5,2.1,1.5s1.4-.5,1.6-.8ZM15.6,11.8c.9.8,1,1.7,1,1.7.2.8,0,2,0,2.9,0,3.8,3.4,5.3,6.2,5.3s6.2-1.3,6.2-5.3c0-1,0-2.1,0-2.9,0,0,.1-.9,1-1.7.1-.1,0-.2,0-.3-.9-.8-1-1.7-1-1.7-.1-.5-.1-1.3-.1-2v-1.3c0-4-3.6-5.3-6.2-5.3s-6.2,1.6-6.2,5.3v1.3c0,.7,0,1.5,0,2,0,0-.1.9-1,1.7,0,0-.2.2,0,.3ZM21.3,11.5c-.9-.8-1-1.7-1-1.7-.1-.5-.1-1.3-.1-2v-.4c0-2.2,1.5-3.1,2.8-3.1s2.8.9,2.8,3.1v.4c0,.7,0,1.5-.1,2,0,0-.1.9-1,1.7,0,0-.2.2,0,.3.9.8,1,1.7,1,1.7.1.5.1,1.3.1,2,0,2.2-1.5,3.1-2.8,3.1s-2.8-.9-2.8-3.1,0-1.5.1-2c0,0,.1-.9,1-1.7.2-.1,0-.3,0-.3ZM30.3,3.4c.5,0,1.6,0,1.8,1.9,0,.6.2,1.5.2,2.5s0,1.5-.2,2c0,0-.1.9-1,1.7,0,0-.1.2,0,.3.9.8,1,1.7,1,1.7.1.5.2,1.3.2,2s0,1.8-.2,2.5c-.2,1.8-1.3,2-1.8,2-.2,0-.2,0-.2.2.2.5.9,1.5,2.1,1.5s1.4-.5,1.6-.8c0,0,.1,0,.2,0,.2.3.7.8,1.6.8s1.9-1,2.1-1.5c0-.1,0-.2-.2-.2-.5,0-1.5-.2-1.8-2,0-.3,0-.6,0-1,0-1,.8-1.8,1.9-2.1.2,0,.3-.1.5-.1l1.7,4.9c.4,1.2,1.2,2.2,2.6,2.2s2.4-1.2,2.5-1.8c0-.2,0-.3-.1-.3-.5,0-1.6-.3-2.1-1.7-.4-1.1-1.3-3.3-1.6-4.7,0,0,0-.1,0-.2.9-.8,1.5-1.8,1.8-3.1.2-.9.9-1.6,1.2-1.9,0,0,0-.2,0-.3-.3-.2-.9-.8-1.1-1.8-.5-2.6-2.5-4.7-5.4-4.7s-2.4.5-2.9.8c-.2.1-.2,0-.3,0-.4-.4-1.1-.7-1.8-.7-1.3,0-2.1.8-2.4,1.5,0,0,0,.2.1.2ZM35.6,6.7c0-1.7.6-2.3,1.8-2.3s2.3.7,2.6,1.9c.2.9-.4,1.5-.6,1.7,0,0,0,.2,0,.3.3.3.8.9.7,1.6-.4,1.4-.9,1.9-2,2.2,0,0-1.4.3-2.2,1.1-.2-.7-.2-2.7-.2-3.3,0-1,0-1.9,0-3.2Z"/>
</svg>