<?xml version="1.0" encoding="utf-8"?>
<!-- Generator: Adobe Illustrator 16.0.4, SVG Export Plug-In . SVG Version: 6.00 Build 0)  -->
<!DOCTYPE svg PUBLIC "-//W3C//DTD SVG 1.1//EN" "http://www.w3.org/Graphics/SVG/1.1/DTD/svg11.dtd">
<svg version="1.1" id="Layer_1" xmlns="http://www.w3.org/2000/svg" xmlns:xlink="http://www.w3.org/1999/xlink" x="0px" y="0px" width="45" height="45" viewBox="0 0 28.299 29.35" enable-background="new 0 0 28.299 29.35" xml:space="preserve">
	<g>
		<g>
			<g>
				<path fill="#262261" d="M14.364,0C6.679,0,0.429,6.251,0.429,13.935c0,7.686,6.25,13.936,13.936,13.936
					c7.682,0,13.935-6.25,13.935-13.936C28.299,6.251,22.046,0,14.364,0z"/>
			</g>
		</g>
		<path fill="#D6DE23" d="M14.37,0.406c-7.476,0-13.536,6.061-13.536,13.536S6.895,27.476,14.37,27.476
			c7.474,0,13.536-6.06,13.536-13.534S21.844,0.406,14.37,0.406z M14.367,26.162c-6.748,0-12.219-5.47-12.219-12.22
			c0-6.747,5.471-12.219,12.219-12.219c6.749,0,12.216,5.472,12.216,12.219C26.583,20.692,21.116,26.162,14.367,26.162z"/>
		<g>
			<path fill="#262261" d="M6.43,3.82c-0.156-0.211-0.113-0.492,0.12-0.664c0.054-0.039,0.115-0.069,0.18-0.089
				c0.245-0.069,0.505,0.08,0.569,0.342c0.028,0.118,0.007,0.243-0.061,0.347C7.029,4.075,6.625,4.086,6.43,3.82z M6.861,3.695
				c0.096-0.023,0.15-0.119,0.126-0.208c-0.005-0.021-0.016-0.04-0.028-0.057C6.918,3.375,6.852,3.35,6.787,3.365
				C6.692,3.388,6.637,3.48,6.661,3.573c0.005,0.02,0.015,0.04,0.029,0.057C6.729,3.685,6.797,3.708,6.861,3.695z"/>
			<path fill="#262261" d="M7.381,3.523L7.38,3.282C7.395,3.286,7.41,3.289,7.423,3.291C7.457,3.294,7.469,3.292,7.48,3.286
				c0.042-0.018,0.053-0.054,0.029-0.096L7.497,3.168L7.489,3.156l-0.28-0.432l0.277-0.178L7.81,3.048
				c0.016,0.023,0.031,0.05,0.045,0.074c0.084,0.144-0.043,0.365-0.294,0.403C7.523,3.53,7.485,3.533,7.446,3.53
				C7.426,3.53,7.403,3.527,7.381,3.523z"/>
			<path fill="#262261" d="M7.892,2.288L8.171,2.15l0.254,0.306c0.006,0.008,0.022,0.031,0.073,0.112
				c0.007,0.012,0.016,0.025,0.022,0.038C8.515,2.592,8.51,2.579,8.504,2.565C8.467,2.475,8.46,2.448,8.457,2.437L8.371,2.049
				L8.608,1.93l0.26,0.3c0.007,0.008,0.023,0.031,0.073,0.114C8.95,2.357,8.957,2.369,8.964,2.382
				C8.95,2.351,8.938,2.318,8.925,2.285c-0.016-0.046-0.02-0.06-0.022-0.069L8.81,1.829L9.087,1.69l0.149,0.916L8.98,2.734
				L8.743,2.437c-0.018-0.021-0.039-0.053-0.08-0.116L8.628,2.263L8.612,2.236c0.005,0.009,0.009,0.019,0.013,0.03
				C8.67,2.377,8.689,2.423,8.697,2.461L8.793,2.83L8.539,2.957L7.892,2.288z"/>
			<path fill="#262261" d="M9.516,2.48L9.193,1.654l0.305-0.119l0.105,0.269l0.188-0.075L9.686,1.463l0.306-0.121l0.322,0.826
				l-0.305,0.12L9.897,2.001L9.709,2.075l0.112,0.286L9.516,2.48z"/>
			<path fill="#262261" d="M10.399,2.143l-0.265-0.846l0.638-0.2l0.009,0.256l-0.262,0.083l0.023,0.071l0.235-0.074l0.072,0.228
				l-0.236,0.075l0.022,0.072l0.327-0.104l0.006,0.259L10.399,2.143z"/>
			<path fill="#262261" d="M11.086,1.93l-0.216-0.86l0.649-0.163l-0.006,0.259l-0.266,0.066l0.019,0.071l0.24-0.06l0.058,0.231
				l-0.24,0.061l0.019,0.073l0.333-0.082l-0.008,0.257L11.086,1.93z"/>
			<path fill="#262261" d="M11.785,1.756l-0.165-0.87l0.322-0.061l0.117,0.621l0.336-0.063l-0.022,0.263L11.785,1.756z"/>
			<path fill="#262261" d="M12.384,1.559l0.051-0.271c0.026,0.017,0.053,0.03,0.081,0.043c0.054,0.023,0.089,0.033,0.117,0.035
				c0.049,0.005,0.076-0.005,0.089-0.021c0.018-0.023,0.011-0.05-0.011-0.059c-0.01-0.003-0.022-0.007-0.059-0.01l-0.025-0.003
				l-0.033-0.004c-0.009-0.001-0.017-0.003-0.027-0.003c-0.197-0.037-0.29-0.207-0.183-0.396c0.073-0.127,0.25-0.207,0.467-0.162
				c0.041,0.01,0.079,0.023,0.115,0.04l-0.04,0.237C12.918,0.978,12.91,0.974,12.9,0.97c-0.127-0.059-0.204-0.042-0.226-0.011
				c-0.013,0.021-0.006,0.044,0.014,0.049C12.7,1.014,12.715,1.017,12.74,1.02l0.053,0.007l0.015,0.001l0.028,0.004l0.031,0.003
				c0.138,0.023,0.22,0.134,0.197,0.289c-0.028,0.2-0.246,0.345-0.536,0.282C12.477,1.595,12.43,1.58,12.384,1.559z"/>
			<path fill="#262261" d="M14.252,1.033c0.007-0.261,0.214-0.455,0.504-0.449c0.067,0.003,0.134,0.017,0.195,0.042
				C15.188,0.721,15.3,1,15.189,1.245c-0.049,0.109-0.142,0.195-0.261,0.235C14.568,1.603,14.244,1.363,14.252,1.033z M14.67,1.199
				c0.089,0.043,0.191,0.001,0.228-0.083c0.007-0.02,0.011-0.043,0.012-0.063c0.001-0.069-0.035-0.129-0.095-0.158
				c-0.088-0.04-0.19,0-0.227,0.085C14.581,1,14.575,1.02,14.574,1.043C14.573,1.113,14.61,1.172,14.67,1.199z"/>
			<path fill="#262261" d="M15.187,1.385l0.146-0.189c0.01,0.013,0.02,0.023,0.029,0.033c0.023,0.023,0.035,0.03,0.049,0.033
				c0.044,0.01,0.074-0.011,0.081-0.059l0.004-0.023l0.001-0.015l0.047-0.514l0.327,0.029l-0.056,0.595
				c-0.002,0.028-0.006,0.056-0.01,0.085c-0.021,0.166-0.256,0.261-0.479,0.137c-0.032-0.018-0.064-0.04-0.093-0.066
				C15.216,1.417,15.203,1.401,15.187,1.385z"/>
			<path fill="#262261" d="M16.352,0.729l0.305,0.062l0.01,0.396c0,0.012-0.002,0.041-0.01,0.134
				c-0.002,0.015-0.003,0.029-0.007,0.044c0.004-0.015,0.009-0.028,0.014-0.042c0.026-0.094,0.036-0.12,0.041-0.13l0.17-0.358
				l0.263,0.053l0.019,0.396c0,0.013-0.001,0.039-0.013,0.135c-0.002,0.017-0.004,0.03-0.005,0.043
				c0.007-0.034,0.018-0.066,0.029-0.1c0.015-0.048,0.02-0.059,0.023-0.069l0.167-0.361l0.304,0.062l-0.449,0.813L16.933,1.75
				L16.93,1.37c-0.002-0.028,0.001-0.065,0.009-0.139l0.006-0.069l0.006-0.033c-0.003,0.009-0.006,0.021-0.008,0.033
				c-0.032,0.115-0.047,0.161-0.065,0.198l-0.15,0.35l-0.279-0.058L16.352,0.729z"/>
			<path fill="#262261" d="M17.509,1.879l0.255-0.849l0.313,0.095l-0.083,0.276l0.193,0.058l0.083-0.276l0.314,0.094L18.33,2.127
				l-0.313-0.095l0.088-0.292l-0.193-0.059l-0.088,0.294L17.509,1.879z"/>
			<path fill="#262261" d="M18.413,2.159l0.313-0.829l0.626,0.234L19.2,1.774l-0.256-0.097l-0.025,0.069l0.231,0.088l-0.084,0.223
				l-0.232-0.086l-0.026,0.069l0.32,0.123l-0.154,0.208L18.413,2.159z"/>
			<path fill="#262261" d="M19.085,2.416l0.36-0.811l0.613,0.274l-0.164,0.198l-0.249-0.111l-0.031,0.068l0.226,0.099l-0.095,0.218
				l-0.227-0.099l-0.031,0.069l0.313,0.139l-0.167,0.198L19.085,2.416z"/>
			<path fill="#262261" d="M19.746,2.711l0.403-0.787l0.293,0.149l-0.293,0.562l0.306,0.157l-0.181,0.193L19.746,2.711z"/>
			<path fill="#262261" d="M20.339,2.922l0.208-0.182c0.009,0.03,0.021,0.058,0.034,0.086c0.029,0.05,0.048,0.079,0.069,0.099
				c0.038,0.033,0.066,0.042,0.086,0.037c0.03-0.007,0.038-0.032,0.026-0.053c-0.003-0.01-0.009-0.019-0.039-0.043l-0.018-0.019
				l-0.023-0.022c-0.007-0.006-0.014-0.013-0.021-0.02c-0.134-0.15-0.101-0.342,0.101-0.425c0.137-0.056,0.326-0.009,0.468,0.162
				c0.026,0.03,0.048,0.062,0.068,0.101l-0.181,0.162c-0.003-0.01-0.007-0.018-0.014-0.027c-0.062-0.124-0.134-0.16-0.168-0.146
				c-0.027,0.006-0.033,0.03-0.021,0.046c0.008,0.009,0.017,0.023,0.035,0.04l0.038,0.039l0.009,0.01l0.021,0.02l0.022,0.023
				c0.095,0.104,0.09,0.241-0.024,0.35c-0.146,0.139-0.405,0.121-0.595-0.109C20.389,3.012,20.361,2.968,20.339,2.922z"/>
			<path fill="#262261" d="M25.512,7.536c0.232-0.121,0.504-0.033,0.637,0.221c0.032,0.059,0.053,0.125,0.06,0.191
				c0.032,0.254-0.154,0.487-0.424,0.51c-0.121,0.01-0.241-0.031-0.334-0.113C25.167,8.091,25.221,7.689,25.512,7.536z M25.572,7.981
				c0.007,0.099,0.092,0.168,0.183,0.157c0.021-0.001,0.043-0.009,0.061-0.019c0.062-0.033,0.098-0.092,0.091-0.159
				c-0.006-0.099-0.091-0.168-0.184-0.157c-0.021,0.001-0.041,0.008-0.062,0.018C25.6,7.854,25.565,7.917,25.572,7.981z"/>
			<path fill="#262261" d="M25.661,8.526l0.238,0.034c-0.007,0.016-0.012,0.029-0.017,0.042c-0.008,0.033-0.008,0.046-0.003,0.059
				c0.013,0.043,0.045,0.06,0.088,0.042l0.025-0.009l0.013-0.006l0.472-0.208l0.132,0.3l-0.547,0.241
				c-0.023,0.013-0.054,0.022-0.077,0.035c-0.157,0.062-0.353-0.098-0.353-0.353c0-0.038,0.003-0.077,0.009-0.114
				C25.646,8.568,25.653,8.546,25.661,8.526z"/>
			<path fill="#262261" d="M26.8,9.22l0.094,0.297l-0.34,0.204c-0.012,0.005-0.038,0.019-0.123,0.054
				c-0.015,0.007-0.025,0.013-0.042,0.016c0.017-0.003,0.027-0.006,0.042-0.009c0.097-0.021,0.123-0.025,0.135-0.027l0.396-0.024
				l0.081,0.252l-0.339,0.211c-0.009,0.007-0.031,0.019-0.124,0.057c-0.013,0.003-0.026,0.01-0.039,0.017
				c0.032-0.01,0.067-0.017,0.103-0.025c0.049-0.008,0.061-0.011,0.071-0.011l0.395-0.034l0.094,0.297l-0.926,0.004l-0.089-0.271
				l0.332-0.188c0.024-0.015,0.057-0.032,0.126-0.06l0.064-0.028l0.03-0.011c-0.012,0.003-0.021,0.005-0.032,0.008
				c-0.119,0.028-0.167,0.038-0.207,0.041l-0.376,0.038l-0.088-0.272L26.8,9.22z"/>
			<path fill="#262261" d="M26.361,10.793l0.864-0.193l0.072,0.32l-0.282,0.062l0.043,0.197l0.283-0.064l0.07,0.321l-0.864,0.194
				l-0.072-0.321l0.301-0.066l-0.046-0.197l-0.299,0.065L26.361,10.793z"/>
			<path fill="#262261" d="M26.561,11.719l0.875-0.137l0.103,0.663l-0.257-0.028l-0.041-0.272l-0.072,0.011l0.035,0.245l-0.235,0.038
				l-0.038-0.244l-0.074,0.01l0.054,0.34l-0.257-0.033L26.561,11.719z"/>
			<path fill="#262261" d="M26.668,12.429l0.881-0.085l0.066,0.667l-0.254-0.043l-0.026-0.274L27.261,12.7l0.021,0.248l-0.234,0.023
				l-0.025-0.248l-0.076,0.007l0.035,0.343l-0.255-0.047L26.668,12.429z"/>
			<path fill="#262261" d="M26.736,13.149l0.884-0.04l0.017,0.329l-0.633,0.026l0.014,0.342l-0.257-0.062L26.736,13.149z"/>
			<path fill="#262261" d="M26.848,13.769l0.259,0.09c-0.019,0.023-0.038,0.046-0.056,0.073c-0.03,0.049-0.047,0.083-0.053,0.11
				c-0.009,0.048-0.004,0.078,0.012,0.091c0.02,0.022,0.046,0.02,0.059-0.003c0.006-0.007,0.009-0.018,0.02-0.054l0.006-0.025
				l0.008-0.033c0.002-0.006,0.005-0.017,0.008-0.024c0.064-0.19,0.247-0.256,0.419-0.124c0.115,0.091,0.167,0.279,0.089,0.487
				c-0.014,0.038-0.032,0.075-0.055,0.108l-0.228-0.075c0.006-0.008,0.009-0.015,0.018-0.025c0.076-0.115,0.071-0.194,0.044-0.221
				c-0.021-0.017-0.041-0.014-0.053,0.006c-0.006,0.01-0.009,0.024-0.016,0.049l-0.018,0.053l-0.002,0.013l-0.01,0.026l-0.009,0.03
				c-0.044,0.135-0.164,0.198-0.314,0.152c-0.192-0.057-0.306-0.295-0.198-0.572C26.794,13.856,26.816,13.811,26.848,13.769z"/>
			<path fill="#262261" d="M27.048,16.055c0.255,0.051,0.414,0.287,0.355,0.571c-0.013,0.066-0.036,0.131-0.072,0.188
				c-0.134,0.215-0.428,0.279-0.65,0.129c-0.1-0.067-0.168-0.174-0.188-0.298C26.434,16.272,26.722,15.991,27.048,16.055z
				 M26.814,16.438c-0.058,0.083-0.031,0.188,0.045,0.239c0.018,0.012,0.038,0.019,0.059,0.022c0.069,0.013,0.134-0.012,0.172-0.066
				c0.058-0.08,0.032-0.188-0.046-0.238c-0.02-0.012-0.039-0.019-0.061-0.022C26.917,16.359,26.85,16.385,26.814,16.438z"/>
			<path fill="#262261" d="M26.542,16.918l0.165,0.176c-0.015,0.008-0.026,0.017-0.039,0.024c-0.026,0.02-0.034,0.029-0.041,0.041
				c-0.018,0.043,0,0.077,0.046,0.091l0.022,0.008l0.014,0.004l0.498,0.132l-0.084,0.316l-0.576-0.152
				c-0.028-0.006-0.055-0.015-0.084-0.024c-0.16-0.048-0.215-0.296-0.055-0.495c0.025-0.029,0.051-0.058,0.081-0.083
				C26.506,16.944,26.527,16.931,26.542,16.918z"/>
			<path fill="#262261" d="M26.997,18.172l-0.112,0.291l-0.392-0.054c-0.012-0.001-0.04-0.009-0.13-0.033
				c-0.015-0.003-0.028-0.009-0.041-0.014c0.013,0.008,0.023,0.014,0.037,0.021c0.089,0.04,0.111,0.056,0.122,0.061l0.326,0.229
				l-0.096,0.249l-0.397-0.047c-0.011-0.002-0.036-0.007-0.128-0.036c-0.017-0.004-0.028-0.007-0.044-0.012
				c0.032,0.014,0.065,0.031,0.097,0.044c0.043,0.025,0.055,0.032,0.062,0.038l0.329,0.223l-0.111,0.289l-0.729-0.576l0.104-0.267
				l0.374,0.059c0.029,0.003,0.065,0.014,0.138,0.033l0.067,0.019l0.029,0.01c-0.01-0.005-0.02-0.009-0.029-0.014
				c-0.11-0.051-0.154-0.073-0.187-0.097l-0.319-0.204l0.102-0.269L26.997,18.172z"/>
			<path fill="#262261" d="M25.671,19.125l0.796,0.391l-0.145,0.294l-0.258-0.127l-0.091,0.18l0.259,0.128l-0.144,0.295l-0.796-0.39
				l0.145-0.296l0.275,0.136l0.088-0.182l-0.274-0.134L25.671,19.125z"/>
			<path fill="#262261" d="M25.25,19.974l0.767,0.439l-0.332,0.582l-0.183-0.183l0.137-0.237l-0.064-0.038l-0.123,0.215l-0.206-0.119
				l0.123-0.214L25.3,20.381l-0.169,0.297l-0.183-0.185L25.25,19.974z"/>
			<path fill="#262261" d="M24.886,20.597l0.742,0.485l-0.369,0.561l-0.17-0.191l0.15-0.232l-0.062-0.039l-0.136,0.206l-0.199-0.13
				l0.136-0.208l-0.062-0.042l-0.19,0.287l-0.168-0.195L24.886,20.597z"/>
			<path fill="#262261" d="M24.49,21.197l0.714,0.526l-0.196,0.265l-0.506-0.374l-0.204,0.273l-0.162-0.209L24.49,21.197z"/>
			<path fill="#262261" d="M24.184,21.751l0.148,0.235c-0.03,0.003-0.06,0.011-0.091,0.019c-0.054,0.022-0.085,0.037-0.106,0.057
				c-0.039,0.029-0.052,0.056-0.051,0.076c0.003,0.029,0.024,0.044,0.048,0.036c0.009-0.004,0.02-0.01,0.049-0.033l0.021-0.014
				l0.027-0.021c0.006-0.005,0.015-0.01,0.021-0.016c0.169-0.108,0.354-0.047,0.404,0.165c0.034,0.143-0.042,0.322-0.232,0.437
				c-0.034,0.023-0.072,0.039-0.11,0.051l-0.134-0.202c0.012-0.002,0.02-0.004,0.029-0.008c0.134-0.044,0.181-0.108,0.174-0.146
				c-0.005-0.026-0.025-0.036-0.045-0.028c-0.011,0.007-0.024,0.013-0.044,0.028l-0.046,0.03l-0.011,0.01l-0.024,0.017l-0.023,0.017
				c-0.119,0.076-0.253,0.053-0.343-0.078c-0.115-0.165-0.055-0.421,0.203-0.57C24.09,21.789,24.137,21.766,24.184,21.751z"/>
			<path fill="#262261" d="M22.905,23.657c0.167,0.201,0.141,0.484-0.082,0.667c-0.052,0.043-0.11,0.078-0.176,0.099
				c-0.239,0.087-0.508-0.049-0.583-0.308c-0.037-0.114-0.024-0.24,0.037-0.348C22.293,23.438,22.694,23.403,22.905,23.657z
				 M22.481,23.808c-0.095,0.026-0.143,0.126-0.113,0.212c0.006,0.02,0.017,0.04,0.031,0.056c0.046,0.054,0.111,0.073,0.175,0.056
				c0.093-0.026,0.146-0.125,0.113-0.213c-0.007-0.021-0.019-0.041-0.03-0.058C22.613,23.808,22.545,23.79,22.481,23.808z"/>
			<path fill="#262261" d="M21.967,24.01l0.018,0.241c-0.018-0.004-0.028-0.007-0.046-0.007c-0.033,0-0.046,0-0.055,0.007
				c-0.04,0.023-0.052,0.06-0.024,0.099l0.014,0.021l0.011,0.013l0.301,0.416l-0.265,0.191l-0.351-0.481
				c-0.019-0.021-0.033-0.047-0.052-0.071c-0.093-0.137,0.021-0.365,0.271-0.418c0.037-0.008,0.074-0.014,0.114-0.014
				C21.924,24.006,21.945,24.008,21.967,24.01z"/>
			<path fill="#262261" d="M21.529,25.271l-0.27,0.155l-0.269-0.29c-0.01-0.007-0.025-0.029-0.081-0.107
				c-0.01-0.011-0.016-0.024-0.025-0.036c0.007,0.013,0.013,0.025,0.02,0.039c0.041,0.089,0.052,0.113,0.056,0.125l0.107,0.383
				l-0.231,0.132l-0.278-0.284c-0.006-0.01-0.023-0.03-0.077-0.111c-0.01-0.011-0.017-0.022-0.025-0.034
				c0.016,0.029,0.031,0.062,0.045,0.095c0.019,0.044,0.023,0.058,0.027,0.067l0.115,0.38l-0.268,0.154l-0.202-0.906l0.244-0.142
				l0.254,0.283c0.021,0.021,0.044,0.049,0.087,0.109l0.039,0.06l0.021,0.025c-0.008-0.011-0.013-0.021-0.016-0.03
				c-0.052-0.108-0.072-0.153-0.084-0.192l-0.118-0.358l0.249-0.144L21.529,25.271z"/>
			<path fill="#262261" d="M19.9,25.174l0.371,0.805l-0.298,0.139l-0.12-0.263l-0.186,0.083l0.121,0.264l-0.3,0.137l-0.369-0.806
				l0.3-0.139l0.128,0.28l0.185-0.086l-0.131-0.277L19.9,25.174z"/>
			<path fill="#262261" d="M19.038,25.562l0.314,0.83l-0.626,0.236l-0.023-0.255l0.255-0.099l-0.026-0.068L18.7,26.294l-0.084-0.224
				l0.23-0.087l-0.026-0.071l-0.321,0.122l-0.021-0.257L19.038,25.562z"/>
			<path fill="#262261" d="M18.364,25.817l0.267,0.845l-0.639,0.201l-0.011-0.259l0.262-0.081l-0.023-0.071l-0.234,0.075
				l-0.071-0.229l0.236-0.073l-0.024-0.073l-0.327,0.103l-0.006-0.259L18.364,25.817z"/>
			<path fill="#262261" d="M17.678,26.028l0.216,0.862l-0.318,0.079l-0.154-0.613l-0.331,0.083l0.008-0.265L17.678,26.028z"/>
			<path fill="#262261" d="M17.088,26.266l-0.034,0.272c-0.026-0.017-0.053-0.028-0.082-0.041c-0.056-0.019-0.092-0.026-0.12-0.026
				c-0.049,0-0.075,0.009-0.088,0.027c-0.016,0.023-0.007,0.049,0.015,0.058c0.011,0.003,0.022,0.007,0.06,0.007h0.025l0.034,0.004
				c0.009,0,0.017,0,0.026,0.003c0.199,0.021,0.301,0.188,0.206,0.383c-0.064,0.131-0.236,0.221-0.457,0.188
				c-0.041-0.007-0.08-0.017-0.117-0.034l0.025-0.237c0.01,0.003,0.018,0.008,0.027,0.011c0.131,0.053,0.206,0.031,0.225-0.001
				c0.014-0.022,0.005-0.044-0.015-0.049c-0.013-0.004-0.027-0.007-0.053-0.007l-0.055-0.007h-0.014l-0.027-0.003l-0.032-0.002
				c-0.14-0.015-0.228-0.121-0.214-0.275c0.018-0.201,0.226-0.36,0.519-0.313C16.995,26.233,17.042,26.246,17.088,26.266z"/>
			<path fill="#262261" d="M6.596,24.268c-0.167,0.201-0.452,0.226-0.673,0.043c-0.052-0.043-0.096-0.097-0.129-0.155
				c-0.127-0.222-0.044-0.509,0.196-0.635c0.106-0.054,0.234-0.064,0.351-0.023C6.7,23.625,6.808,24.013,6.596,24.268z M6.371,23.88
				c-0.044-0.088-0.15-0.12-0.231-0.076c-0.019,0.012-0.035,0.027-0.048,0.043c-0.044,0.052-0.053,0.124-0.023,0.181
				c0.043,0.087,0.148,0.119,0.23,0.075c0.019-0.01,0.036-0.023,0.05-0.041C6.392,24.008,6.401,23.937,6.371,23.88z"/>
			<path fill="#262261" d="M6.08,23.415l-0.234,0.058c0.002-0.016,0-0.029-0.001-0.043c-0.006-0.032-0.01-0.046-0.018-0.056
				c-0.029-0.036-0.065-0.036-0.102-0.004l-0.017,0.017L5.7,23.397l-0.354,0.372l-0.239-0.225l0.412-0.435
				c0.019-0.021,0.04-0.04,0.062-0.061c0.118-0.116,0.363-0.046,0.46,0.188c0.014,0.036,0.025,0.072,0.033,0.112
				C6.076,23.37,6.078,23.393,6.08,23.415z"/>
			<path fill="#262261" d="M4.76,23.211l-0.202-0.238l0.236-0.32c0.007-0.008,0.025-0.029,0.091-0.096
				c0.009-0.013,0.021-0.023,0.032-0.033c-0.012,0.01-0.023,0.018-0.035,0.026c-0.079,0.057-0.103,0.071-0.112,0.077l-0.356,0.174
				L4.24,22.599l0.229-0.323c0.007-0.009,0.026-0.029,0.094-0.099c0.011-0.012,0.02-0.02,0.031-0.031
				c-0.027,0.021-0.057,0.041-0.085,0.062c-0.042,0.026-0.053,0.033-0.063,0.039l-0.352,0.182l-0.202-0.235l0.856-0.364l0.186,0.218
				l-0.232,0.301c-0.017,0.023-0.042,0.052-0.093,0.104l-0.049,0.051l-0.023,0.021c0.008-0.007,0.018-0.013,0.026-0.019
				c0.097-0.074,0.14-0.1,0.173-0.118l0.335-0.18l0.185,0.216L4.76,23.211z"/>
			<path fill="#262261" d="M4.56,21.593l-0.723,0.512l-0.189-0.268l0.235-0.167l-0.117-0.163l-0.235,0.165l-0.19-0.267l0.724-0.513
				l0.189,0.268l-0.25,0.177L4.122,21.5l0.25-0.175L4.56,21.593z"/>
			<path fill="#262261" d="M4.018,20.813l-0.755,0.465l-0.35-0.57l0.248-0.073l0.144,0.235l0.063-0.039l-0.13-0.212l0.204-0.124
				l0.129,0.21l0.063-0.04l-0.179-0.29l0.25-0.069L4.018,20.813z"/>
			<path fill="#262261" d="M3.644,20.2l-0.781,0.419L2.546,20.03l0.251-0.059l0.13,0.241l0.065-0.034L2.875,19.96l0.209-0.112
				l0.117,0.217l0.068-0.037l-0.163-0.301l0.252-0.056L3.644,20.2z"/>
			<path fill="#262261" d="M3.306,19.564l-0.803,0.375l-0.138-0.298l0.572-0.268l-0.144-0.307l0.261-0.043L3.306,19.564z"/>
			<path fill="#262261" d="M2.964,19.034L2.689,19.05c0.011-0.03,0.017-0.059,0.024-0.089c0.008-0.058,0.009-0.094,0.003-0.122
				c-0.008-0.049-0.024-0.073-0.044-0.079c-0.025-0.014-0.048,0-0.054,0.023c-0.001,0.011-0.001,0.021,0.006,0.058l0.004,0.027
				l0.004,0.033c0,0.008,0.001,0.016,0.002,0.026c0.016,0.2-0.128,0.331-0.338,0.274c-0.142-0.038-0.263-0.192-0.272-0.412
				c-0.001-0.042,0.001-0.082,0.01-0.123l0.239-0.018c-0.002,0.01-0.004,0.018-0.005,0.027c-0.027,0.138,0.009,0.209,0.045,0.221
				c0.024,0.01,0.044-0.003,0.045-0.022c0.001-0.014,0-0.03-0.003-0.055L2.35,18.766l-0.002-0.013l-0.003-0.028l-0.002-0.031
				c-0.011-0.141,0.075-0.246,0.231-0.263c0.2-0.021,0.396,0.154,0.404,0.45C2.979,18.933,2.976,18.982,2.964,19.034z"/>
		</g>
		<circle fill="#8BC53F" cx="14.367" cy="13.942" r="11.814"/>
		<path fill="#262261" d="M14.367,1.723c-6.748,0-12.219,5.472-12.219,12.219c0,6.75,5.471,12.22,12.219,12.22
			c6.749,0,12.216-5.47,12.216-12.22C26.583,7.195,21.116,1.723,14.367,1.723z M14.367,25.757c-6.525,0-11.815-5.291-11.815-11.815
			c0-6.523,5.29-11.812,11.815-11.812c6.524,0,11.814,5.289,11.814,11.812C26.181,20.466,20.891,25.757,14.367,25.757z"/>
		<g>
			<path fill="#262261" d="M20.951,16.065c0.03-0.027,0.07-0.086,0.159-0.185c0.109-0.127,0.228-0.277,0.239-0.416
				c0.003-0.049-0.007-0.096-0.04-0.132c-0.045-0.047-0.092-0.071-0.14-0.071c-0.155,0.008-0.26,0.214-0.34,0.404
				c-0.069,0.169-0.087,0.308-0.101,0.35c-0.239,0.265-0.302,0.295-0.302,0.295c-0.006,0-0.004,0-0.006-0.003
				c-0.001-0.007-0.007-0.02-0.005-0.041c0.005-0.146,0.161-0.572,0.227-0.621c0.055-0.042,0.074-0.103,0.078-0.145
				c0.001-0.038-0.005-0.063-0.007-0.066l-0.008-0.024l-0.023,0.002c0,0-0.057-0.007-0.063-0.007c-0.036,0-0.099-0.002-0.151-0.052
				c-0.02-0.019-0.045-0.031-0.067-0.031c-0.044,0-0.067,0.035-0.081,0.059c-0.012,0.018-0.017,0.034-0.021,0.042
				c-0.099,0.19-0.49,0.634-0.601,0.786c0-0.001,0-0.005,0-0.008c0.008-0.152,0.155-0.451,0.302-0.702
				c0.146-0.251,0.289-0.464,0.289-0.464c0-0.003,0.206-0.264,0.226-0.422c0.001-0.03-0.006-0.063-0.029-0.083
				c-0.018-0.017-0.037-0.025-0.059-0.025c-0.105,0.008-0.2,0.127-0.265,0.239c-0.06,0.108-0.101,0.211-0.106,0.228
				c-0.016,0.028-0.189,0.366-0.402,0.704c-0.108,0.177-0.202,0.359-0.314,0.487c-0.11,0.133-0.215,0.213-0.274,0.211
				c-0.005,0-0.012-0.002-0.016-0.002c-0.033-0.007-0.05-0.043-0.046-0.136c0.013-0.196,0.156-0.564,0.294-0.874
				c0.141-0.312,0.274-0.569,0.276-0.569c-0.002-0.001,0.113-0.169,0.125-0.28c0-0.021-0.003-0.049-0.022-0.066
				c-0.021-0.018-0.042-0.027-0.064-0.027c-0.08,0.003-0.154,0.069-0.198,0.136c-0.04,0.064-0.066,0.125-0.07,0.139
				c-0.026,0.049-0.525,0.975-0.567,1.528c-0.014,0.185,0.05,0.357,0.191,0.41c0.01,0.003,0.025,0.01,0.054,0.01
				c0.08,0,0.241-0.056,0.513-0.386c-0.002,0.045-0.002,0.098,0,0.144c0.009,0.06,0.005,0.11,0.06,0.135
				c0.004,0.002,0.008,0.002,0.014,0.002c0.034-0.004,0.055-0.012,0.085-0.037c0.157-0.156,0.634-0.749,0.717-0.871
				c0.002,0.001,0.006,0.003,0.006,0.003c-0.078,0.113-0.178,0.442-0.194,0.675c-0.007,0.081,0.014,0.163,0.075,0.221
				c0.006,0.006,0.025,0.018,0.06,0.018c0.059-0.002,0.227-0.144,0.356-0.266L20.951,16.065 M21.018,15.697
				c0.02-0.047,0.045-0.094,0.065-0.127c0.01-0.017,0.021-0.03,0.026-0.036c0.007-0.007,0.009-0.007,0.013-0.007c0,0,0,0.001,0,0.003
				c0,0.027-0.054,0.114-0.111,0.186C21.014,15.708,21.016,15.702,21.018,15.697z"/>
			<path fill="#262261" d="M23.135,16.444c0.037,0.06,0.168,0.218,0.425-0.008c0.021-0.018,0.037-0.041,0.054-0.059
				c0.001,0.011,0.003,0.021,0.008,0.035c0.019,0.048,0.046,0.111,0.105,0.135c0,0,0.278,0.082,0.392-0.122
				c0.119-0.217,0.264-0.45,0.352-0.612c0.047-0.074,0.115-0.155,0.155-0.092c0.066,0.111-0.304,0.539-0.169,0.71
				c0,0,0.088,0.277,0.509-0.003c0.002,0.015,0.002,0.015,0.007,0.026c0.014,0.043,0.049,0.096,0.11,0.098
				c0.007,0.001,0.014,0.001,0.021,0.001c0.304-0.013,1.019-0.382,1.252-0.551l0.02-0.016l0.027-0.245l-0.094,0.013
				c-0.243,0.198-0.862,0.525-1.053,0.575c-0.023,0.006-0.044,0.01-0.059,0.01c-0.065-0.004-0.06-0.022-0.062-0.057
				c0-0.011,0.003-0.022,0.005-0.029c0.026-0.026,0.119-0.118,0.211-0.232c0.11-0.137,0.224-0.298,0.231-0.44
				c0.005-0.047-0.01-0.097-0.042-0.13c-0.045-0.046-0.094-0.068-0.142-0.067c-0.158,0.013-0.254,0.223-0.333,0.414
				c-0.065,0.167-0.106,0.33-0.116,0.377c0,0-0.051,0.162-0.244,0.179c-0.194,0.013,0.078-0.428,0.078-0.428s0.136-0.243,0.033-0.357
				c-0.058-0.064-0.118-0.082-0.173-0.081c0.021-0.039,0.037-0.069,0.037-0.072c0,0,0.025-0.068,0.005-0.074
				c-0.021-0.008-0.12,0.038-0.168,0.042c-0.041,0.002-0.079,0.062-0.079,0.062l-0.468,0.832c-0.088,0.108-0.153,0.025-0.153,0.025
				s-0.014-0.022-0.01-0.046c0.002-0.155,0.251-0.528,0.345-0.653c0.036-0.048,0.051-0.089,0.053-0.128
				c0.003-0.047-0.023-0.08-0.047-0.093c-0.021-0.018-0.04-0.021-0.043-0.022l-0.006-0.001l-0.007,0.001
				c-0.58,0.123-0.92,0.652-0.945,0.696c0,0-0.021,0.035-0.042,0.088C23.115,16.144,23.055,16.32,23.135,16.444 M25.258,15.825
				c0.02-0.05,0.041-0.097,0.061-0.131c0.012-0.018,0.02-0.03,0.028-0.038c0.005-0.005,0.006-0.006,0.011-0.006c0,0,0,0.002,0,0.004
				c0.002,0.026-0.053,0.115-0.107,0.187C25.253,15.834,25.255,15.83,25.258,15.825z M23.623,16.039
				c-0.047,0.076-0.101,0.146-0.142,0.194c-0.074,0.087-0.138,0.074-0.138,0.074c-0.014-0.021-0.015-0.039-0.015-0.061
				c0.001-0.041,0.023-0.09,0.044-0.131c0.007-0.011,0.051-0.087,0.127-0.177c0.074-0.089,0.223-0.188,0.338-0.242
				C23.787,15.782,23.705,15.917,23.623,16.039z"/>
			<path fill="#262261" d="M22.872,16.244c-0.022-0.128,0.098-0.313,0.157-0.416c0.066-0.116-0.02-0.19-0.02-0.19
				c-0.11-0.098-0.302,0.038-0.302,0.038c0.391-0.335,0.542-0.759,0.571-0.863c0.029-0.104-0.038-0.158-0.038-0.158
				c-0.042-0.03-0.094-0.064-0.208,0.068c-0.111,0.125-0.459,0.792-0.549,0.948c-0.6,0.785-0.665,0.588-0.665,0.588
				c-0.006-0.001,0-0.046,0-0.086c0.005-0.066,0.048-0.186,0.105-0.318c0.226-0.261,0.377-0.478,0.477-0.649l0.134-0.003
				c0.001-0.001,0.057-0.001,0.118-0.023c0.132-0.042,0.121-0.134,0.121-0.134c-0.006-0.021-0.027-0.039-0.046-0.046
				c-0.022-0.012-0.049-0.015-0.075-0.015c-0.04-0.004-0.072,0-0.074,0l-0.064,0.003c0.06-0.128,0.08-0.215,0.097-0.258
				c0.035-0.107,0.02-0.146,0.017-0.162c-0.002-0.013-0.021-0.066-0.059-0.125c-0.036-0.06-0.088-0.017-0.088-0.017
				c-0.2,0.152-0.359,0.373-0.481,0.588c-0.133,0.003-0.319,0.003-0.479,0c-0.229-0.003-0.437-0.014-0.459-0.014
				c-0.003,0-0.012,0-0.019-0.001c-0.02-0.002-0.101-0.008-0.133-0.002c0,0-0.085,0.047,0.02,0.195l0.008,0.007l0.014,0.003
				c0.018,0,0.038,0.003,0.059,0.004c0.221,0.015,0.677,0.02,0.881,0.02c-0.099,0.206-0.159,0.381-0.184,0.459
				c-0.212,0.269-0.397,0.415-0.484,0.496c0,0-0.28,0.238-0.271-0.133l-0.116-0.045l-0.134,0.181l0.023,0.007
				c0,0,0.043,0.357,0.299,0.354c0.129-0.005,0.347-0.188,0.489-0.33c0.052-0.057,0.104-0.108,0.144-0.155
				c-0.017,0.058-0.03,0.122-0.033,0.186c-0.01,0.112,0.014,0.234,0.127,0.27c0.002,0,0.006,0.001,0.015,0.001
				c0.092,0.007,0.222-0.086,0.321-0.172c0,0,0.013-0.022,0.013,0.019c0,0.07,0.039,0.128,0.061,0.163
				c0.026,0.048,0.066-0.021,0.066-0.021c0.062-0.112,0.347-0.435,0.402-0.488s0.088-0.069,0.088-0.069
				c0.056-0.023,0.026,0.051,0.026,0.051s-0.098,0.218-0.032,0.398c0.064,0.179,0.264,0.134,0.264,0.134
				c0.033-0.005,0.125-0.059,0.176-0.095l0.054-0.145l-0.063-0.151c-0.085,0.103-0.146,0.14-0.189,0.154
				C22.874,16.31,22.872,16.244,22.872,16.244z M22.111,15.213l0.075-0.005c-0.031,0.046-0.073,0.094-0.122,0.144
				C22.064,15.352,22.077,15.292,22.111,15.213z M22.306,14.949c0,0-0.002,0.02-0.012,0.046l-0.061,0.003
				c0.017-0.023,0.034-0.042,0.054-0.064C22.288,14.934,22.311,14.916,22.306,14.949z"/>
		</g>
		<path fill="#262261" d="M17.567,3.153l-0.166-0.044c-1.387-0.378-3.694-0.87-3.697-0.872l-0.658-0.14l0.109,0.664
			c0,0,0.007,0.039,0.019,0.109c0.041,0.254,0.149,0.976,0.273,1.917l-0.041-0.041l-0.05-0.03c-0.003,0-0.029-0.015-0.072-0.039
			c-0.166-0.218-0.284-0.337-0.295-0.348l-0.042-0.043l-0.052-0.029c-0.025-0.008-1.843-1.085-3.491-1.314L9.299,2.927L9.198,2.96
			c-0.006,0.002-0.32,0.107-0.704,0.265C8.241,3.332,7.963,3.454,7.708,3.603L7.44,3.299L7.137,3.427
			c-0.081,0.028-4.08,1.764-6.441,8.226C0.192,13.034,0,14.196,0,15.166c-0.004,2.478,1.268,3.631,1.548,3.847
			c0.268,0.325,0.484,0.482,0.511,0.498l0.089,0.061l4.216,0.601c-0.107,0.762-0.201,1.721-0.201,2.732
			c0,0.973,0.086,1.993,0.346,2.939c0.258,0.944,0.693,1.825,1.413,2.47l0.089,0.08l0,0c0.115,0.134,0.237,0.26,0.37,0.379
			l0.09,0.079l0.116,0.027c0.016,0.001,2.168,0.487,3.765,0.491c0.252,0,0.492-0.011,0.716-0.042
			c0.557-0.091,1.035-0.469,1.547-1.018c1.504-1.662,3.185-5.172,3.647-9.502c0.191-1.809,0.289-3.459,0.32-5.012l0.025-0.464
			c0.378-0.156,0.782-0.222,1.197-0.222c0.802-0.002,1.624,0.251,2.239,0.508c0.308,0.129,0.564,0.258,0.74,0.354
			c0.088,0.048,0.159,0.087,0.203,0.114c0.044,0.027,0.064,0.04,0.064,0.04l0.286,0.185l0.319-0.279
			c0.038-0.038,0.114-0.104,0.191-0.186c0.354-0.367,0.973-1.169,0.973-2.376c0-0.261-0.028-0.536-0.095-0.827l-0.01-0.039
			l-0.013-0.036c-0.002-0.008-0.338-0.834-0.839-1.833c-0.231-0.458-0.493-0.952-0.776-1.424c0.294,0.194,0.609,0.441,0.918,0.745
			l0.247,0.238l0.297-0.165c0.039-0.022,0.333-0.19,0.625-0.586c0.289-0.392,0.566-1.017,0.563-1.883c0-0.14-0.006-0.286-0.021-0.438
			l-0.139-1.43l-0.457-0.459l-0.712,1.232c-0.236-0.167-0.631-0.429-1.126-0.691c-0.82-0.431-1.918-0.879-3.086-0.882
			c-0.232,0-0.469,0.019-0.705,0.061l-0.184,0.032l-0.106,0.15c-0.006,0.006-0.242,0.329-0.5,0.759
			c-0.082,0.142-0.169,0.293-0.25,0.449c-0.138-0.4-0.323-0.665-0.334-0.687l-0.095-0.142L17.567,3.153z M18.224,5.908l0.078,0.031
			c0.028,0.03,0.087,0.094,0.148,0.174c0.306,0.386,0.827,1.184,1.254,1.954c0.216,0.385,0.408,0.764,0.543,1.081
			c0.017,0.037,0.032,0.073,0.045,0.11c-0.259-0.049-0.599-0.103-1.046-0.101c-0.223,0-0.476,0.013-0.762,0.043
			C18.419,8.08,18.33,6.991,18.224,5.908z M10,8.348C10,9.434,9.783,10.787,8.966,11.954c-0.907,1.302-2.059,2.375-2.981,3.118
			c-0.296,0.238-0.567,0.443-0.8,0.609c-0.004-0.069-0.006-0.141-0.006-0.211c-0.006-1.296,0.613-2.875,1.25-4.103
			c0.316-0.614,0.635-1.143,0.872-1.517c0.054-0.083,0.103-0.157,0.146-0.225c0.113,0.055,0.223,0.095,0.322,0.13
			c0.232,0.079,0.41,0.114,0.425,0.117L8.7,9.969l0.038-0.514C8.76,9.151,8.884,8.858,9.081,8.581
			c0.235-0.335,0.574-0.635,0.896-0.869C9.991,7.908,10,8.122,10,8.348z M10.952,23.314c0.008-1.813,0.493-4.135,2.513-6.296
			c-0.273,1.959-0.922,4.963-2.435,7.527C10.984,24.175,10.952,23.76,10.952,23.314z"/>
		<g>
			<path fill="#F6921E" d="M17.704,12.574c2.198-1.168,5.137,0.704,5.137,0.704c0.026-0.043,1.41-1.067,0.981-2.996
				c0,0-1.335-3.272-2.6-4.593c0,0,1.347,0.307,2.648,1.579c0,0,1.115-0.614,0.936-2.463c-0.151,0.261-0.432,0.3-0.432,0.3
				s-2.521-2.002-4.799-1.604c0,0-0.916,1.257-1.053,2.031c0.334,0.132,2.442,3.462,2.379,4.278c-0.586,0.02-1.113-0.44-3.278-0.015
				c-0.081-1.897-0.247-3.687-0.437-5.5c0.33,0.15,0.33,0.323,0.39,0.363c0.06,0.039,0.1,0,0.1,0
				c-0.04-0.578-0.395-1.108-0.395-1.108c-1.364-0.372-3.673-0.865-3.673-0.865s0.006,0.038,0.018,0.111
				c0.114,0.723,0.768,5.089,0.768,7.734l-0.869,0.439c1.067-4.116-0.861-6.315-0.861-6.315s-1.818-1.055-3.321-1.258
				c0,0-1.224,0.407-1.713,0.811L7.314,3.851c0,0-3.874,1.635-6.187,7.961c-1.853,5.069,0.733,6.859,0.733,6.859l4.51,0.644
				c0,0,0.249-0.104,0.661-0.334c-0.287,1.416-1.196,6.852,1.196,8.987c0,0,2.884,0.646,4.317,0.444
				c1.434-0.204,4.208-4.469,4.803-10.111c0.188-1.799,0.286-3.441,0.315-4.983L17.704,12.574z M4.617,16.615
				c-1.51-2.873,2.244-8.082,2.244-8.082c0.315,0.304,0.96,0.429,0.96,0.429c0.12-1.635,2.396-2.659,2.396-2.659
				s0.938,3.319-0.874,5.915C7.456,14.921,4.617,16.615,4.617,16.615z M10.56,26.074c0,0-2.541-6.432,3.557-11.142
				C14.117,14.932,13.978,21.579,10.56,26.074z"/>
		</g>
	</g>
</svg>
