<?xml version="1.0" encoding="utf-8"?>
<!-- Generator: Adobe Illustrator 25.2.3, SVG Export Plug-In . SVG Version: 6.00 Build 0)  -->
<svg version="1.1" id="Layer_1" xmlns="http://www.w3.org/2000/svg" xmlns:xlink="http://www.w3.org/1999/xlink" x="0px" y="0px"
	 viewBox="100 200 400 400" height="45" width="45" style="enable-background:new 0 0 100 100;" xml:space="preserve">
<style type="text/css">
	.st0{fill:#50CC1A;}
</style>
<g>
	<g>
		<path class="st0" d="M150.53,467.13c-2.4-0.07-2.4-0.07-3.88,0.95c-0.25,0.46-0.53,0.95-0.7,1.26c-0.37,2.46,0.31,4.49,1.62,6.7
			c0.3,0.22,0.74,0.57,1.13,0.99c0.83,0.89,1.88,1.43,3.11,1.58c1.02,0.12,1.83-0.22,2.39-1.1c0.61-0.96,0.73-2,0.71-3.12
			C154.85,471.03,153.29,468.64,150.53,467.13z M365.92,553.8c-1.64-1.83-3.89-2.58-6.21-2.72c-1.65-0.1-3.38,0.22-5,0.8
			c-2.56,0.92-4.89,2.22-6.73,4.25c-1.74,1.91-2.16,4.56-1.02,6.78c1.1,2.13,3.05,3.26,5.32,3.62c3.72,0.59,7-0.67,9.99-2.82
			c1.15-0.83,1.93-1.94,2.77-3.07c1.39-1.86,1.95-3.69,1.09-5.88C366.02,554.48,366,554.16,365.92,553.8z M334.57,559.97
			c-0.41-0.04-0.81-0.12-1.23-0.19c-0.39,0.1-0.78,0.21-1.19,0.29c-2.93,0.62-5.17,2.19-6.73,4.75c-1.4,2.3-0.43,5.7,1.94,6.58
			c0.67,0.25,1.37,0.42,2.1,0.44c3.02,0.07,5.51-1.12,7.68-3.13c1.61-1.48,2.62-3.19,2.27-5.35
			C338.56,561,336.78,560.17,334.57,559.97z M148.41,368.83c-0.93-0.33-1.72-0.15-2.55,0.21c-0.32,0.14-0.69,0.2-1,0.28
			c-0.82,0.96-1.62,1.94-1.77,3.11c-0.26,2.01-0.24,4.05,0.57,5.99c0.81,1.97,1.8,3.76,4.29,4.12c0.16-0.05,0.4-0.14,0.65-0.2
			c2.24-0.51,3.66-1.9,4.16-4.1c0.62-2.71-0.08-5.24-1.56-7.53C150.57,369.73,149.53,369.22,148.41,368.83z M362.27,237.45
			c1.89,0.19,3.69-0.24,5.46-0.9c1.97-0.74,3.35-3.05,2.94-5.09c-0.47-2.32-2.76-4.2-4.62-4.61c-1.35-0.3-2.77-0.44-4.17-0.29
			c-2.56,0.27-5.04,0.74-6.67,3.25c-0.02,0.12-0.02,0.39-0.11,0.62c-0.56,1.42-0.06,2.63,0.74,3.77
			C357.4,236.42,359.72,237.2,362.27,237.45z M385.26,241.83c2.08-0.16,2.75-0.74,3.32-2.88c-0.29-0.71-0.46-1.49-1.04-2.16
			c-1.07-1.24-2.46-1.7-3.99-1.8c-0.77-0.05-1.57-0.18-2.32,0.11c-1.32,0.52-2.09,1.47-2.16,2.89c0.12,0.92,0.62,1.65,1.06,2.36
			C382.67,241.87,383.12,242,385.26,241.83z M137.36,357.29c1.17,1.88,2.42,3.62,4.61,4.66c1.01,0,1.99,0.1,2.96-0.2
			c2.91-0.89,4.62-3.12,5.5-5.75c1.11-3.31,1.92-6.78,1.58-10.36c-0.19-2-0.31-4.02-1.14-5.91c-1.14-2.62-2.9-4.61-5.61-5.67
			c-0.9-0.35-1.86-0.42-2.75-0.12c-2.12,0.73-3.85,2.04-5.08,3.93c-1.47,2.26-2.05,4.85-2.46,7.45c-0.29,1.84-0.31,3.76,0.06,5.6
			C135.46,353.16,136.12,355.31,137.36,357.29z M310.99,228.83c0.27,0.15,0.5,0.26,0.72,0.39c1.29,0.81,2.65,1.31,4.2,1.48
			c1.26,0.14,2.47-0.02,3.71-0.03c3.95-0.05,7.46-1.54,10.93-3.2c1.43-0.69,2.29-1.96,2.84-3.38c0.25-0.64,0.56-1.36,0.34-2.12
			c-0.39-1.31-0.9-2.54-2.08-3.38c-1.59-1.13-3.33-1.93-5.28-2.06c-3.76-0.25-7.47,0.01-10.94,1.68c-2.22,1.06-4.21,2.39-5.53,4.57
			c-0.8,1.33-0.87,2.62-0.19,3.96C310.08,227.48,310.57,228.16,310.99,228.83z M170.96,491.04c-1.49-2.27-3.11-4.32-5.5-5.77
			c-1.81-1.1-3.66-1.62-5.73-1.6c-2.02,0.02-3.37,0.97-4.26,2.79c-0.49,1-0.61,2.06-0.9,3.09c-0.42,1.5-0.2,2.91,0.43,4.32
			c1.11,2.5,2.55,4.71,4.75,6.4c2.45,1.88,5.18,2.94,8.26,3.1c0.26,0.01,0.52,0.06,0.78,0.03c1.41-0.14,2.66-0.63,3.3-1.97
			c0.85-1.76,1.2-3.6,0.79-5.59C172.52,494.12,171.94,492.54,170.96,491.04z M463.29,423.59c-0.12-2.06-0.4-4.12-0.98-6.12
			c-0.57-1.99-1.08-3.99-1.84-5.93c-0.7-1.79-1.59-3.49-2.41-5.22c-0.85-1.79-2.05-3.36-3.16-4.99c-1.72-2.53-3.47-5.05-5.2-7.57
			c-1.21-1.76-2.14-3.64-2.78-5.69c-0.47-1.53,0.02-2.76,0.98-3.88c0.53-0.62,1.4-0.9,1.78-0.49c0.57,0.62,1.37,0.64,2.03,0.99
			c1.68,0.89,3.36,0.33,4.47-1.25c1.01-1.44,1.57-3.01,1.55-4.78c-0.01-1.09-0.14-2.17-0.21-3.26c-0.16-2.6-1.25-4.91-2.12-7.27
			c-0.9-2.42-2.35-4.59-3.79-6.72c-1.78-2.62-3.82-5.05-6.04-7.32c-2.47-2.52-5.17-4.8-7.77-7.19c-1.07-0.98-2.17-1.92-3.19-2.95
			c-2.3-2.32-4.65-4.57-6.52-7.31c-2.15-3.18-3.71-6.57-4.71-10.24c-0.15-0.55-0.25-1.11,0.06-1.69c1.79,0,3.54,0.14,5.27,0.5
			c2.62,0.54,4.99,1.69,7.28,3.04c1.75,1.03,3.34,2.31,4.69,3.79c1.99,2.18,3.84,4.49,4.97,7.29c0.44,1.1,0.9,2.21,1.49,3.24
			c0.89,1.55,1.29,3.27,1.78,4.93c0.46,1.58,0.74,3.21,1.39,4.74c0.65,1.52,1.24,3.07,2,4.53c0.91,1.75,2.07,3.33,3.51,4.72
			c1.24,1.2,2.52,2.23,4.17,2.81c1.88,0.66,3.71,0.9,5.53-0.12c0.68-0.38,1.52-0.38,2.09-0.99c1.25-1.34,2.28-2.81,2.63-4.67
			c0.59-3.12,0.44-6.18-0.54-9.21c-0.21-0.65-0.6-1.28-0.72-2.41c1.47,1.38,2.91,1.57,4.5,1.22c0.71-0.55,1.5-1.1,1.97-1.92
			c0.7-1.25,1.35-2.47,1.5-4.01c0.21-2.21,0.25-4.36-0.4-6.46c-0.97-3.13-2.42-6.01-4.54-8.59c-2.5-3.03-5.36-5.62-8.56-7.86
			c-2.85-2-5.93-3.62-8.85-5.5c-1.61-1.04-3.3-1.98-4.81-3.14c-3.05-2.35-5.71-5.08-7.82-8.34c-1.23-1.91-2.84-3.56-4.53-5.08
			c-2.4-2.15-5.37-3.27-8.42-4.13c-1.78-0.5-3.61-0.77-5.47-0.96c-2.68-0.28-5.36-0.35-8.04-0.49c-2.48-0.12-4.97-0.28-7.46-0.39
			c-0.25-0.01-0.51-0.1-0.76-0.15c-2.7-0.52-5.35-1.21-7.99-2c-2.25-0.68-4.43-1.51-6.32-2.89c-2.1-1.53-3.56-3.49-3.14-6.32
			c0.01-0.1,0.05-0.2,0.07-0.3c0.4-0.67,0.8-1.33,1.15-1.91c1.96-1.42,3.87-1.41,5.92-0.38c1.68,0.84,3.27,1.8,4.77,2.92
			c1.46,1.09,3.01,2.05,4.67,2.78c1.13,0.49,2.36,0.89,3.58,0.99c1.93,0.16,3.84-0.22,5.54-1.19c1.38-0.79,2.89-1.13,4.39-1.49
			c0.85-0.2,1.78-0.24,2.63,0.02c2.21,0.67,4.17,1.77,5.86,3.39c2.03,1.94,3.69,4.21,5.66,6.21c1.85,1.88,3.98,3.33,6.58,3.97
			c2.08,0.52,3.92-0.34,4.95-2.21c1.26-2.28,0.88-4.68,0.34-6.98c-0.51-2.16-1.59-4.17-2.68-6.1c-0.98-1.75-2.07-3.44-3.45-4.96
			c-1.27-1.39-2.64-2.63-4.06-3.85c-2.7-2.33-5.87-3.89-9.02-5.45c-1.15-0.57-2.35-1.07-3.6-1.43c-1.78-0.51-3.54-1.13-5.31-1.69
			c-2.08-0.65-4.09-1.46-6.11-2.28c-3.05-1.23-5.83-2.9-8.46-4.85c-1.75-1.3-3.51-2.58-5.2-3.95c-1.02-0.82-2.22-1.33-3.3-2.06
			c-1.58-1.07-3.24-2.07-4.99-2.85c-4.15-1.85-8.53-2.87-13.1-2.89c-3.06-0.01-6.12-0.01-9.13,0.71c-2.35,0.56-4.72,1.03-7.05,1.74
			c-1.58,0.49-3.12,1.12-4.72,1.55c-3.3,0.88-6.67,1.42-9.99,2.25c-0.83,0.21-1.72,0.32-2.61,0.39c-2.58,0.2-4.91-0.61-7.22-1.56
			c-1.64-0.67-2.44-1.99-2.76-3.75c0.14-0.36,0.31-0.79,0.46-1.19c0.62-0.27,0.94-0.83,1.54-1.11c1.85-0.87,3.69-0.83,5.58-0.26
			c1.24,0.37,2.46,0.81,3.71,1.13c1.7,0.45,3.41,0.88,5.21,0.71c2.11-0.2,3.8-1.61,4.08-3.27c0.26-1.57-0.11-2.94-1.23-4.17
			c-1.9-2.08-4.28-3.41-6.74-4.66c-1.34-0.68-2.8-1.02-4.28-1.33c-2.02-0.43-4.06-0.71-6.11-0.99c-2.36-0.33-4.69-0.2-6.96,0.24
			c-2.31,0.44-4.6,1.11-6.85,1.89c-3.48,1.21-6.59,3.03-9.49,5.2c-2.99,2.23-5.7,4.8-8.39,7.38c-2.73,2.62-5.3,5.4-8.26,7.77
			c-2.18,1.75-4.16,3.72-6.49,5.31c-1.36,0.93-2.69,1.9-4.08,2.8c-1.13,0.74-2.35,1.3-3.49,2.03c-1.04,0.66-2.22,1.11-3.37,1.58
			c-2.87,1.18-5.92,1.81-8.87,2.76c-3.44,1.12-6.65,2.67-9.53,4.76c-4.04,2.94-7.62,6.43-10.72,10.38
			c-1.31,1.67-2.44,3.46-3.48,5.32c-2.09,3.72-3.48,7.75-5.13,11.66c-1.29,3.06-2.64,6.06-4.58,8.78c-1.54,2.15-3.07,4.29-4.99,6.13
			c-0.75,0.72-1.45,1.49-2.24,2.17c-2.11,1.8-4.45,3.05-7.35,2.85c-1.05-0.07-1.86-0.59-2.59-1.27c-0.27-0.25-0.53-0.58-0.45-0.96
			c0.29-1.41,0.4-2.9,1.58-3.95c1.2-1.07,2.52-1.98,3.92-2.79c2.33-1.35,4.73-2.6,7-4.06c2.69-1.72,4.71-4.01,6.17-6.83
			c0.67-1.27,0.9-2.67,0.96-4.06c0.05-1.19-0.55-2.29-1.07-3.38c-0.82-1.71-2.22-2.37-4.03-2.3c-1.25,0.04-2.5,0.12-3.74,0.17
			c-0.74,0.03-1.48,0-1.97-0.77c-0.11-0.57-0.21-1.18-0.04-1.84c0.43-0.67,0.82-1.42,1.34-2.05c1.56-1.89,3.33-3.6,5.35-4.96
			c2.44-1.65,5.1-2.96,7.74-4.29c3.3-1.66,6.79-2.83,10.2-4.19c3-1.2,5.91-2.51,8.62-4.24c0.65-0.42,1.29-0.89,1.85-1.43
			c1.08-1.04,2.16-2.12,2.69-3.57c1-2.76,0.15-5.32-1.52-7.42c-1.64-2.07-3.9-3.51-6.58-4.12c-0.94-0.21-1.76-0.63-2.17-1.64
			c0.35-1.04,1.05-1.85,1.97-2.48c1.9-1.32,4-2.23,6.24-2.74c3.18-0.72,6.36-1.41,9.57-2.01c2.81-0.52,5.62-0.9,8.46-1.06
			c2.9-0.16,5.81-0.24,8.67-0.74c1.93-0.33,3.88-0.61,5.64-1.59c2.63-1.47,3.84-4.59,2.88-7.46c-0.44-1.34-1.1-2.55-1.85-3.74
			c-1.45-2.3-3.52-3.7-5.97-4.75c-1.35-0.58-2.74-0.94-4.12-1.37c-2.55-0.78-5.16-1.1-7.82-0.95c-2.05,0.11-4.07,0.46-6.1,0.81
			c-3.39,0.58-6.62,1.52-9.72,3.07c-3.28,1.65-6.18,3.81-9.03,6.07c-2.39,1.9-4.69,3.93-7.08,5.83c-1.71,1.36-3.61,2.55-5.69,3.14
			c-2.43,0.68-4.8,1.64-7.37,1.81c-1.91,0.13-3.73,0.78-5.56,1.33c-2.65,0.79-5.14,1.92-7.37,3.58c-0.95,0.71-1.96,1.38-2.82,2.18
			c-1.63,1.53-3.31,3.03-4.73,4.75c-1.51,1.83-2.87,3.79-4.11,5.84c-0.29,0.49-0.48,1.02-0.8,1.5c-1.68,2.5-3.15,5.1-3.74,8.11
			c-0.13,0.65-0.38,1.3-0.67,1.9c-0.38,0.81-0.6,1.65-0.79,2.51c-0.7,3.29-1.13,6.62-1.6,9.95c-0.33,2.32-0.95,4.55-2,6.66
			c-0.56,1.12-1.32,2.1-1.98,3.15c-0.71,1.13-1.64,1.99-3.06,2.09c-1.37-0.68-2.03-1.66-2.05-3.19c-0.03-2.49,0.67-4.81,1.7-7.03
			c0.91-1.97,1.92-3.89,2.9-5.83c0.53-1.05,0.69-2.17,0.68-3.32c-0.01-0.92-0.41-1.69-1.03-2.36c-1.24-1.34-2.87-1.68-4.54-1.54
			c-2.61,0.23-4.94,1.41-7.24,2.58c-1.46,0.74-2.55,1.95-3.75,3c-1.6,1.4-2.98,3.04-4,4.91c-0.87,1.59-1.65,3.23-2.44,4.86
			c-0.27,0.56-0.54,1.13-0.69,1.73c-0.45,1.91-1.06,3.77-1.41,5.72c-0.48,2.66-0.93,5.3-0.84,8.02c0.05,1.35,0.14,2.68,0.34,4.02
			c0.31,2.09,0.67,4.17,1.2,6.22c1.07,4.15,2.41,8.24,3.07,12.48c0.35,2.27,0.41,4.57-0.72,6.7c-0.76,1.45-1.65,2.77-3.39,3.15
			c-0.96-0.35-1.89-0.81-2.26-1.79c-0.42-1.11-0.64-2.28-0.32-3.49c0.33-1.22,0.32-2.46,0.15-3.63c-0.52-0.61-0.76-1.36-1.57-1.68
			h-1.67c-0.51,0.54-1.29,0.68-1.8,1.2c-1.66,1.66-2.99,3.53-3.73,5.79c-0.77,2.33-1.15,4.72-1.13,7.17c0.01,1.3,0.06,2.61-0.03,3.9
			c-0.19,2.73,0.25,5.4,0.76,8.04c0.97,5,2.78,9.74,4.82,14.39c0.85,1.94,1.87,3.8,2.81,5.69c1.41,2.84,3.15,5.47,4.86,8.11
			c1.47,2.26,3.15,4.38,4.64,6.61c1.18,1.76,2.2,3.62,2.91,5.63c0.54,1.56,0.79,3.11,0.04,4.54c-0.82,0.79-1.59,1.39-2.67,1.45
			c-1.01-0.25-1.83-0.75-2.53-1.61c-1.71-2.08-2.51-4.47-2.82-7.09c-0.33-2.79-0.97-5.49-2.56-7.9c-1.1-1.67-2.62-2.69-4.5-3.08
			c-1.37-0.29-2.76-0.16-4.07,0.63c-0.85,0.51-1.38,1.23-1.97,1.94c-1.28,1.53-2.21,3.24-2.27,5.31c-0.11,4.53,1.94,8.19,4.75,11.48
			c0.9,1.06,1.92,2.03,2.82,3.11c1.79,2.14,3.1,4.51,3.77,7.23c0.16,0.65,0.36,1.3,0.44,1.96c0.19,1.48,0.72,2.89,0.81,4.41
			c0.09,1.71,0.72,3.37,1.54,4.86c0.68,1.25,1.52,2.44,2.46,3.56c1.54,1.83,3.4,3.12,5.61,4.02c1.56,0.63,3.17,0.97,4.81,1.15
			c3.28,0.36,5.5,2.17,7.01,4.97c0.39,0.72,0.77,1.48,0.75,2.35c-0.04,1.4-0.01,2.8-0.23,4.2c-0.37,2.41-0.13,4.73,1.18,6.9
			c0.98,1.62,2.05,3.08,3.59,4.24c1.71,1.28,3.46,2.46,5.38,3.38c3.22,1.54,6.07,3.59,8.5,6.19c1.44,1.54,2.37,3.36,2.51,5.54
			c0.08,1.29,0.03,2.49-0.87,3.53c-1.7,0.81-3.03,0.63-4.37-0.6c-0.81-0.75-1.47-1.61-1.98-2.59c-0.71-1.38-1.5-2.74-2.1-4.17
			c-1.35-3.19-3.56-5.56-6.54-7.23c-0.95-0.53-2.04-0.83-3.14-0.42c-0.92,0.34-1.81,0.78-2.59,1.39c-1.09,0.85-1.64,2.04-1.86,3.32
			c-0.4,2.33,0.27,4.42,1.87,6.17c0.58,0.63,0.96,1.33,1.24,2.07c-0.25,0.86-0.49,1.67-1.56,1.79c-0.48-0.09-1-0.14-1.49-0.28
			c-2.32-0.69-4.2-2.08-5.66-3.94c-1.15-1.46-1.9-3.21-2.56-4.96c-0.99-2.62-1.68-5.32-2.19-8.08c-0.37-1.98-0.9-3.93-1.22-5.92
			c-0.42-2.6-0.87-5.2-1.63-7.72c-0.84-2.78-1.74-5.55-3.47-7.94c-0.82-1.13-1.66-2.26-2.58-3.31c-1.06-1.22-2.37-2.23-3.74-3
			c-1.37-0.77-2.88-1.37-4.45-1.79c-3.2-0.85-6.32-1.88-9.03-3.95c-1.7-1.29-3.03-2.85-3.99-4.67c-2.48-4.66-3.4-9.74-3.65-14.96
			c-0.09-1.98-0.31-3.94-0.68-5.87c-0.45-2.34-1.06-4.64-2.52-6.62c-1.52-2.06-4.09-2.96-6.29-2.15c-2.99,1.1-4.83,3.35-5.98,6.17
			c-0.52,1.27-0.82,2.69-1,4.05c-0.41,2.98-0.48,6.01-0.03,8.99c0.36,2.4,0.85,4.79,1.83,7.04c0.74,1.71,1.42,3.46,2.34,5.08
			c1.35,2.39,2.91,4.64,4.64,6.79c1.63,2.02,3.18,4.1,4.82,6.11c1.97,2.41,4.04,4.72,5.54,7.49c0.85,1.57,1.14,3.21,1.02,4.95
			c-0.07,1.09-0.43,2.04-1.44,2.44c-1.51,0.36-2.4-0.29-3.02-1.48c-0.31-0.6-0.59-1.2-0.81-1.84c-0.43-1.29-0.6-2.6-0.7-3.95
			c-0.13-1.85-2.03-3.5-3.69-3.25c-1.14,0.17-2.13,0.66-2.96,1.54c-1.22,1.29-1.77,2.89-2.31,4.49c-0.71,2.1-0.47,4.31-0.26,6.46
			c0.07,0.69,0.19,1.42,0.52,2.1c0.72,1.48,1.24,3.04,2.06,4.5c1.08,1.93,2.33,3.71,3.99,5.12c1.84,1.57,3.51,3.39,5.78,4.4
			c0.18,0.08,0.34,0.24,0.5,0.38c1.19,1.03,2.58,1.75,3.98,2.41c3.7,1.75,7.46,3.37,10.86,5.71c2.01,1.38,4.02,2.76,5.66,4.59
			c1.08,1.2,2.15,2.4,3.29,3.54c1.08,1.07,2.03,2.24,2.8,3.53c1.63,2.71,3.2,5.46,4.79,8.19c1.72,2.95,3.26,6,5.39,8.71
			c2.17,2.77,4.59,5.2,7.98,6.44c0.19,0.07,0.39,0.16,0.56,0.27c1.2,0.78,2.56,1.1,3.93,1.42c4.12,0.95,8.22,0.5,12.3-0.23
			c3.26-0.59,6.56-0.95,9.85-1.3c2.33-0.25,4.69-0.11,7.03-0.04c1.72,0.05,3.38,0.46,5.04,0.84c2.2,0.49,3.96,1.82,5.5,3.4
			c1.36,1.39,1.6,3.72,0.78,5.47c-0.41,0.87-1,1.57-1.71,2.13c-1.6,0.45-3.16,0.83-4.79,0.75c-2.08-0.1-4.11-0.47-6.09-1.13
			c-3.63-1.23-7.18-2.7-11.03-3.18c-2.96-0.37-5.82,0.01-8.5,1.23c-1.88,0.85-3.56,2.1-5.3,3.23c-1.1,0.72-2.21,1.48-3.59,1.76
			c-1.38,0.28-2.72,0.42-4.13,0.28c-1.47-0.15-2.87-0.4-4.11-1.25c-1.19-0.81-2.54-1.37-3.53-2.48c-1.44-1.61-3.92-2.69-6.62-1.52
			c-2.18,2.49-2.11,5.22-1.2,7.9c0.87,2.58,2.48,4.79,4.41,6.72c2.11,2.11,4.61,3.69,7.31,4.93c2.27,1.05,4.69,1.37,7.12,1.16
			c2.68-0.23,5.33-0.73,8-1.08c0.67-0.09,1.36-0.1,2.03-0.02c1.13,0.14,2.24,0.38,3.36,0.6c2.46,0.49,4.52,1.81,6.47,3.28
			c1.65,1.25,3.06,2.78,4.67,4.09c2.04,1.66,4.42,2.66,6.76,3.77c0.18,0.09,0.41,0.07,0.61,0.12c1.9,0.44,3.83,0.3,5.75,0.28
			c1.46-0.01,2.88-0.34,4.27-0.78c2.99-0.94,5.67-2.5,8.31-4.14c3.3-2.05,6.58-4.13,10.08-5.82c3.45-1.67,7.04-2.41,10.87-2.09
			c1.37,0.12,2.44,0.76,3.48,1.53c0.2,0.15,0.39,0.4,0.42,0.64c0.21,1.39,0.4,2.8-0.4,4.1c-1.55,2.48-3.8,4.06-6.53,5.01
			c-4.29,1.48-8.76,2.09-13.25,2.47c-2.76,0.23-5.45,0.64-8.09,1.46c-1.16,0.36-2.25,0.8-3.25,1.44c-1.39,0.89-2.26,2.11-2.18,3.86
			c0.03,0.62,0.03,1.25,0,1.88c-0.04,0.65,0.14,1.27,0.44,1.8c0.5,0.91,1.08,1.78,1.73,2.59c1.42,1.75,3.22,3.07,5.2,4.13
			c2.76,1.49,5.65,2.61,8.81,2.81c2.44,0.15,4.88-0.01,7.29-0.4c0.76-0.12,1.53-0.15,2.3-0.37c2.34-0.68,4.64-1.47,6.91-2.35
			c1.74-0.68,3.4-1.51,5.04-2.43c1.85-1.04,3.63-2.19,5.38-3.38c1.11-0.76,2.26-1.47,3.35-2.26c2.6-1.89,5.23-3.76,8.13-5.16
			c2.03-0.99,4.12-1.86,6.52-1.75c2.19,0.1,4.4,1.75,5.2,3.65c0.89,2.11,0.16,3.96-1.2,5.6c-0.66,0.79-1.57,1.3-2.41,1.91
			c-1.91,1.4-4.03,2.31-6.25,3.02c-1.97,0.62-3.96,1.16-5.88,1.91c-1.97,0.77-3.49,2.05-3.69,4.38c-0.02,0.2-0.11,0.39-0.16,0.56
			c0.21,0.69,0.39,1.34,0.61,1.98c0.43,1.24,1.5,1.94,2.38,2.81c1.63,1.63,3.74,2.25,5.86,2.64c3.92,0.71,7.68-0.26,11.32-1.64
			c1.7-0.65,3.23-1.64,4.74-2.67c1.84-1.26,3.56-2.66,5.19-4.17c2.02-1.87,3.61-4.1,5.36-6.2c0.3-0.36,0.59-0.73,0.86-1.11
			c2.23-3.18,4.26-6.49,6.18-9.87c0.61-1.08,1.21-2.17,1.85-3.24c1.14-1.91,2.17-3.89,3.34-5.79c1-1.62,1.84-3.35,2.88-4.96
			c0.42-0.65,0.93-1.24,1.32-1.9c0.94-1.62,2.37-2.69,3.96-3.58c0.62-0.35,1.33-0.26,1.99-0.13c0.4,0.08,0.74,0.35,0.81,0.88
			c-1.23,1.16-2.67,2.13-3.6,3.74c0,0.53-0.16,1.13-0.33,1.74c0.14,0.55,0.28,1.1,0.41,1.61c0.65,0.59,1.1,1.33,1.96,1.58
			c2.35,0.69,4.6,0.65,6.7-0.78c1.77-1.21,3.2-2.79,4.71-4.28c0.93-0.92,1.66-2,2.4-3.07c1.71-2.47,3.36-4.98,4.53-7.76
			c1.45-3.44,3.2-6.74,4.67-10.17c1.15-2.66,2.27-5.34,3.35-8.03c1.1-2.74,2.18-5.48,3.53-8.21c0.42-0.25,0.91-0.53,1.41-0.83
			c2.62,0.27,5.2-0.26,7.8-0.3c1.04-0.02,2.05-0.11,3.05-0.49c0.62-0.24,1.32-0.19,2.19-0.05c-1.57,1.5-2.32,3.32-3.07,5.13
			c-0.76,1.83-1.02,3.68-0.48,5.62c0.32,1.15,1.06,1.89,2.16,2.27c0.39,0.14,0.79,0.21,1.16,0.3c1.03-0.31,2.06-0.42,3.08-0.6
			c1.69-0.29,3.6,1.28,3.67,3.18c0.08,2.03-0.27,3.95-1.22,5.71c-0.89,1.67-1.84,3.32-3.07,4.81c-0.85,1.03-1.6,2.16-2.5,3.17
			c-3.32,3.73-7.14,6.93-10.92,10.18c-2.16,1.86-4.2,3.82-5.64,6.35c-0.9,1.58-1.39,3.14-1.14,4.98c0.37,2.75,1.99,4.34,4.5,5.16
			c2.03,0.66,4.06,1.11,6.24,0.64c1.67-0.35,3.34-0.62,4.99-1.1c1.88-0.55,3.45-1.66,5.16-2.51c1.56-0.78,3.03-1.81,4.41-2.89
			c1.37-1.08,2.64-2.32,3.85-3.58c1-1.04,1.96-2.15,2.73-3.37c2.52-3.99,4.99-8,6.61-12.48c0.72-2,1.4-4,1.94-6.06
			c0.7-2.7,1.31-5.42,2.18-8.07c1.05-3.23,1.87-6.58,3.85-9.43c0.73-1.05,1.27-2.24,2.37-3.01c1.71-1.19,3.49-2.12,5.62-1.28
			c2.14,0.85,3.73,2.28,4.15,4.67c0.32,1.82,0.05,3.63-0.56,5.33c-1.09,3.07-2.75,5.84-5.07,8.14c-1.03,1.03-1.6,2.27-2.29,3.48
			c-0.18,0.31-0.23,0.67-0.27,1.04c-0.21,2.33,1.17,3.83,3.14,4.42c2.56,0.77,5.13,0.57,7.6-0.51c0.43-0.19,0.82-0.48,1.27-0.59
			c1.77-0.44,3.13-1.58,4.6-2.55c1.75-1.15,3.16-2.69,4.58-4.21c2.34-2.49,4.02-5.35,4.96-8.65c0.72-2.54,1.41-5.09,1.6-7.72
			c0.15-2.13,0.16-4.27,0.12-6.41c-0.08-3.96-0.09-7.92-0.04-11.88c0.01-0.42,0.05-0.82,0.14-1.23c0.32-1.57,0.65-3.15,0.83-4.73
			c0.22-1.94,0.92-3.72,1.64-5.48c0.96-2.34,2.03-4.64,2.87-7.03c0.83-2.35,1.44-4.76,1.63-7.24c0.22-3,0.22-6.01-0.5-8.98
			c-0.77-3.18-1.86-6.23-3.4-9.11c-1.37-2.56-2.53-5.21-3.38-7.99c-0.53-1.73-1.29-3.38-1.57-5.18c-0.37-2.34-1.1-4.71,0.37-6.99
			c0.53-0.43,1.09-0.89,1.61-1.31c2.4-0.13,3.65,0.47,4.34,2.31c0.4,1.05,0.69,2.16,0.75,3.33c0.12,2.38,0.08,4.76,0.01,7.14
			c-0.08,2.4-0.01,4.79,0.94,7.04c1.12,2.66,3.09,4.03,6.1,3.61c1.76-0.24,2.84-1.46,3.91-2.64c1.68-1.87,2.26-4.29,2.75-6.66
			C463.57,429.33,463.46,426.44,463.29,423.59z M208.66,388.65c-1.43-0.17-2.86-0.26-4.3-0.87c3.59-1.46,6.27-3.98,8.78-6.68
			c0.63-0.68,1.17-1.46,1.68-2.24c2.11-3.26,3.47-6.79,3.92-10.68c0.17-1.5,0.33-2.99,0.33-4.49c-0.01-4.04,0.19-8.08,0.2-12.12
			c0.01-3.14,0.57-6.15,1.39-9.15c1.13-4.14,3.42-7.56,6.18-10.77c2.05-2.39,4.32-4.5,6.96-6.17c2.62-1.65,5.45-2.92,8.53-3.51
			c1.63-0.31,3.25-0.64,4.88-0.93c0.66-0.12,1.34-0.14,2.16,0.03c-1.19,0.76-2.28,1.41-3.32,2.12c-3.58,2.44-6.16,5.65-7.86,9.61
			c-0.71,1.66-1.38,3.34-2.03,5.03c-0.5,1.31-0.64,2.72-0.86,4.09c-0.49,3.18-0.63,6.37-0.63,9.6c0,3.51,0.44,7.01,0.26,10.52
			c-0.09,1.7-0.4,3.4-0.46,5.1c-0.07,2.12-0.78,4.08-1.45,6.01c-0.75,2.19-1.77,4.31-3.32,6.1c-0.71,0.82-1.33,1.73-2.11,2.5
			c-2.94,2.92-6.25,5.25-10.32,6.28C214.47,388.76,211.59,389.01,208.66,388.65z M259.29,470.47c-0.56,2.35-2.11,4.02-4.12,5.25
			c-0.51,0.31-1.18,0.41-1.79,0.5c-1.88,0.28-3.74,0.77-5.69,0.36c-0.85-0.18-1.74-0.26-2.61-0.35c-1.95-0.2-3.69-0.92-5.43-1.74
			c-0.95-0.44-1.61-1.11-2.12-1.97c-1.15-1.97-2.31-3.93-3.42-5.92c-2.4-4.29-4.73-8.62-6.84-13.06c-1.87-3.93-3.48-7.97-5.08-12
			c-1.87-4.7-3.37-9.53-4.79-14.4c-0.69-2.38-1.15-4.81-1.76-7.2c-0.79-3.09-1.35-6.26-1.66-9.46c-0.23-2.37-0.58-4.73-0.84-7.1
			c-0.09-0.81-0.16-1.64,0.01-2.5c0.68-0.18,1.32-0.15,1.9-0.02c0.98,0.22,1.96,0.19,2.95,0.2c2.75,0.03,5.46,0.46,8.17,0.89
			c1.53,0.24,3.08,0.39,4.6,0.68c4.09,0.78,8.07,1.97,11.68,4.09c2.69,1.58,5.14,3.49,6.88,6.15c0.71,1.09,1.52,2.1,2.12,3.26
			c1.84,3.57,2.76,7.32,2.67,11.36c-0.05,2.35-0.34,4.63-1.11,6.86c-1.03,2.98-2.77,5.43-5.11,7.5c-0.27,0.24-0.6,0.42-0.72,0.89
			c0.32,0.6,0.9,1.04,1.42,1.54c2.91,2.75,5.7,5.63,7.63,9.18c1.48,2.73,2.85,5.55,3.32,8.67
			C259.94,464.91,259.96,467.72,259.29,470.47z M254.92,385.85c-3.11,0.09-6.24,0.08-9.34,0.32c-2.31,0.18-4.64,0.34-6.9,0.85
			c-0.45-0.49-0.05-0.91,0.01-1.34c0.54-3.74,1.52-7.39,2.3-11.07c0.58-2.73,1.44-5.39,2.13-8.09c0.47-1.8,1.03-3.59,1.61-5.36
			c1.59-4.81,3.34-9.57,5.28-14.26c1.62-3.92,3.35-7.81,5.45-11.5c1.51-2.66,3.17-5.22,4.88-7.76c1.13-1.68,2.34-3.3,3.51-4.94
			c1.44-2.02,3.12-3.88,4.71-5.79c0.56-0.68,1.24-1.27,1.75-1.98c1.11-1.54,2.68-2.24,4.43-2.65c2.92-0.68,5.89-1.15,8.86-1.61
			c0.2-0.03,0.41,0,0.79,0c-1.67,2.48-3.26,4.78-4.79,7.12c-1.96,2.99-3.73,6.09-5.43,9.23c-1.77,3.28-3.27,6.69-4.71,10.12
			c-1.52,3.62-2.95,7.3-4.13,11.05c-1.5,4.79-2.92,9.6-4.27,14.43c-0.51,1.84-0.77,3.74-1.31,5.58c-0.12,0.42-0.22,0.92,0.04,1.48
			c1.39,0.22,2.79-0.32,4.22-0.28c1.39,0.04,2.79-0.19,4.19-0.24c1.45-0.05,2.91-0.01,4.46-0.01c-0.56,5.49-1.93,10.86-2.35,16.4
			c-0.58,0.2-1.14,0.15-1.71,0.14C264.04,385.66,259.47,385.71,254.92,385.85z M301.34,485.26c-4.46-0.44-8.71-0.87-13.05-1.3
			c-0.41-2.01-0.57-4.07-0.86-6.11c-0.29-1.98,0.06-4.02-0.51-6.04c-1.11-0.12-2.13-0.25-3.16-0.32c-0.64-0.05-1.21-0.28-1.8-0.46
			c-0.93-0.28-1.87-0.58-3.02-0.44c-0.2,1.39-0.1,2.73-0.11,4.07c-0.01,1.3-0.1,2.62,0.04,3.9c0.15,1.34,0.12,2.67,0.22,4.13
			c-1.83,0.09-3.37-0.68-4.99-1.1c-1.65-0.44-3.32-0.77-5.01-1.5c-0.3-1.59-0.66-3.25-0.93-4.93c-0.63-3.88-1.31-7.76-1.77-11.66
			c-0.26-2.26-0.55-4.52-0.81-6.78c-0.45-3.91-0.64-7.83-0.98-11.75c-0.45-5.24-0.6-10.47-0.59-15.72c0.01-2.6,0.18-5.17,0.61-7.74
			c0.2-1.17,0.27-2.37,0.37-3.55c0.1-1.19,0.28-2.36,0.77-3.47c0.19-0.42,0.35-0.86,0.46-1.31c0.82-3.19,2.97-5.04,6.04-5.84
			c1.54-0.4,3.14-0.57,4.74-0.7c2.08-0.17,4.15-0.3,6.22-0.2c2.58,0.11,5.2,0.03,7.74,0.59c1.85,0.4,3.7,0.9,5.36,1.96
			c1.53,0.98,2.45,2.4,3.08,4c0.64,1.64,0.95,3.37,1.02,5.16c0.07,1.92,0.23,3.83,0.26,5.75c0.03,1.41-0.29,2.78-0.28,4.19
			c0.04,4.27,0.13,8.55-0.11,12.81c-0.21,3.75-0.2,7.49-0.15,11.23c0.06,4.88,0.23,9.75,0.33,14.63c0.05,2.22,0.1,4.45,0.29,6.66
			c0.29,3.57,0.35,7.16,0.57,10.73C301.36,484.44,301.34,484.74,301.34,485.26z M305.39,310.26c0.03,0.62-0.06,1.25-0.14,1.87
			c-0.26,2.11-0.55,4.21-0.81,6.32c-0.29,2.36-0.58,4.73-0.83,7.1c-0.14,1.29-0.15,2.58-0.35,3.87c-0.24,1.59-0.4,3.19-0.55,4.79
			c-0.1,1.03-0.14,2.06-0.16,3.1c-0.04,2.18-0.21,4.36-0.36,6.54c-0.15,2.13-0.08,4.27-0.29,6.38c-0.28,2.86-0.13,5.72-0.31,8.56
			c-0.51,8.33-0.32,16.66-0.31,24.99c0,0.72,0,1.44,0,2.12c-1.37,0.32-20.35,0.14-21.54-0.2c0.36-1.97,0.24-3.98,0.41-5.98
			c0.12-1.49,0.31-2.98,0.5-4.47c0.25-2.05,0.54-4.1,0.8-6.15c0.15-1.18,0.33-2.36,0.42-3.55c0.15-1.91,0.59-3.78,0.9-5.66
			c0.25-1.53,0.41-3.08,0.7-4.61c0.64-3.35,1.25-6.7,2.03-10.02c0.67-2.87,1.29-5.76,2.07-8.6c1.04-3.78,2.1-7.56,3.33-11.29
			c1.05-3.2,2.07-6.41,3.24-9.56c0.86-2.32,1.74-4.65,2.87-6.9c2.9-0.68,5.71-0.35,8.47-0.5
			C305.94,309.1,305.36,309.66,305.39,310.26z M328.56,484.78c-0.73,0.37-1.6,0.26-2.4,0.34c-1.83,0.19-3.66,0.45-5.54,0.3
			c-2.28-0.18-4.58-0.1-6.86-0.12c-1.5-0.01-3,0-4.61,0c0.13-1.2,0.16-2.22,0.35-3.22c0.65-3.51,1.22-7.03,1.53-10.6
			c0.16-1.84,0.55-3.67,0.8-5.5c0.17-1.28,0.3-2.57,0.34-3.84c0.11-3.11,0.63-6.18,0.77-9.3c0.18-3.93,0.34-7.88,0.62-11.8
			c0.36-5.18,0.51-10.36,0.64-15.54c0.13-5.34,0.18-10.68,0.19-16.02c0-0.36-0.08-0.73,0.14-1.15c0.14-0.04,0.33-0.15,0.52-0.15
			c6.33,0.05,12.67,0.12,19.14,0.18c-0.08,1.4,0.04,2.72-0.19,4.06c-0.12,0.71-0.06,1.45-0.09,2.18c-0.11,2.8-0.3,5.59-0.61,8.38
			c-0.2,1.75-0.23,3.52-0.4,5.28c-0.24,2.37-0.39,4.75-0.79,7.11c-0.34,2.04-0.5,4.11-0.76,6.16c-0.19,1.43-0.41,2.86-0.64,4.28
			c-0.29,1.83-0.56,3.67-0.91,5.5c-0.63,3.3-1.26,6.6-1.97,9.88c-0.57,2.62-1.32,5.19-2.05,7.89c1.58,0.43,3.04-0.25,4.51-0.08
			c1.45,0.17,2.87-0.46,4.33-0.27C334.38,471.16,330.49,481.46,328.56,484.78z M330.25,357.72c0.25,4.87,0.15,9.73,0.19,14.58
			c0.04,4.83-0.11,9.67-0.44,14.66c-2.58,0.11-5.16-0.23-7.72-0.35c-2.56-0.12-5.15-0.03-7.78-0.4c0.09-1.24,0.21-2.36,0.25-3.49
			c0.09-2.81,0.2-5.62,0.38-8.41c0.21-3.22,0.08-6.45,0.32-9.66c0.33-4.48,0.15-8.95,0.15-13.43c0.01-3.36-0.1-6.72-0.31-10.07
			c-0.23-3.63-0.4-7.26-0.62-10.88c-0.19-3.19-0.66-6.37-0.81-9.57c-0.14-2.91-0.63-5.78-0.66-8.69c-0.01-1.19-0.51-2.34-0.24-3.64
			c1.14-0.33,2.3,0.16,3.46,0.09c1.14-0.06,2.3,0.06,3.44,0.01c1.21-0.06,2.36,0.27,3.56,0.34c1.13,0.95,1.6,2.32,2.29,3.51
			c1.52,2.64,2.88,5.37,4.17,8.14c2.22,4.74,4.18,9.59,6.18,14.42c0.23,0.55,0.1,1.28,0.77,1.67c0.57-0.32,0.51-0.81,0.6-1.18
			c0.46-1.86,0.85-3.73,1.1-5.63c0.21-1.54,0.34-3.1,0.7-4.6c0.34-1.43,0.42-2.89,0.49-4.32c0.1-2.23,0.35-4.46,0.46-6.69
			c0.07-1.32,0.11-2.67,0.33-4.08c3.33,0.85,6.75,0.86,9.98,2.41c0.48,0.85,0.76,1.97,1.22,3c1.16,2.59,2.16,5.25,3.22,7.89
			c0.76,1.87,1.57,3.72,2.25,5.61c1.54,4.29,3.08,8.58,4.49,12.91c1.02,3.14,1.95,6.33,2.7,9.55c0.67,2.92,1.44,5.81,2.07,8.74
			c0.76,3.54,1.23,7.13,2.06,10.65c0.23,0.95,0.23,1.95,0.38,2.93c0.47,3.17,0.96,6.35,1.21,9.54c0.18,2.26,0.6,4.52,0.32,6.86
			c-1.47,0.1-2.82-0.22-4.19-0.5c-1.42-0.29-2.85-0.5-4.28-0.73c-1.38-0.22-2.81,0.14-4.25-0.38c-0.23-1.88-0.45-3.77-0.68-5.67
			c-0.52-4.26-0.85-8.53-1.75-12.74c-0.46-2.17-0.94-4.34-1.43-6.51c-0.45-2.01-1.15-3.95-2.03-5.87
			c-1.26,9.99-3.65,19.7-6.48,29.47c-1.45-0.08-2.87-0.17-4.44-0.26C338.37,376.8,334.94,367.04,330.25,357.72z M357.5,466.85
			c1.92,0.15,3.53-0.38,5.16-0.7c1.61-0.32,3.18-0.84,4.82-1.29c0.27,0.74-0.09,1.38-0.31,1.95c-1.03,2.65-2.14,5.26-3.22,7.88
			c-0.61,1.48-1.23,2.96-1.86,4.48c-8.35,2.73-16.94,3.82-25.77,4.87c0.95-2.43,1.85-4.66,2.7-6.91c1.27-3.39,2.51-6.79,3.65-10.24
			c1.25-3.78,2.43-7.57,3.48-11.4c0.74-2.69,1.35-5.42,2.07-8.11c1.01-3.79,1.56-7.68,2.4-11.51c0.38-1.71,0.43-3.5,0.73-5.23
			c0.57-3.27,0.94-6.55,1.29-9.85c0.37-3.39,0.79-6.78,1.15-10.17c0.09-0.82,0.01-1.65,0.01-2.32c0.48-0.54,0.92-0.39,1.32-0.4
			c2.71-0.01,5.43,0.16,8.11-0.07c2.27-0.2,4.56-0.08,6.83-0.44c0.9-0.14,1.84-0.02,2.89-0.02
			C369.62,427.64,365.12,447.55,357.5,466.85z M403.42,404.57c-1.94,1.36-3.45,3.12-4.76,5.06c-0.93,1.38-1.64,2.86-2.24,4.42
			c-1.62,4.22-1.76,8.62-1.53,13.04c0.21,3.98,0.53,7.95,1.13,11.9c0.51,3.4,0.58,6.86,0.34,10.28c-0.17,2.4-0.57,4.85-1.29,7.14
			c-1.04,3.29-2.28,6.57-4.52,9.29c-1.55,1.87-3.27,3.56-5.34,4.91c-2.67,1.74-5.54,2.71-8.66,3.16c-1.08,0.15-2.12,0.31-3.53,0.2
			c2.04-2.03,3.64-3.97,4.99-6.12c0.71-1.14,1.4-2.3,1.94-3.53c1.61-3.68,2.41-7.54,2.82-11.53c0.43-4.16-0.31-8.14-1.15-12.15
			c-0.98-4.72-1.56-9.49-1.1-14.31c0.24-2.52,0.76-4.99,1.66-7.38c0.64-1.7,1.37-3.36,2.19-4.95c1.11-2.15,2.52-4.15,4.36-5.8
			c0.88-0.79,1.7-1.63,2.72-2.27c1.6-1,3.29-1.68,5.13-2.15c2.41-0.61,4.83-0.62,7.27-0.49c0.2,0.01,0.4,0.09,0.59,0.14
			c0.03,0.01,0.04,0.08,0.1,0.21C404.18,403.93,403.83,404.29,403.42,404.57z M412.44,396.02c-0.04,0.03-0.1,0.04-0.15,0.04
			c-0.15,0.01-0.32,0.03-0.46,0c-9.22-1.92-18.54-3.28-27.93-4.97c-1.33-13.38-3.88-26.49-7.66-39.37
			c-3.78-12.87-8.86-25.21-14.85-37.1c0.24-0.29,0.41-0.26,0.55-0.22c3.97,1.18,7.84,2.63,11.61,4.35c2.82,1.28,5.6,2.67,8.34,4.11
			c1.78,0.94,3.5,1.98,5.14,3.16c1.46,1.05,2.64,2.32,3.64,3.77c1.68,2.44,3.04,5.07,4.49,7.65c0.21,0.38,0.46,0.79,0.43,1.41
			c-3.96-1.69-7.82-3.54-12.2-4.22c0.58,2.67,1.91,4.9,2.71,7.33c0.79,2.4,1.64,4.79,2.39,6.96c0.59,0.56,1.15,0.65,1.62,0.75
			c1.94,0.41,3.67,1.39,5.57,1.92c1.12,0.31,1.7,1.03,2.05,2.12c0.73,2.27,1.55,4.51,2.35,6.75c0.56,1.56,0.73,3.2,1.12,5.01
			c-2.85-0.67-5.57-1.15-8.49-1.64c-0.15,0.98-0.03,1.77,0.2,2.58c0.94,3.23,1.57,6.53,2,9.87c0.06,0.48,0.2,0.91,0.45,1.41
			c0.94,0.29,1.91,0.64,2.9,0.88c3.68,0.88,7.25,2.1,10.91,3.03c1.54,0.39,2.14,1.3,2.27,2.74c0.23,2.43,0.45,4.86,0.69,7.29
			c0.15,1.43,0.34,2.85,0.5,4.2C412.52,395.95,412.49,396,412.44,396.02z M468.64,459.24c-0.92-1.17-2.51-1.6-3.76-0.9
			c-0.75,0.42-1.49,0.9-2.02,1.66c-2.29,3.29-2.6,6.74-1.03,10.29c0.51,0.39,0.92,0.71,1.42,1.09c2.96,0.99,4.03-0.17,5.21-1.86
			c1.59-2.27,1.74-4.95,1.38-7.63C469.71,460.93,469.27,460.03,468.64,459.24z M476.68,426.21c-0.32-0.15-0.69-0.25-0.97-0.47
			c-1.36-1.03-2.75-0.8-4.18-0.17c-1.19,0.52-1.92,1.57-2.69,2.51c-0.74,0.91-1.28,1.99-1.48,3.2c-0.34,2.03-0.45,4.05-0.27,6.1
			c0.29,3.31,1.2,6.25,3.95,8.42c1.48,1.17,3.21,1.31,4.61,0.13c1.5-1.26,2.62-2.74,3.25-4.63c1.33-3.98,1.43-7.89-0.23-11.82
			C478.2,428.32,477.55,427.3,476.68,426.21z M483.91,399.29c-0.18-2.95-0.57-5.86-1.42-8.69c-0.55-1.83-1.15-3.62-2.19-5.27
			c-0.64-1.01-1.36-1.94-2.01-2.93c-0.61-0.92-1.4-1.6-2.31-2.22c-1.31-0.89-2.84-1.19-4.27-1.77c-0.56-0.23-1.13-0.2-1.69-0.13
			c-4.07,0.48-6.76,2.86-8.12,6.54c-1.21,3.29-1.38,6.8-0.95,10.29c0.46,3.71,1.64,7.23,3.08,10.67c0.56,1.33,1.19,2.68,2.12,3.77
			c1.4,1.64,2.76,3.29,4.7,4.44c1.17,0.69,2.29,1.14,3.61,1.18c0.36,0.01,0.73,0.02,1.09,0c2.56-0.15,4.33-1.52,5.58-3.65
			c1.11-1.9,1.67-4,2.16-6.12c0.36-1.55,0.54-3.14,0.59-4.78C483.58,400.2,483.94,399.75,483.91,399.29z M455.49,484.66
			c-0.56-0.04-1.13-0.11-1.77,0.05c-0.37,0.52-0.97,0.82-1.7,1.17c-0.23,0.39-0.43,0.75-0.66,1.09c-0.92,1.33-0.87,2.83-0.79,4.34
			c0.03,0.55,0.42,0.94,0.79,1.3c0.29,0.29,0.67,0.49,0.96,0.69c1.44,0.36,2.6-0.3,3.35-1.27c1.4-1.81,2.01-3.92,1.29-6.22
			C456.52,485.35,456.09,484.9,455.49,484.66z M368.44,525.53c1.48-0.31,2.77-0.98,3.92-2c1.33-1.19,2.38-2.57,3.3-4.08
			c0.14-0.76,0.27-1.37,0.36-1.98c0.34-2.27-1.21-4.18-3.52-4.35c-1.17-0.09-2.25,0.15-3.26,0.78c-1.39,0.86-2.42,2.07-3.46,3.29
			c-1.69,2-1.61,4.22-1.07,6.55c0.1,0.43,0.4,0.72,0.71,1C366.28,525.51,367.3,525.77,368.44,525.53z M286.6,456.61
			c0-2.12,0.02-4.23,0.02-6.35c0-3.43-0.02-6.86-0.02-10.29c0-1.41-0.24-2.79-0.7-4.12c-0.55-1.58-2.1-2.59-3.7-2.55
			c-1.75,0.04-3.55,1.24-3.96,2.76c-0.42,1.55-0.72,3.11-0.73,4.74c-0.02,5.61,0.16,11.22,0.38,16.83c0.02,0.58,0.1,1.13,0.44,1.72
			c0.36,0.15,0.78,0.42,1.23,0.49c2.09,0.32,4.19,0.6,6.28,0.85c0.28,0.03,0.59-0.16,1.04-0.29
			C286.53,459.08,286.6,457.84,286.6,456.61z M235.29,420.73c-1.76-1.47-3.93-2-6.14-2.37c-0.19-0.03-0.41-0.08-0.59,0.09
			c-0.25,2.19,2.09,11.22,3.56,13.6c1.67-0.25,3.21-0.52,4.35-1.89c0.64-0.76,0.87-1.58,1.1-2.51
			C238.28,424.82,237.44,422.53,235.29,420.73z M243.94,454.67c-1.45-0.85-3.1-1.06-4.67-1.55c-0.09-0.03-0.25,0.15-0.41,0.25
			c1.3,3.79,2.2,7.71,4.53,11.12c0.47-0.12,0.74-0.14,0.97-0.25c0.93-0.44,1.97-0.71,2.62-1.59c1.09-1.47,1.16-3.07,0.35-4.67
			C246.58,456.52,245.35,455.5,243.94,454.67z"/>
	</g>
</g>
</svg>
